<svg width="1039" height="311" viewBox="0 0 1039 311" fill="none" xmlns="http://www.w3.org/2000/svg">
<g clip-path="url(#clip0_74_352)">
<path d="M0 152.37V6.51001H42.5601V113.36H98.1401V152.37H0Z" fill="#1F1C3D"/>
<path d="M129.53 154.31C122.16 154.31 115.34 152.92 109.27 150.17C102.75 147.22 97.51 142.77 93.7 136.94C89.87 131.08 87.9302 123.99 87.9302 115.84C87.9302 108.75 89.38 102.61 92.25 97.61C95.08 92.66 98.9801 88.65 103.82 85.69C105.3 84.79 106.84 83.96 108.44 83.21L87.5701 78.97L91.1401 68.26C93.5201 61.11 97.3202 55.07 102.41 50.31C107.33 45.71 113.24 42.23 119.96 39.98C126.34 37.84 133.31 36.76 140.67 36.76C145.85 36.76 151.13 37.37 156.38 38.58C162.06 39.89 167.34 42.13 172.09 45.25C177.21 48.62 181.38 53.15 184.47 58.73C187.6 64.38 189.19 71.3 189.19 79.29V152.39H148.16V150.71C147.44 151.03 146.71 151.33 145.95 151.62C141.2 153.43 135.67 154.34 129.52 154.34L129.53 154.31ZM129.31 114.66C129.28 114.79 129.23 115.08 129.23 115.59C129.23 116.2 129.32 116.44 129.32 116.44C129.38 116.5 129.67 116.89 130.67 117.29C131.87 117.77 133.39 118.01 135.19 118.01C138.03 118.01 140.38 117.51 142.17 116.53C143.94 115.56 145.24 114.37 146.16 112.9C146.62 112.15 146.95 111.4 147.15 110.6C145.78 110.83 144.43 111.04 143.09 111.22C141.02 111.5 139.26 111.73 137.83 111.91C135.36 112.26 133.15 112.8 131.25 113.53C130.36 113.87 129.7 114.26 129.31 114.67V114.66ZM140.77 73.64C138.47 73.64 136.57 73.94 135.15 74.55C133.79 75.12 132.73 75.8 132.02 76.57C131.75 76.86 131.5 77.15 131.29 77.44C131.82 77.38 132.35 77.32 132.88 77.27C138.24 76.66 142.65 76.13 145.98 75.69C146.29 75.65 146.57 75.61 146.83 75.57C146.79 75.48 146.75 75.4 146.71 75.32C146.61 75.14 146.42 74.81 145.6 74.42C144.99 74.13 143.54 73.64 140.78 73.64H140.77Z" fill="#1F1C3D"/>
<path d="M229.85 152.37V6.51001H288C298.52 6.51001 307.59 8.29001 314.94 11.79C322.72 15.5 328.69 20.71 332.69 27.27C336.63 33.74 338.63 41.12 338.63 49.2C338.63 55.99 337.23 62.01 334.46 67.1C332.79 70.17 330.76 72.91 328.38 75.29C332.28 78.34 335.59 82.18 338.24 86.74C341.75 92.77 343.52 99.95 343.52 108.07C343.52 116.19 341.44 124.09 337.33 130.84C333.15 137.7 326.92 143.12 318.81 146.94C311.16 150.54 301.67 152.37 290.6 152.37H229.83H229.85ZM287.07 113.53C295.2 113.53 297.9 111.72 298.54 111.17C300.05 109.86 300.64 108.51 300.64 106.38C300.64 104.45 300.23 102.89 299.34 101.45C298.45 100.01 297.16 98.87 295.39 97.96C293.42 96.95 290.88 96.44 287.83 96.44H272.4V113.52H287.07V113.53ZM285.13 60.15C287.68 60.15 289.81 59.74 291.65 58.88C293.16 58.18 294.25 57.29 295.06 56.09C295.5 55.44 296.08 54.32 296.08 52.07C296.08 49.97 295.52 48.61 294.16 47.36C292.69 46.01 289.66 45.26 285.64 45.26H272.41V60.15H285.13Z" fill="#1F1C3D"/>
<path d="M381.59 153.55C373.39 153.55 366.01 151.72 359.64 148.11C353.04 144.37 347.88 138.88 344.31 131.78C340.94 125.08 339.23 117.07 339.23 107.99V37.93H381.19V104.61C381.19 108.31 381.97 111.04 383.51 112.73C384.43 113.73 385.96 114.88 389.69 114.88C391.87 114.88 393.68 114.46 395.22 113.6C396.55 112.86 397.55 111.8 398.36 110.25C399.31 108.45 399.79 106.09 399.79 103.25V37.92H441.84V152.36H401.08L401.04 149.06C395.32 152.04 388.8 153.54 381.57 153.54L381.59 153.55Z" fill="#1F1C3D"/>
<path d="M366.66 45.85L387.49 0H433.8L403.53 45.85H366.66Z" fill="#1F1C3D"/>
<path d="M487.27 154.31C478.84 154.31 471.19 153.05 464.51 150.55C457.43 147.9 451.48 143.93 446.83 138.73C442.04 133.37 438.89 126.86 437.49 119.38L435.65 109.56L457.33 105.46C454.32 103.73 451.69 101.75 449.45 99.52C443.14 93.21 439.93 85.11 439.93 75.47C439.93 67.43 442.22 60.29 446.74 54.27C451.03 48.55 456.94 44.11 464.31 41.06C471.22 38.2 479.2 36.75 488.03 36.75C496.86 36.75 503.85 38.01 510.15 40.49C516.78 43.1 522.28 46.87 526.51 51.7C530.73 56.51 533.69 62.21 535.31 68.63L537.89 78.84L516.83 83.02C521.38 85.07 525.17 87.59 528.28 90.61C534.51 96.68 537.81 104.8 537.81 114.08C537.81 122.25 535.39 129.58 530.63 135.87C526.13 141.8 519.93 146.46 512.21 149.7C504.89 152.77 496.5 154.32 487.27 154.32V154.31ZM477.97 112.46C478.89 114.8 480.01 115.58 480.42 115.86C481.97 116.93 484.49 117.5 487.69 117.5C490.53 117.5 492.86 117.09 494.36 116.32C493.54 115.97 492.28 115.54 490.43 115.13L477.96 112.45L477.97 112.46ZM482.93 74.1C483.83 74.47 485.25 74.94 487.4 75.4L496.21 77.26C495.71 76.14 494.96 75.2 493.9 74.33C493.46 73.97 492.03 73.14 488.28 73.14C486.1 73.14 484.3 73.46 482.93 74.11V74.1Z" fill="#1F1C3D"/>
<path d="M595.7 187.68V150.27C590.76 152.78 584.72 154.06 577.74 154.06C568.38 154.06 559.83 151.6 552.34 146.76C544.88 141.94 538.97 134.95 534.8 125.98C530.82 117.42 528.8 107.1 528.8 95.32C528.8 83.54 530.88 73 534.97 64.44C539.24 55.51 545.2 48.59 552.67 43.87C560.15 39.14 568.55 36.75 577.65 36.75C584.89 36.75 591.11 38.09 596.12 40.73V37.93H637.66V187.68H595.7ZM583.74 74.82C581.07 74.82 579.03 75.4 577.51 76.6C575.65 78.07 574.24 80.16 573.19 83.01C571.92 86.47 571.27 90.58 571.27 95.22C571.27 99.86 571.92 104.03 573.2 107.56C574.26 110.47 575.7 112.62 577.6 114.14C578.59 114.93 580.29 115.97 583.74 115.97C587.19 115.97 588.82 114.96 589.8 114.21C591.64 112.79 593.07 110.7 594.16 107.82C595.47 104.36 596.13 100.12 596.13 95.22C596.13 90.32 595.48 86.13 594.2 82.75C593.15 79.99 591.75 77.97 589.92 76.58C588.91 75.82 587.17 74.8 583.75 74.8L583.74 74.82Z" fill="#1F1C3D"/>
<path d="M679.61 153.55C671.41 153.55 664.03 151.72 657.66 148.11C651.06 144.37 645.9 138.88 642.33 131.78C638.96 125.08 637.25 117.07 637.25 107.99V37.93H679.21V104.61C679.21 108.31 679.99 111.04 681.53 112.73C682.45 113.73 683.98 114.88 687.71 114.88C689.89 114.88 691.7 114.46 693.24 113.6C694.57 112.86 695.57 111.8 696.38 110.25C697.33 108.45 697.81 106.09 697.81 103.25V37.92H739.86V152.36H699.1L699.06 149.06C693.34 152.04 686.82 153.54 679.59 153.54L679.61 153.55Z" fill="#1F1C3D"/>
<path d="M791.29 154.31C780.02 154.31 770.06 151.83 761.71 146.95C753.21 141.99 746.6 134.92 742.04 125.95C737.65 117.3 735.42 107.14 735.42 95.74C735.42 84.34 737.6 74.38 741.91 65.7C746.37 56.72 752.81 49.57 761.06 44.46C769.31 39.34 779 36.75 789.86 36.75C796.72 36.75 803.38 37.88 809.65 40.12C816.18 42.45 822.05 46.1 827.09 50.96C832.17 55.86 836.16 62.07 838.95 69.43C841.65 76.54 843.02 84.94 843.02 94.4V111.12L844.3 111.38L841.16 121.85C839.19 128.43 835.77 134.28 831.01 139.22C826.34 144.07 820.51 147.86 813.67 150.49C807.05 153.03 799.52 154.32 791.29 154.32V154.31ZM779.8 111.32C780.84 113.08 782.11 114.35 783.73 115.27C785.88 116.49 788.43 117.09 791.54 117.09C793.59 117.09 795.41 116.82 796.94 116.27C798.23 115.81 799.29 115.18 800.18 114.32C800.97 113.57 801.56 112.62 801.99 111.43L802.03 111.32H779.81H779.8ZM797.34 76.36C797.03 76.07 796.7 75.8 796.35 75.56C794.84 74.51 792.68 73.97 789.94 73.97C787.2 73.97 784.91 74.53 783.2 75.68C782.88 75.89 782.58 76.12 782.29 76.36H797.34Z" fill="#1F1C3D"/>
<path d="M883.02 154.06C873.66 154.06 865.11 151.6 857.62 146.76C850.16 141.94 844.25 134.95 840.08 125.98C836.1 117.42 834.08 107.1 834.08 95.32C834.08 83.54 836.16 73 840.25 64.44C844.52 55.51 850.48 48.59 857.95 43.87C865.43 39.14 873.83 36.75 882.93 36.75C889.97 36.75 896.04 38.02 900.97 40.51V6.51001H942.93V152.37H901.39V150.05C901.3 150.1 901.2 150.15 901.11 150.2C896.15 152.76 890.06 154.06 883.01 154.06H883.02ZM889.02 74.82C886.35 74.82 884.31 75.4 882.79 76.6C880.93 78.07 879.52 80.16 878.47 83.01C877.2 86.47 876.55 90.58 876.55 95.22C876.55 99.86 877.2 104.03 878.48 107.56C879.54 110.47 880.98 112.62 882.88 114.14C883.87 114.93 885.57 115.97 889.02 115.97C892.47 115.97 894.1 114.96 895.08 114.21C896.92 112.79 898.35 110.7 899.44 107.82C900.75 104.36 901.41 100.12 901.41 95.22C901.41 90.32 900.76 86.13 899.48 82.75C898.43 79.99 897.03 77.97 895.2 76.58C894.19 75.82 892.45 74.8 889.03 74.8L889.02 74.82Z" fill="#1F1C3D"/>
<path d="M978.9 154.31C971.53 154.31 964.71 152.92 958.64 150.17C952.12 147.22 946.88 142.77 943.07 136.94C939.24 131.08 937.3 123.99 937.3 115.84C937.3 108.75 938.75 102.61 941.62 97.61C944.45 92.66 948.35 88.65 953.19 85.69C954.67 84.79 956.21 83.96 957.81 83.21L936.94 78.97L940.51 68.26C942.89 61.11 946.69 55.07 951.78 50.31C956.7 45.71 962.61 42.23 969.33 39.98C975.71 37.84 982.68 36.76 990.04 36.76C995.22 36.76 1000.5 37.37 1005.75 38.58C1011.43 39.89 1016.71 42.13 1021.46 45.25C1026.58 48.62 1030.75 53.15 1033.84 58.73C1036.97 64.38 1038.56 71.3 1038.56 79.29V152.39H997.53V150.71C996.81 151.03 996.08 151.33 995.32 151.62C990.57 153.43 985.04 154.34 978.89 154.34L978.9 154.31ZM978.68 114.66C978.65 114.79 978.6 115.08 978.6 115.59C978.6 116.2 978.69 116.44 978.69 116.44C978.75 116.5 979.04 116.89 980.04 117.29C981.24 117.77 982.76 118.01 984.56 118.01C987.4 118.01 989.75 117.51 991.54 116.53C993.31 115.56 994.61 114.37 995.53 112.9C995.99 112.15 996.32 111.4 996.52 110.6C995.15 110.83 993.8 111.04 992.46 111.22C990.39 111.5 988.63 111.73 987.2 111.91C984.73 112.26 982.52 112.8 980.62 113.53C979.73 113.87 979.07 114.26 978.68 114.67V114.66ZM990.13 73.64C987.83 73.64 985.93 73.94 984.51 74.55C983.15 75.12 982.09 75.8 981.38 76.57C981.11 76.86 980.86 77.15 980.65 77.44C981.18 77.38 981.71 77.32 982.24 77.27C987.6 76.66 992.01 76.13 995.34 75.69C995.65 75.65 995.93 75.61 996.19 75.57C996.15 75.48 996.11 75.4 996.07 75.32C995.97 75.14 995.78 74.81 994.96 74.42C994.35 74.13 992.9 73.64 990.14 73.64H990.13Z" fill="#1F1C3D"/>
<path d="M247.07 310.06C234.27 310.06 222.61 307.01 212.42 300.98C202.16 294.92 193.98 286.13 188.11 274.86C182.37 263.84 179.46 250.6 179.46 235.53C179.46 220.46 182.38 207.11 188.15 196.06C194.04 184.76 202.25 175.96 212.55 169.9C222.77 163.88 234.38 160.83 247.06 160.83C254.94 160.83 262.48 161.97 269.44 164.23C276.56 166.54 283.01 169.98 288.64 174.45C294.34 178.99 299.08 184.59 302.74 191.1C306.37 197.55 308.81 204.91 310 212.96L311.69 224.42H269.14L267.57 216.33C267.07 213.76 266.25 211.54 265.12 209.71C263.99 207.89 262.64 206.39 260.97 205.13C259.23 203.82 257.29 202.83 255.05 202.13C252.71 201.4 250.14 201.03 247.4 201.03C242.46 201.03 238.26 202.2 234.57 204.61C230.84 207.04 227.94 210.6 225.71 215.49C223.31 220.77 222.09 227.51 222.09 235.55C222.09 243.59 223.31 250.45 225.73 255.69C227.97 260.54 230.86 264.04 234.56 266.39C238.28 268.75 242.45 269.9 247.32 269.9C250.06 269.9 252.63 269.53 254.97 268.8C257.23 268.09 259.19 267.1 260.97 265.77C262.65 264.51 264.03 263 265.18 261.15C266.32 259.31 267.1 257.21 267.55 254.71L269.04 246.5H311.69L310.09 257.89C309.08 265.07 306.85 271.9 303.45 278.19C300.04 284.5 295.52 290.12 290 294.89C284.49 299.66 278.04 303.43 270.82 306.09C263.62 308.74 255.62 310.09 247.04 310.09L247.07 310.06Z" fill="#1F1C3D"/>
<path d="M306.26 308.37V193.93H347.55V195.6C351.96 193.65 356.76 192.66 361.88 192.66C363.35 192.66 364.99 192.73 366.76 192.86C368.58 193 370.12 193.16 371.47 193.38L379.91 194.71V237.04L366.93 232.99C366.93 232.99 366.26 232.83 364.41 232.62C362.75 232.44 361.11 232.34 359.52 232.34C357.13 232.34 355.1 232.8 353.32 233.76C351.67 234.65 350.47 235.78 349.56 237.3C348.66 238.8 348.23 240.6 348.23 242.78V308.36H306.27L306.26 308.37Z" fill="#1F1C3D"/>
<path d="M419.23 310.31C407.96 310.31 398 307.83 389.65 302.95C381.15 297.99 374.54 290.92 369.98 281.95C365.59 273.3 363.36 263.14 363.36 251.74C363.36 240.34 365.54 230.38 369.85 221.7C374.31 212.72 380.75 205.57 389 200.46C397.25 195.34 406.94 192.75 417.8 192.75C424.66 192.75 431.32 193.88 437.59 196.12C444.12 198.45 449.99 202.1 455.03 206.96C460.11 211.86 464.1 218.07 466.89 225.43C469.59 232.54 470.96 240.94 470.96 250.4V267.12L472.24 267.38L469.1 277.85C467.13 284.43 463.71 290.28 458.95 295.22C454.28 300.07 448.45 303.86 441.61 306.49C434.99 309.03 427.46 310.32 419.23 310.32V310.31ZM407.75 267.32C408.79 269.08 410.06 270.35 411.68 271.27C413.83 272.49 416.38 273.09 419.49 273.09C421.54 273.09 423.36 272.82 424.89 272.27C426.18 271.81 427.24 271.18 428.13 270.32C428.92 269.57 429.51 268.62 429.94 267.43L429.98 267.32H407.76H407.75ZM425.28 232.36C424.97 232.07 424.64 231.8 424.29 231.56C422.78 230.51 420.62 229.97 417.88 229.97C415.14 229.97 412.85 230.53 411.14 231.68C410.82 231.89 410.52 232.12 410.23 232.36H425.28Z" fill="#1F1C3D"/>
<path d="M504.21 310.31C496.84 310.31 490.02 308.92 483.95 306.17C477.43 303.22 472.19 298.77 468.38 292.94C464.55 287.08 462.61 279.99 462.61 271.84C462.61 264.75 464.06 258.61 466.93 253.61C469.76 248.66 473.66 244.65 478.5 241.69C479.98 240.79 481.52 239.96 483.12 239.21L462.25 234.97L465.82 224.26C468.2 217.11 472 211.07 477.09 206.31C482.01 201.71 487.92 198.23 494.64 195.98C501.02 193.84 507.99 192.76 515.35 192.76C520.53 192.76 525.81 193.37 531.06 194.58C536.74 195.89 542.02 198.13 546.77 201.25C551.89 204.62 556.06 209.15 559.15 214.73C562.28 220.38 563.87 227.3 563.87 235.29V308.39H522.84V306.71C522.12 307.03 521.39 307.33 520.63 307.62C515.88 309.43 510.35 310.34 504.2 310.34L504.21 310.31ZM503.99 270.66C503.96 270.79 503.91 271.08 503.91 271.59C503.91 272.2 504 272.44 504 272.44C504.06 272.5 504.35 272.89 505.35 273.29C506.55 273.77 508.07 274.01 509.87 274.01C512.71 274.01 515.06 273.51 516.85 272.53C518.62 271.56 519.92 270.37 520.84 268.9C521.3 268.15 521.63 267.4 521.83 266.6C520.46 266.83 519.11 267.04 517.77 267.22C515.7 267.5 513.94 267.73 512.51 267.91C510.04 268.26 507.83 268.8 505.93 269.53C505.04 269.87 504.38 270.26 503.99 270.67V270.66ZM515.44 229.64C513.14 229.64 511.24 229.94 509.82 230.55C508.46 231.12 507.4 231.8 506.69 232.57C506.42 232.86 506.17 233.15 505.96 233.44C506.49 233.38 507.02 233.32 507.55 233.27C512.91 232.66 517.32 232.13 520.65 231.69C520.96 231.65 521.24 231.61 521.5 231.57C521.46 231.48 521.42 231.4 521.38 231.32C521.28 231.14 521.09 230.81 520.27 230.42C519.66 230.13 518.21 229.64 515.45 229.64H515.44Z" fill="#1F1C3D"/>
<path d="M605.15 309.64C593.52 309.64 584.2 306.47 577.47 300.2C570.53 293.75 567.02 284.81 567.02 273.62V231.16H553.59V193.93H567.02V171.46H608.98V193.93H627.23V231.16H608.98V271.69C609.38 271.66 609.99 271.59 610.86 271.46C612.65 271.19 613.67 270.99 614.21 270.87L624.15 268.66L631.47 304.54L622.74 307.18C619.79 308.07 616.72 308.72 613.63 309.1C610.69 309.46 607.84 309.64 605.15 309.64Z" fill="#1F1C3D"/>
<path d="M662.96 193.93H621V308.37H662.96V193.93Z" fill="#1F1C3D"/>
<path d="M641.98 200.58C635.95 200.58 630.47 198.41 626.12 194.3C621.61 190.05 619.23 184.61 619.23 178.58C619.23 172.55 621.63 166.93 626.17 162.69C630.51 158.64 635.98 156.5 641.99 156.5C648 156.5 653.54 158.64 657.89 162.69C662.43 166.93 664.83 172.39 664.83 178.5C664.83 184.61 662.45 190.04 657.94 194.3C653.59 198.41 648.07 200.58 641.99 200.58H641.98Z" fill="#1F1C3D"/>
<path d="M692.47 308.37L649.89 193.93H694.96L711.92 244.48L728.79 193.93H773.73L730.94 308.37H692.47Z" fill="#1F1C3D"/>
<path d="M795.47 310.31C788.1 310.31 781.28 308.92 775.21 306.17C768.69 303.22 763.45 298.77 759.64 292.94C755.81 287.08 753.87 279.99 753.87 271.84C753.87 264.75 755.32 258.61 758.19 253.61C761.02 248.66 764.92 244.65 769.76 241.69C771.24 240.79 772.78 239.96 774.38 239.21L753.51 234.97L757.08 224.26C759.46 217.11 763.26 211.07 768.35 206.31C773.27 201.71 779.18 198.23 785.9 195.98C792.28 193.84 799.25 192.76 806.61 192.76C811.79 192.76 817.07 193.37 822.32 194.58C828 195.89 833.28 198.13 838.03 201.25C843.15 204.62 847.32 209.15 850.41 214.73C853.54 220.38 855.13 227.3 855.13 235.29V308.39H814.1V306.71C813.38 307.03 812.65 307.33 811.89 307.62C807.14 309.43 801.61 310.34 795.46 310.34L795.47 310.31ZM795.25 270.66C795.22 270.79 795.17 271.08 795.17 271.59C795.17 272.2 795.26 272.44 795.26 272.44C795.32 272.5 795.61 272.89 796.61 273.29C797.81 273.77 799.33 274.01 801.13 274.01C803.97 274.01 806.32 273.51 808.11 272.53C809.88 271.56 811.18 270.37 812.1 268.9C812.56 268.15 812.89 267.4 813.09 266.6C811.72 266.83 810.37 267.04 809.03 267.22C806.96 267.5 805.2 267.73 803.77 267.91C801.3 268.26 799.09 268.8 797.19 269.53C796.3 269.87 795.64 270.26 795.25 270.67V270.66ZM806.7 229.64C804.4 229.64 802.5 229.94 801.08 230.55C799.72 231.12 798.66 231.8 797.95 232.57C797.68 232.86 797.43 233.15 797.22 233.44C797.75 233.38 798.28 233.32 798.81 233.27C804.17 232.66 808.58 232.13 811.91 231.69C812.22 231.65 812.5 231.61 812.76 231.57C812.72 231.48 812.68 231.4 812.64 231.32C812.54 231.14 812.35 230.81 811.53 230.42C810.92 230.13 809.47 229.64 806.71 229.64H806.7Z" fill="#1F1C3D"/>
<path d="M32.5601 16.51H10V142.37H88.1401V123.36H32.5601V16.51Z" fill="#ABA9D5"/>
<path d="M166.61 53.59C162.84 51.11 158.68 49.35 154.15 48.31C149.62 47.27 145.12 46.75 140.68 46.75C134.37 46.75 128.53 47.65 123.15 49.45C117.77 51.25 113.14 53.97 109.25 57.6C105.36 61.23 102.49 65.84 100.63 71.41L120.99 75.55C121.78 73.47 123.02 71.52 124.71 69.72C126.4 67.92 128.58 66.45 131.26 65.33C133.93 64.2 137.1 63.64 140.76 63.64C144.42 63.64 147.39 64.22 149.84 65.37C152.29 66.53 154.13 68.19 155.37 70.35C156.61 72.52 157.23 75.15 157.23 78.25V78.67C157.23 80.81 156.43 82.39 154.82 83.4C153.21 84.41 150.69 85.15 147.26 85.6C143.82 86.05 139.38 86.59 133.91 87.2C129.29 87.65 124.84 88.41 120.56 89.48C116.28 90.55 112.44 92.13 109.03 94.21C105.62 96.29 102.92 99.08 100.92 102.57C98.9202 106.06 97.9202 110.48 97.9202 115.83C97.9202 122.03 99.3001 127.23 102.06 131.46C104.82 135.68 108.59 138.88 113.38 141.05C118.17 143.22 123.54 144.3 129.51 144.3C134.47 144.3 138.76 143.61 142.39 142.23C146.02 140.85 149.06 139.02 151.51 136.74C153.96 134.46 155.89 132 157.3 129.35H158.14V142.36H179.17V79.26C179.17 72.95 178.01 67.72 175.71 63.55C173.4 59.38 170.36 56.06 166.59 53.58L166.61 53.59ZM157.41 108.5C157.41 111.99 156.49 115.22 154.66 118.17C152.83 121.13 150.27 123.51 146.97 125.31C143.68 127.11 139.75 128.01 135.19 128.01C132.09 128.01 129.35 127.53 126.95 126.57C124.56 125.61 122.67 124.22 121.29 122.39C119.91 120.56 119.22 118.29 119.22 115.59C119.22 112.66 119.97 110.28 121.46 108.45C122.95 106.62 125.02 105.2 127.67 104.18C130.32 103.17 133.27 102.43 136.54 101.98C137.95 101.81 139.68 101.59 141.74 101.3C143.8 101.02 145.88 100.68 147.99 100.29C150.1 99.9 152.02 99.45 153.73 98.94C155.44 98.43 156.67 97.9 157.4 97.34V108.49L157.41 108.5Z" fill="#ABA9D5"/>
<path d="M328.8 125.64C331.95 120.46 333.53 114.6 333.53 108.07C333.53 101.54 332.22 96.27 329.6 91.77C326.98 87.27 323.62 83.77 319.51 81.3C315.4 78.82 311.12 77.47 306.67 77.25V75.98C310.78 75.02 314.48 73.42 317.78 71.17C321.07 68.92 323.71 65.98 325.68 62.34C327.65 58.71 328.64 54.33 328.64 49.2C328.64 42.95 327.15 37.37 324.16 32.47C321.17 27.57 316.67 23.68 310.64 20.81C304.61 17.94 297.07 16.5 288 16.5H239.85V142.36H290.62C300.25 142.36 308.23 140.87 314.57 137.88C320.91 134.9 325.65 130.81 328.8 125.63V125.64ZM262.4 35.26H285.63C292.39 35.26 297.48 36.84 300.92 39.99C304.35 43.14 306.07 47.17 306.07 52.07C306.07 55.79 305.15 59 303.32 61.7C301.49 64.4 299 66.49 295.84 67.95C292.69 69.41 289.11 70.15 285.11 70.15H262.39V35.26H262.4ZM305.11 118.72C301.42 121.93 295.41 123.53 287.07 123.53H262.4V86.45H287.83C292.5 86.45 296.54 87.32 299.95 89.07C303.36 90.82 305.99 93.2 307.85 96.21C309.71 99.22 310.64 102.62 310.64 106.39C310.64 111.4 308.8 115.51 305.11 118.72Z" fill="#ABA9D5"/>
<path d="M364.57 139.41C369.44 142.17 375.11 143.55 381.59 143.55C389.14 143.55 395.5 141.52 400.68 137.47C404.89 134.18 408.24 129.49 410.78 123.45L410.99 142.37H431.86V47.93H409.81V103.26C409.81 107.77 408.95 111.65 407.23 114.92C405.51 118.19 403.13 120.66 400.09 122.35C397.05 124.04 393.59 124.88 389.7 124.88C383.96 124.88 379.44 123.08 376.14 119.47C372.85 115.87 371.2 110.91 371.2 104.6V47.92H349.24V107.98C349.24 115.53 350.58 121.96 353.25 127.28C355.92 132.6 359.7 136.64 364.57 139.4V139.41Z" fill="#ABA9D5"/>
<path d="M415.22 10H393.93L382.19 35.85H398.15L415.22 10Z" fill="#ABA9D5"/>
<path d="M508.35 140.47C514.46 137.91 519.23 134.36 522.67 129.83C526.1 125.3 527.82 120.05 527.82 114.08C527.82 107.44 525.65 102 521.32 97.78C516.98 93.56 510.34 90.49 501.38 88.57L485.33 85.19C480.54 84.18 477.11 82.77 475.02 80.97C472.94 79.17 471.9 76.89 471.9 74.13C471.9 70.92 473.46 68.29 476.59 66.23C479.72 64.18 483.61 63.15 488.29 63.15C493.41 63.15 497.38 64.29 500.2 66.57C503.02 68.85 504.96 71.65 506.03 74.98L525.63 71.09C524.39 66.19 522.18 61.92 519 58.29C515.82 54.66 511.65 51.83 506.5 49.8C501.35 47.77 495.19 46.76 488.04 46.76C480.49 46.76 473.86 47.94 468.15 50.31C462.44 52.68 457.97 56 454.76 60.28C451.55 64.56 449.95 69.63 449.95 75.49C449.95 82.42 452.15 88.08 456.54 92.47C460.93 96.86 467.58 100.02 476.48 101.93L492.61 105.39C496.95 106.35 500.16 107.71 502.24 109.49C504.32 111.26 505.37 113.5 505.37 116.21C505.37 119.42 503.78 122.11 500.6 124.28C497.42 126.45 493.12 127.53 487.72 127.53C482.32 127.53 478.05 126.39 474.75 124.11C471.46 121.83 469.16 118.35 467.87 113.68L447.34 117.57C448.41 123.26 450.73 128.1 454.31 132.1C457.89 136.1 462.46 139.14 468.04 141.22C473.62 143.3 480.04 144.35 487.3 144.35C495.24 144.35 502.27 143.07 508.38 140.51L508.35 140.47Z" fill="#ABA9D5"/>
<path d="M606.12 63.56H604.77C603.7 61.31 602.11 58.89 600 56.3C597.89 53.71 595.04 51.47 591.47 49.58C587.89 47.69 583.29 46.75 577.66 46.75C570.45 46.75 563.91 48.61 558.02 52.33C552.13 56.05 547.46 61.52 544 68.76C540.54 76 538.8 84.85 538.8 95.33C538.8 105.81 540.49 114.51 543.87 121.77C547.25 129.03 551.88 134.57 557.77 138.37C563.65 142.17 570.31 144.07 577.75 144.07C583.21 144.07 587.72 143.15 591.27 141.32C594.82 139.49 597.68 137.28 599.84 134.69C602.01 132.1 603.65 129.68 604.78 127.43H605.71V177.69H627.67V47.94H606.13V63.57L606.12 63.56ZM603.5 111.37C601.75 115.99 599.22 119.58 595.9 122.14C592.58 124.7 588.52 125.98 583.74 125.98C578.96 125.98 574.72 124.64 571.36 121.97C568.01 119.3 565.49 115.64 563.8 110.99C562.11 106.34 561.27 101.09 561.27 95.24C561.27 89.39 562.11 84.16 563.8 79.57C565.49 74.98 568 71.38 571.32 68.76C574.64 66.14 578.78 64.83 583.74 64.83C588.7 64.83 592.6 66.1 595.95 68.63C599.3 71.16 601.83 74.7 603.55 79.23C605.27 83.76 606.13 89.1 606.13 95.24C606.13 101.38 605.26 106.76 603.51 111.37H603.5Z" fill="#ABA9D5"/>
<path d="M698.7 137.47C702.91 134.18 706.26 129.49 708.8 123.45L709.01 142.37H729.88V47.93H707.83V103.26C707.83 107.77 706.97 111.65 705.25 114.92C703.53 118.19 701.15 120.66 698.11 122.35C695.07 124.04 691.61 124.88 687.72 124.88C681.98 124.88 677.46 123.08 674.16 119.47C670.87 115.87 669.22 110.91 669.22 104.6V47.92H647.26V107.98C647.26 115.53 648.6 121.96 651.27 127.28C653.94 132.6 657.72 136.64 662.59 139.4C667.46 142.16 673.13 143.54 679.61 143.54C687.16 143.54 693.52 141.51 698.7 137.46V137.47Z" fill="#ABA9D5"/>
<path d="M766.75 138.32C773.59 142.32 781.77 144.32 791.29 144.32C798.33 144.32 804.59 143.26 810.08 141.15C815.57 139.04 820.15 136.08 823.81 132.28C827.47 128.48 830.06 124.04 831.58 118.98L811.39 114.84C810.43 117.49 809 119.73 807.08 121.56C805.16 123.39 802.9 124.77 800.28 125.7C797.66 126.63 794.75 127.09 791.54 127.09C786.7 127.09 782.44 126.05 778.78 123.96C775.12 121.88 772.28 118.78 770.25 114.67C768.43 110.97 767.43 106.52 767.25 101.32H833.02V94.39C833.02 86.11 831.88 78.97 829.6 72.98C827.32 66.98 824.16 62.04 820.14 58.16C816.11 54.27 811.49 51.4 806.29 49.54C801.08 47.68 795.6 46.75 789.86 46.75C780.85 46.75 773.01 48.82 766.33 52.96C759.66 57.1 754.5 62.83 750.87 70.15C747.24 77.47 745.42 86 745.42 95.75C745.42 105.5 747.26 114.17 750.95 121.43C754.64 128.69 759.9 134.33 766.75 138.32ZM777.6 67.4C780.98 65.12 785.09 63.98 789.93 63.98C794.77 63.98 798.81 65.11 802.05 67.36C805.29 69.61 807.72 72.75 809.36 76.78C810.52 79.65 811.27 82.85 811.6 86.37H767.33C767.62 82.82 768.46 79.53 769.86 76.53C771.63 72.73 774.21 69.69 777.59 67.41L777.6 67.4Z" fill="#ABA9D5"/>
<path d="M910.98 63.56H910.05C908.98 61.31 907.39 58.89 905.28 56.3C903.17 53.71 900.32 51.47 896.75 49.58C893.17 47.69 888.57 46.75 882.94 46.75C875.73 46.75 869.19 48.61 863.3 52.33C857.41 56.05 852.74 61.52 849.28 68.76C845.82 76 844.08 84.85 844.08 95.33C844.08 105.81 845.77 114.51 849.15 121.77C852.53 129.03 857.16 134.57 863.05 138.37C868.93 142.17 875.59 144.07 883.03 144.07C888.49 144.07 893 143.15 896.55 141.32C900.1 139.49 902.96 137.28 905.12 134.69C907.29 132.1 908.93 129.68 910.06 127.43H911.41V142.38H932.95V16.52H910.99V63.57L910.98 63.56ZM908.79 111.37C907.04 115.99 904.51 119.58 901.19 122.14C897.87 124.7 893.81 125.98 889.03 125.98C884.25 125.98 880.01 124.64 876.65 121.97C873.3 119.3 870.78 115.64 869.09 110.99C867.4 106.34 866.56 101.09 866.56 95.24C866.56 89.39 867.4 84.16 869.09 79.57C870.78 74.98 873.29 71.38 876.61 68.76C879.93 66.14 884.07 64.83 889.03 64.83C893.99 64.83 897.89 66.1 901.24 68.63C904.59 71.16 907.12 74.7 908.84 79.23C910.56 83.76 911.42 89.1 911.42 95.24C911.42 101.38 910.55 106.76 908.8 111.37H908.79Z" fill="#ABA9D5"/>
<path d="M1025.1 63.56C1022.79 59.39 1019.75 56.07 1015.98 53.59C1012.21 51.11 1008.05 49.35 1003.52 48.31C998.99 47.27 994.49 46.75 990.05 46.75C983.74 46.75 977.9 47.65 972.52 49.45C967.14 51.25 962.51 53.97 958.62 57.6C954.73 61.23 951.86 65.84 950 71.41L970.36 75.55C971.15 73.47 972.39 71.52 974.08 69.72C975.77 67.92 977.95 66.45 980.63 65.33C983.3 64.2 986.47 63.64 990.13 63.64C993.79 63.64 996.76 64.22 999.21 65.37C1001.66 66.53 1003.5 68.19 1004.74 70.35C1005.98 72.52 1006.6 75.15 1006.6 78.25V78.67C1006.6 80.81 1005.8 82.39 1004.19 83.4C1002.58 84.41 1000.06 85.15 996.63 85.6C993.19 86.05 988.75 86.59 983.28 87.2C978.66 87.65 974.21 88.41 969.93 89.48C965.65 90.55 961.81 92.13 958.4 94.21C954.99 96.29 952.29 99.08 950.29 102.57C948.29 106.06 947.29 110.48 947.29 115.83C947.29 122.03 948.67 127.23 951.43 131.46C954.19 135.68 957.96 138.88 962.75 141.05C967.54 143.22 972.91 144.3 978.88 144.3C983.84 144.3 988.13 143.61 991.76 142.23C995.39 140.85 998.43 139.02 1000.88 136.74C1003.33 134.46 1005.26 132 1006.67 129.35H1007.51V142.36H1028.54V79.26C1028.54 72.95 1027.38 67.72 1025.08 63.55L1025.1 63.56ZM1006.77 108.5C1006.77 111.99 1005.85 115.22 1004.02 118.17C1002.19 121.13 999.63 123.51 996.33 125.31C993.04 127.11 989.11 128.01 984.55 128.01C981.45 128.01 978.71 127.53 976.31 126.57C973.92 125.61 972.03 124.22 970.65 122.39C969.27 120.56 968.58 118.29 968.58 115.59C968.58 112.66 969.33 110.28 970.82 108.45C972.31 106.62 974.38 105.2 977.03 104.18C979.68 103.17 982.63 102.43 985.9 101.98C987.31 101.81 989.04 101.59 991.1 101.3C993.16 101.02 995.24 100.68 997.35 100.29C999.46 99.9 1001.38 99.45 1003.09 98.94C1004.8 98.43 1006.03 97.9 1006.76 97.34V108.49L1006.77 108.5Z" fill="#ABA9D5"/>
<path d="M273.68 266.4C271.88 269.3 269.64 271.75 266.96 273.75C264.29 275.75 261.29 277.27 257.96 278.31C254.64 279.35 251.09 279.87 247.32 279.87C240.56 279.87 234.52 278.18 229.2 274.8C223.88 271.42 219.7 266.44 216.66 259.85C213.62 253.26 212.1 245.15 212.1 235.52C212.1 225.89 213.61 217.94 216.62 211.32C219.63 204.7 223.8 199.66 229.12 196.2C234.44 192.74 240.54 191.01 247.41 191.01C251.18 191.01 254.73 191.53 258.05 192.57C261.37 193.61 264.36 195.13 267 197.13C269.65 199.13 271.86 201.56 273.63 204.44C275.4 207.31 276.66 210.64 277.39 214.41H300.11C299.1 207.54 297.07 201.4 294.03 195.99C290.99 190.58 287.12 186.01 282.42 182.26C277.72 178.52 272.37 175.67 266.37 173.73C260.37 171.79 253.94 170.82 247.07 170.82C236.14 170.82 226.33 173.38 217.63 178.51C208.93 183.63 202.06 191.03 197.02 200.68C191.98 210.34 189.46 221.95 189.46 235.52C189.46 249.09 191.96 260.61 196.98 270.24C201.99 279.87 208.83 287.25 217.51 292.37C226.18 297.49 236.04 300.06 247.07 300.06C254.5 300.06 261.28 298.93 267.39 296.68C273.5 294.43 278.86 291.3 283.48 287.3C288.1 283.3 291.83 278.67 294.67 273.4C297.51 268.14 299.36 262.49 300.2 256.46H277.39C276.71 260.18 275.47 263.49 273.67 266.39L273.68 266.4Z" fill="#ABA9D5"/>
<path d="M361.87 202.66C356.46 202.66 351.65 204.14 347.43 207.1C343.21 210.06 340.25 214.27 338.56 219.73H337.55V203.93H316.26V298.37H338.22V242.79C338.22 238.79 339.14 235.26 340.97 232.19C342.8 229.12 345.33 226.71 348.57 224.97C351.81 223.22 355.45 222.35 359.51 222.35C361.48 222.35 363.48 222.46 365.51 222.69C367.54 222.92 369 223.17 369.9 223.45V203.26C368.83 203.09 367.53 202.95 366.02 202.84C364.5 202.73 363.12 202.67 361.88 202.67L361.87 202.66Z" fill="#ABA9D5"/>
<path d="M448.08 214.15C444.05 210.26 439.43 207.39 434.23 205.53C429.02 203.67 423.54 202.74 417.8 202.74C408.79 202.74 400.95 204.81 394.27 208.95C387.6 213.09 382.44 218.82 378.81 226.14C375.18 233.46 373.36 241.99 373.36 251.74C373.36 261.49 375.2 270.16 378.89 277.42C382.58 284.68 387.84 290.32 394.69 294.31C401.53 298.31 409.71 300.31 419.23 300.31C426.27 300.31 432.53 299.25 438.02 297.14C443.51 295.03 448.09 292.07 451.75 288.27C455.41 284.47 458 280.03 459.52 274.97L439.33 270.83C438.37 273.48 436.94 275.72 435.02 277.55C433.1 279.38 430.84 280.76 428.22 281.69C425.6 282.62 422.69 283.08 419.48 283.08C414.64 283.08 410.38 282.04 406.72 279.95C403.06 277.87 400.22 274.77 398.19 270.66C396.37 266.96 395.37 262.51 395.19 257.31H460.96V250.38C460.96 242.1 459.82 234.96 457.54 228.97C455.26 222.97 452.1 218.03 448.08 214.15ZM405.54 223.4C408.92 221.12 413.03 219.98 417.87 219.98C422.71 219.98 426.75 221.11 429.99 223.36C433.23 225.61 435.66 228.75 437.3 232.78C438.46 235.65 439.21 238.85 439.54 242.37H395.27C395.56 238.82 396.4 235.53 397.8 232.53C399.57 228.73 402.15 225.69 405.53 223.41L405.54 223.4Z" fill="#ABA9D5"/>
<path d="M541.29 209.59C537.52 207.11 533.36 205.35 528.83 204.31C524.3 203.27 519.8 202.75 515.36 202.75C509.05 202.75 503.21 203.65 497.83 205.45C492.45 207.25 487.82 209.97 483.93 213.6C480.04 217.23 477.17 221.84 475.31 227.41L495.67 231.55C496.46 229.47 497.7 227.52 499.39 225.72C501.08 223.92 503.26 222.45 505.94 221.33C508.61 220.2 511.78 219.64 515.44 219.64C519.1 219.64 522.07 220.22 524.52 221.37C526.97 222.53 528.81 224.19 530.05 226.35C531.29 228.52 531.91 231.15 531.91 234.25V234.67C531.91 236.81 531.11 238.39 529.5 239.4C527.89 240.41 525.37 241.15 521.94 241.6C518.5 242.05 514.06 242.59 508.59 243.2C503.97 243.65 499.52 244.41 495.24 245.48C490.96 246.55 487.12 248.13 483.71 250.21C480.3 252.29 477.6 255.08 475.6 258.57C473.6 262.06 472.6 266.48 472.6 271.83C472.6 278.03 473.98 283.23 476.74 287.46C479.5 291.68 483.27 294.88 488.06 297.05C492.85 299.22 498.22 300.3 504.19 300.3C509.15 300.3 513.44 299.61 517.07 298.23C520.7 296.85 523.74 295.02 526.19 292.74C528.64 290.46 530.57 288 531.98 285.35H532.82V298.36H553.85V235.26C553.85 228.95 552.69 223.72 550.39 219.55C548.08 215.38 545.04 212.06 541.27 209.58L541.29 209.59ZM532.08 264.5C532.08 267.99 531.16 271.22 529.33 274.17C527.5 277.13 524.94 279.51 521.64 281.31C518.35 283.11 514.42 284.01 509.86 284.01C506.76 284.01 504.02 283.53 501.62 282.57C499.23 281.61 497.34 280.22 495.96 278.39C494.58 276.56 493.89 274.29 493.89 271.59C493.89 268.66 494.64 266.28 496.13 264.45C497.62 262.62 499.69 261.2 502.34 260.18C504.99 259.17 507.94 258.43 511.21 257.98C512.62 257.81 514.35 257.59 516.41 257.3C518.47 257.02 520.55 256.68 522.66 256.29C524.77 255.9 526.69 255.45 528.4 254.94C530.11 254.43 531.34 253.9 532.07 253.34V264.49L532.08 264.5Z" fill="#ABA9D5"/>
<path d="M612.37 281.35C610.71 281.6 609.37 281.73 608.36 281.73C605.04 281.73 602.64 280.93 601.18 279.32C599.72 277.72 598.98 275.2 598.98 271.76V221.16H617.23V203.93H598.98V181.46H577.02V203.93H563.59V221.16H577.02V273.62C577.02 281.95 579.44 288.37 584.28 292.88C589.12 297.39 596.08 299.64 605.15 299.64C607.46 299.64 609.88 299.48 612.41 299.18C614.94 298.87 617.42 298.35 619.84 297.62L616.38 280.64C615.37 280.87 614.03 281.1 612.37 281.36V281.35Z" fill="#ABA9D5"/>
<path d="M652.96 203.93H631V298.37H652.96V203.93Z" fill="#ABA9D5"/>
<path d="M641.98 166.51C638.49 166.51 635.49 167.68 632.98 170.02C630.47 172.36 629.22 175.22 629.22 178.59C629.22 181.96 630.47 184.67 632.98 187.04C635.48 189.41 638.48 190.59 641.98 190.59C645.48 190.59 648.55 189.41 651.06 187.04C653.56 184.67 654.82 181.83 654.82 178.51C654.82 175.19 653.57 172.36 651.06 170.02C648.55 167.68 645.53 166.51 641.98 166.51Z" fill="#ABA9D5"/>
<path d="M718.85 255.29C716.88 261.32 715.18 267.37 713.74 273.45C713.17 275.86 712.58 278.29 711.99 280.73C711.4 278.29 710.81 275.86 710.23 273.45C708.76 267.37 707.02 261.31 704.99 255.29L687.76 203.93H664.28L699.42 298.37H724L759.31 203.93H736L718.85 255.29Z" fill="#ABA9D5"/>
<path d="M832.55 209.59C828.78 207.11 824.62 205.35 820.09 204.31C815.56 203.27 811.06 202.75 806.62 202.75C800.31 202.75 794.47 203.65 789.09 205.45C783.71 207.25 779.08 209.97 775.19 213.6C771.3 217.23 768.43 221.84 766.57 227.41L786.93 231.55C787.72 229.47 788.96 227.52 790.65 225.72C792.34 223.92 794.52 222.45 797.2 221.33C799.87 220.2 803.04 219.64 806.7 219.64C810.36 219.64 813.33 220.22 815.78 221.37C818.23 222.53 820.07 224.19 821.31 226.35C822.55 228.52 823.17 231.15 823.17 234.25V234.67C823.17 236.81 822.37 238.39 820.76 239.4C819.15 240.41 816.63 241.15 813.2 241.6C809.76 242.05 805.32 242.59 799.85 243.2C795.23 243.65 790.78 244.41 786.5 245.48C782.22 246.55 778.38 248.13 774.97 250.21C771.56 252.29 768.86 255.08 766.86 258.57C764.86 262.06 763.86 266.48 763.86 271.83C763.86 278.03 765.24 283.23 768 287.46C770.76 291.68 774.53 294.88 779.32 297.05C784.11 299.22 789.48 300.3 795.45 300.3C800.41 300.3 804.7 299.61 808.33 298.23C811.96 296.85 815 295.02 817.45 292.74C819.9 290.46 821.83 288 823.24 285.35H824.08V298.36H845.11V235.26C845.11 228.95 843.95 223.72 841.65 219.55C839.34 215.38 836.3 212.06 832.53 209.58L832.55 209.59ZM823.34 264.5C823.34 267.99 822.42 271.22 820.59 274.17C818.76 277.13 816.2 279.51 812.9 281.31C809.61 283.11 805.68 284.01 801.12 284.01C798.02 284.01 795.28 283.53 792.88 282.57C790.49 281.61 788.6 280.22 787.22 278.39C785.84 276.56 785.15 274.29 785.15 271.59C785.15 268.66 785.9 266.28 787.39 264.45C788.88 262.62 790.95 261.2 793.6 260.18C796.25 259.17 799.2 258.43 802.47 257.98C803.88 257.81 805.61 257.59 807.67 257.3C809.73 257.02 811.81 256.68 813.92 256.29C816.03 255.9 817.95 255.45 819.66 254.94C821.37 254.43 822.6 253.9 823.33 253.34V264.49L823.34 264.5Z" fill="#ABA9D5"/>
</g>
<defs>
<clipPath id="clip0_74_352">
<rect width="1038.56" height="310.34" fill="white"/>
</clipPath>
</defs>
</svg>
