<?xml version="1.0" encoding="UTF-8"?>
<svg id="Capa_2" data-name="Capa 2" xmlns="http://www.w3.org/2000/svg" viewBox="0 0 86.23 30.18">
  <defs>
    <style>
      .cls-1 {
        fill-rule: evenodd;
      }

      .cls-1, .cls-2 {
        fill: #1e1d3c;
      }
    </style>
  </defs>
  <g id="Capa_1-2" data-name="Capa 1">
    <g id="layer1">
      <g id="g2679">
        <g id="g5908">
          <g id="g5706">
            <path id="path5708" class="cls-2" d="M22.97,6.06c2.17,2.17,3.26,4.83,3.26,7.98s-1.07,5.78-3.2,7.9c-2.27,2.23-4.94,3.34-8.04,3.34s-5.69-1.1-7.9-3.32c-2.21-2.21-3.32-4.85-3.32-7.92s1.11-5.73,3.32-7.98c2.15-2.17,4.79-3.26,7.9-3.26,3.15,0,5.81,1.09,7.98,3.26ZM8.56,7.52c-1.84,1.86-2.76,4.03-2.76,6.52s.91,4.65,2.73,6.46c1.82,1.82,3.98,2.73,6.49,2.73s4.69-.92,6.55-2.75c1.76-1.71,2.64-3.85,2.64-6.44s-.9-4.75-2.69-6.54c-1.79-1.79-3.96-2.68-6.51-2.68s-4.7.9-6.47,2.7ZM13.4,12.95c-.28-.61-.7-.92-1.26-.92-.99,0-1.49.67-1.49,2s.5,2,1.49,2c.65,0,1.12-.32,1.4-.98l1.37.73c-.65,1.16-1.64,1.74-2.95,1.74-1.01,0-1.82-.31-2.43-.93-.61-.62-.91-1.47-.91-2.56s.31-1.92.94-2.55c.63-.63,1.41-.94,2.34-.94,1.38,0,2.37.54,2.97,1.63l-1.49.76ZM19.86,12.95c-.28-.61-.69-.92-1.24-.92-1.01,0-1.52.67-1.52,2s.51,2,1.52,2c.66,0,1.11-.32,1.38-.98l1.4.73c-.65,1.16-1.63,1.74-2.94,1.74-1.01,0-1.82-.31-2.42-.93-.61-.62-.91-1.47-.91-2.56s.31-1.92.92-2.55c.62-.63,1.4-.94,2.35-.94,1.38,0,2.37.54,2.97,1.63l-1.52.76Z"/>
          </g>
        </g>
        <g>
          <path class="cls-2" d="M43.06,26.17h-1.14v1.31h1.12c.1,0,.2,0,.29-.03.09-.02.18-.05.25-.1.07-.05.13-.11.17-.19.04-.08.06-.18.06-.31,0-.24-.07-.42-.21-.52-.14-.1-.32-.16-.55-.16Z"/>
          <path class="cls-2" d="M43.44,25.32c.12-.09.18-.23.18-.43,0-.11-.02-.2-.06-.27-.04-.07-.09-.13-.16-.17-.07-.04-.14-.07-.23-.08-.09-.02-.18-.02-.27-.02h-.98v1.11h1.06c.19,0,.34-.04.46-.13Z"/>
        </g>
        <path class="cls-2" d="M84.62,0H1.61C.72,0,0,.72,0,1.61v28.2c0,.2.16.36.36.36h85.5c.2,0,.36-.16.36-.36V1.61c0-.89-.72-1.61-1.61-1.61ZM44.72,27.53c-.09.18-.22.32-.38.43-.16.11-.34.19-.54.25-.2.05-.41.08-.62.08h-2.31v-4.76h2.24c.23,0,.43.02.62.06.19.04.35.11.48.2.13.09.24.21.31.36.07.15.11.34.11.56,0,.24-.05.44-.16.6-.11.16-.27.29-.48.39.29.08.51.23.66.44.15.21.22.47.22.76,0,.24-.05.45-.14.62ZM47.85,26.46v1.83h-1.05v-1.85l-1.75-2.91h1.17l1.11,1.88,1.11-1.88h1.17l-1.77,2.93ZM65.09,28.29h-1.05l-1.98-3.19h-.01v3.19h-.98v-4.76h1.04l1.99,3.19h.01v-3.19h.98v4.76ZM70.03,27.26c-.11.24-.26.44-.44.61s-.4.3-.64.39c-.24.09-.51.13-.81.13-.36,0-.69-.06-.98-.19-.29-.13-.54-.3-.74-.52-.2-.22-.35-.48-.46-.78-.11-.3-.16-.62-.16-.97s.05-.69.16-.99c.11-.3.26-.57.46-.8.2-.23.45-.4.74-.53.29-.13.62-.19.98-.19.26,0,.51.04.74.11.23.08.44.19.63.33.18.14.34.32.46.54s.2.46.23.73h-1.01c-.02-.12-.06-.23-.12-.33-.06-.1-.14-.19-.23-.26s-.2-.13-.32-.18c-.12-.04-.24-.06-.37-.06-.24,0-.44.05-.6.14-.16.09-.3.21-.4.37-.1.15-.18.33-.22.52-.05.2-.07.4-.07.61s.02.39.07.58c.05.19.12.36.22.51.1.15.24.27.4.36.16.09.36.14.6.14.32,0,.57-.1.75-.29.18-.2.29-.45.33-.77h1.01c-.03.3-.1.57-.21.81ZM85.5,21.17H26.18c-2.17,3.93-6.36,6.6-11.17,6.6s-9-2.67-11.17-6.6H.73V1.61c0-.49.4-.89.89-.89h83c.49,0,.89.4.89.89v19.55Z"/>
        <g id="g349">
          <g id="g353">
            <path id="path355" class="cls-2" d="M47.76,8.7c0-.3-.24-.54-.54-.54h-3.41c-.3,0-.54.24-.54.54v3.41h.95v4.04h2.58v-4.04h.95v-3.41h0Z"/>
            <circle id="circle357" class="cls-2" cx="45.52" cy="6.55" r="1.17"/>
          </g>
          <path id="path359" class="cls-1" d="M45.51,2.43c-2.31,0-4.26.81-5.86,2.42-1.64,1.67-2.46,3.64-2.46,5.92s.82,4.24,2.46,5.87c1.64,1.64,3.6,2.46,5.86,2.46s4.28-.83,5.97-2.48c1.59-1.57,2.38-3.52,2.38-5.85s-.81-4.3-2.42-5.92c-1.61-1.61-3.59-2.42-5.92-2.42ZM45.53,3.93c1.89,0,3.5.67,4.82,2,1.34,1.32,2,2.93,2,4.83s-.65,3.51-1.96,4.77c-1.38,1.36-3,2.04-4.86,2.04s-3.47-.67-4.82-2.02c-1.35-1.35-2.02-2.94-2.02-4.79s.68-3.46,2.04-4.83c1.31-1.33,2.91-2,4.8-2Z"/>
        </g>
        <g id="g2366">
          <path id="path45" class="cls-2" d="M71.85,4.85c-1.61-1.61-3.59-2.42-5.92-2.42s-4.26.81-5.86,2.42c-1.64,1.67-2.46,3.64-2.46,5.92s.82,4.24,2.46,5.87c1.64,1.64,3.59,2.46,5.86,2.46s4.28-.83,5.97-2.48c1.59-1.57,2.38-3.52,2.38-5.85s-.81-4.31-2.42-5.92ZM70.81,15.53c-1.38,1.36-3,2.04-4.86,2.04s-3.47-.67-4.82-2.02c-1.35-1.35-2.02-2.94-2.02-4.79,0-.78.12-1.52.37-2.22l2.21.98h-.16v.99h.78c0,.14-.01.28-.01.42v.24h-.77v.99h.91c.13.74.4,1.34.78,1.81.78,1.03,2.04,1.59,3.4,1.59.89,0,1.7-.26,2.18-.53l-.34-1.55c-.29.15-.95.36-1.59.36-.7,0-1.35-.21-1.8-.71-.21-.24-.36-.56-.46-.98h3.03l4.31,1.91c-.3.53-.68,1.02-1.14,1.47ZM65.39,11.17h-.02s.03,0,.03,0h-.01ZM67.98,10.52h.12v-.99h-2.36l-.96-.42c.08-.19.18-.35.29-.48.43-.53,1.05-.75,1.72-.75.61,0,1.19.18,1.55.33l.39-1.59c-.5-.22-1.24-.42-2.09-.42-1.31,0-2.43.53-3.22,1.42-.18.2-.33.43-.47.67l-2.74-1.21c.27-.4.58-.78.94-1.15,1.31-1.33,2.91-2,4.8-2s3.5.67,4.82,2c1.33,1.32,2,2.93,2,4.83,0,.63-.07,1.22-.21,1.78l-4.57-2.02Z"/>
        </g>
      </g>
    </g>
  </g>
</svg>