<svg width="1920" height="969" viewBox="0 0 1920 969" fill="none" xmlns="http://www.w3.org/2000/svg">
<g clip-path="url(#clip0_139_578)">
<path d="M359.45 368.74L370.24 362.5L359.43 356.27L359.45 368.74Z" fill="white"/>
<path d="M399.14 509.72L372.77 524.95L409.82 546.48L421.37 539.83L396.4 525.37L399.14 509.72Z" fill="white"/>
<path d="M513.39 414.74L524.96 408.08L576.01 437.31L590.07 429.2L539.01 400.01L576.18 378.57L638.82 414.43L627.26 421.11L576.06 391.88L562.01 399.99L613.2 429.2L576.01 450.66L513.39 414.74Z" fill="white"/>
<path d="M576.67 406.93L615.06 428.84L615.17 546.87L626.64 553.49V422.17L576.67 393.67V406.93Z" fill="white"/>
<path d="M51.6899 303.29L88.6801 281.63L51.66 260.26L14.46 281.7L51.6899 303.29Z" fill="white"/>
<path d="M51.0698 304.37L13.8499 282.79V488L51.0299 509.46L51.0698 304.37Z" fill="white"/>
<path d="M167.64 246.48V273.75L191.36 260.17L167.64 246.48Z" fill="white"/>
<path d="M230.32 282.69L206.05 268.66L206.07 487.72L230.21 473.84L230.32 282.69Z" fill="white"/>
<path d="M179.07 312.18L116.61 275.81L116.34 400.38L154.41 413.66C154.65 413.74 154.81 413.97 154.81 414.23V488.65L179.1 502.7L179.07 312.18Z" fill="white"/>
<path d="M103.08 531.57L127.3 517.62L90.2599 496.16L65.8799 510.18L103.08 531.57Z" fill="white"/>
<path d="M102.31 575.53L65.27 554.16V511.24L102.39 532.69L102.31 575.53Z" fill="white"/>
<path d="M102.84 590.81L152.92 561.86L129.13 548.13L129.11 562.32L103.03 577.39L64.03 554.89V526.03L27.54 547.12L102.84 590.81Z" fill="white"/>
<path d="M102.23 591.89L26.9299 548.19V634.67L64.6599 612.93L77.7499 620.51C77.9299 620.62 78.0399 620.81 78.0399 621.02V650.13L90.0798 657.04L102.23 650.02V591.89Z" fill="white"/>
<path d="M76.1998 621.04L64.6399 614.37L1.85986 650.54L13.5199 657.24L39.0299 642.5L78.5399 665.12L52.9299 679.9L64.7599 686.74L127.23 650.38L115.65 643.7L90.0798 658.48L50.6199 635.8L76.1998 621.04Z" fill="white"/>
<path d="M76.0499 665.13L39.6499 644.29L39.8098 864.17L51.4398 870.85L51.0698 679.54L76.0499 665.13Z" fill="white"/>
<path d="M64.1399 687.81L52.3098 680.98L52.7599 871.61L64.0898 878.09L64.1399 687.81Z" fill="white"/>
<path d="M65.9399 746.45L115.87 717.52L152.9 739.09L103 767.86L65.9399 746.45Z" fill="white"/>
<path d="M65.37 747.62L102.37 768.94V900.37L65.25 878.75L65.37 747.62Z" fill="white"/>
<path d="M155.41 739.07L179.24 725.42L179.28 752.83L155.41 739.07Z" fill="white"/>
<path d="M154.84 740.21L179.28 754.16L179.29 856.22L154.83 842.09L154.84 740.21Z" fill="white"/>
<path d="M154.77 636.79L166.33 643.39V731.31L154.77 738.01V636.79Z" fill="white"/>
<path d="M229.55 606.22L166.95 642.31L154.77 635.36L154.74 576.93L166.71 569.91L229.55 606.22Z" fill="white"/>
<path d="M268.48 510.82L218.73 481.75V598.54L231.41 605.85L231.44 664.36L268.48 642.96V510.82Z" fill="white"/>
<path d="M180.48 708.51L228.87 680.73L180.56 680.62L180.48 708.51Z" fill="white"/>
<path d="M294.95 629.1L232.14 665.36L294.97 701.51L357.63 665.3L346.09 658.64L294.89 688.24L255.3 665.36L306.66 635.73L294.95 629.1Z" fill="white"/>
<path d="M231.5 666.36L294.3 702.63V834.39L282.64 827.7V753.58L243.64 730.92L231.49 737.96L231.5 666.36Z" fill="white"/>
<path d="M255.9 768.96L218.73 747.47V849.49L255.88 870.88L255.9 768.96Z" fill="white"/>
<path d="M243.62 732.36L219.34 746.4L256.5 767.89L280.79 753.92L243.62 732.36Z" fill="white"/>
<path d="M269.1 509.75L293.52 495.59L244.32 467.11L220.06 481.1L269.1 509.75Z" fill="white"/>
<path d="M294.07 494.48V436.98L244.38 408.14L244.37 465.71L294.07 494.48Z" fill="white"/>
<path d="M319.19 421.7L294.96 435.76L244.66 406.87L269.01 392.72L319.19 421.7Z" fill="white"/>
<path d="M244.49 349.05L319.8 392.39V420.62L269.01 391.29L244.38 405.59L244.49 349.05Z" fill="white"/>
<path d="M332.05 384.59L320.43 391.32L244.87 347.84L256.44 341.13L332.05 384.59Z" fill="white"/>
<path d="M332.59 340.81L332.58 383.48L257.07 340.03V297.19L332.59 340.81Z" fill="white"/>
<path d="M357.42 325.67L333.2 339.51L257.69 296.12L282.03 281.98L357.42 325.67Z" fill="white"/>
<path d="M307.88 208.34L319.7 215.12L319.67 302.36L307.7 295.19L307.88 208.34Z" fill="white"/>
<path d="M320.31 214.04L367.24 187.01L359.27 236.48L371.47 243.57L434.35 207.38L422.48 200.65L376.55 227.3L383.54 178.24L371.2 171.28L308.65 207.36L320.31 214.04Z" fill="white"/>
<path d="M370.84 244.65L359.2 237.89L359.43 354.87L370.84 361.44V244.65Z" fill="white"/>
<path d="M473.3 318.69L384.9 267.52V516.5L399.42 508.12L422.1 377.03L461.03 354.61L473.3 361.75V318.69Z" fill="white"/>
<path d="M473.89 317.6L385.51 266.45L435.19 237.86L435.51 288.19L474.29 310.66L526.78 280.45L444.16 232.7L448.21 230.37L536.44 281.25L473.89 317.6Z" fill="white"/>
<path d="M436.44 229.68L473.23 250.9V308.59L436.76 287.46L436.44 229.68Z" fill="white"/>
<path d="M461.01 356.06L423.89 377.44L473.74 406.25L510.88 384.96L461.01 356.06Z" fill="white"/>
<path d="M423.12 378.41L473.05 407.29L449.13 545.55L435.69 531.59L422.65 539.09L397.79 524.74L423.12 378.41Z" fill="white"/>
<path d="M454.87 551.51L512.69 518.03V503.83L536.5 517.56L463.13 560.09L454.87 551.51Z" fill="white"/>
<path d="M408.61 547.17L372.14 526.02L372.08 568.19L408.61 547.17Z" fill="white"/>
<path d="M372.05 570.81L434.77 635.79L434.74 752.72L372.05 716.39V570.81Z" fill="white"/>
<path d="M372.43 569.42L435.46 533.15L498.45 598.55L435.5 634.76L372.43 569.42Z" fill="white"/>
<path d="M384.25 797.5L434.17 768.68L409.87 754.61L359.93 783.46L384.25 797.5Z" fill="white"/>
<path d="M383.51 798.49L359.04 784.38L346.73 820.12L371.2 834.24L383.51 798.49Z" fill="white"/>
<path d="M346.6 821.48L370.92 835.51L370.89 922.68L346.6 908.61V821.48Z" fill="white"/>
<path d="M550.53 701.82L587.22 680.47L537.61 651.32L500.6 672.82L550.53 701.82Z" fill="white"/>
<path d="M499.99 673.89L549.91 702.89V819.34L499.95 790.48L499.99 673.89Z" fill="white"/>
<path d="M587.97 679.46V591.89L512.67 548.19V664.37L537.61 649.89L587.97 679.46Z" fill="white"/>
<path d="M638.66 561.86L588.6 590.8L513.35 547.15L563.18 518.29L638.66 561.86Z" fill="white"/>
<path d="M601.66 775.42L651.56 746.65L614.52 725.1L564.79 754.08L601.66 775.42Z" fill="white"/>
<path d="M564.19 755.15L601.03 776.49V907.96L564.17 886.58L564.19 755.15Z" fill="white"/>
<path d="M398.31 66.95L473.83 110.35L536.62 74.2L461.06 30.77L398.31 66.95Z" fill="white"/>
<path d="M397.68 68.02L473.23 111.43V243.36L448.2 228.95L442.92 231.99L436.43 228.24L436.33 207.37L422.45 199.24L397.68 213.61V68.02Z" fill="white"/>
<path d="M538.48 398.97L549.81 392.36L549.82 304.01L538.47 297.43L538.48 398.97Z" fill="white"/>
<path d="M550.45 302.94L587.45 281.26L550.4 259.91L526.15 273.9L538.29 280.9L538.3 295.9L550.45 302.94Z" fill="white"/>
<path d="M588.05 280.18L550.4 258.48L524.91 273.18L512.5 266.02V97.59L588.05 141V280.18Z" fill="white"/>
<path d="M588.65 139.93L651.44 103.77L615.06 82.8599V97.5799L588.77 112.63L549.74 90.1599L549.73 75.4299L513.14 96.5199L588.65 139.93Z" fill="white"/>
<path d="M588.16 97.8L588.14 110.87L550.98 89.45V76.08L588.16 97.8Z" fill="white"/>
<path d="M588.79 96.73L613.8 82.14L575.88 60.35L551.07 74.7L588.79 96.73Z" fill="white"/>
<path d="M664.78 856.28L653.42 849.64V747.64L664.77 754.22L664.78 856.28Z" fill="white"/>
<path d="M664.77 752.78L641.13 739.09L664.78 725.41L664.77 752.78Z" fill="white"/>
<path d="M652.09 731.32L640.52 738.01V636.79L652.09 643.39V731.32Z" fill="white"/>
<path d="M666.17 708.46L714.37 680.57H666.25L666.17 708.46Z" fill="white"/>
<path d="M652.7 642.31L664.92 635.26L664.93 620.7L702.66 598.92L652.46 569.91L640.49 576.93L640.52 635.36L652.7 642.31Z" fill="white"/>
<path d="M666.17 622.11L677.83 628.82L677.8 679.33H666.13L666.17 622.11Z" fill="white"/>
<path d="M666.79 621.04L678.22 627.6L725.35 600.46L717.42 650.27L729.7 657.32L792.3 621.14L781.31 614.93L734.59 641.87L741.65 592.13L729.33 584.95L666.79 621.04Z" fill="white"/>
<path d="M729.01 819.08L717.6 812.34L717.33 651.56L728.98 658.33L729.01 819.08Z" fill="white"/>
<path d="M780.9 673.22L817.74 694.8L818.04 900.46L781.04 878.83L780.9 673.22Z" fill="white"/>
<path d="M781.53 672.15L844.37 636.11L881.61 657.71L818.37 693.73L781.53 672.15Z" fill="white"/>
<path d="M512.77 415.81L575.39 451.73L575.35 523.89L563.19 516.87L538.43 531.16L538.37 517.22L512.69 502.4L512.77 415.81Z" fill="white"/>
<path d="M538.36 414.32L576.01 435.89L587.58 429.2L538.35 401.07L538.36 414.32Z" fill="white"/>
<path d="M716.05 400.41L653.59 364.06L653.17 568.89L703.9 598.2L716.08 591.18L716.05 400.41Z" fill="white"/>
<path d="M716.67 399.33L728.52 392.49L702.9 377.72L742.42 355.1L767.92 369.83L779.58 363.13L716.8 326.95L705.25 333.64L730.81 348.4L691.41 371.03L665.79 356.29L654.21 362.97L716.67 399.33Z" fill="white"/>
<path d="M728.33 348.39L704.62 334.71V361.98L728.33 348.39Z" fill="white"/>
<path d="M743.03 356.86L767.36 370.91L767.2 621.68L742.97 635.6L743.03 356.86Z" fill="white"/>
<path d="M767.36 119.69L755.72 112.91L749.45 131.03L718.24 148.96L717.54 149.99L717.46 325.91L754.75 347.4L754.83 171.52L755.45 170.45L818.14 134.41L780.94 112.95L767.36 119.69Z" fill="white"/>
<path d="M920.66 752.72L883.39 731.19L883.45 657.98L882.97 657.07L844.39 634.67L819.52 648.93L819.56 415.15L820.19 414.08L870.65 384.88V97.25L871.28 96.1801L934.02 60.01L1009.58 103.43L946.79 139.59L946.19 140.66V214.9L947.43 217.05L996.36 245.41L972.1 259.22L971.48 260.28L971.46 303.19L972.1 304.95L998.23 290.02V267.43L1022.18 281.25L959.67 317.61L959.06 479.61L1022.26 517.56L958.37 554.55L984.21 569.42L920.62 635.89L920.66 752.72Z" fill="white"/>
<path d="M933.54 966.59L921.88 959.89V725.04L922.51 723.95L947.47 708.18L947.6 680.83L948.23 679.76L959.66 673.09L985.62 688.09L985.85 673.62L986.28 672.43L1011.45 658.04V570.28L1012.08 569.21L1024.11 562.25V517.2L1011.32 509.81L1011.38 304.5L1012 303.43L1049.18 281.99L1049.79 280.92V31.3799L1050.42 30.3099L1100.33 1.44995L1162.99 37.7L1113.01 66.48L1112.38 67.54V199.6L1114.3 199.86L1164.25 171.14L1175.8 177.82L1150.22 192.58L1189.41 215.09L1189.66 215.26L1215.25 200.47L1226.83 207.15L1164.1 243.33L1163.48 244.42L1163.41 435.09L1163.04 436.3L1139.36 449.97L1139.37 435.87L1137.27 436.46L1074.6 472.36L1073.87 473.38L1074.04 517.23L1111.84 539.69L1087.54 553.7L1086.91 554.77L1086.85 597.59L1087.57 599.37L1113.65 584.4L1113.66 570.21L1137.44 583.94L1087.38 612.89L1086.75 613.96V746.07L1088.88 746.24L1100.39 739.6L1137.43 761.16L1087.52 789.93L1086.9 791.02V922.45L1049.85 900.88V769.6L1035.77 819.06L1024.16 812.36L1024.11 709.33L1022.24 709.27L1010.84 715.9L1010.21 716.98L1010.19 952.39L985.89 937.97L984.64 937.54L934.29 967.74L933.54 966.59Z" fill="white"/>
<path d="M1253.04 874.49L1190.24 838.59L1190.3 651.88L1190.92 650.81L1203.26 643.68V642.26V503.83L1203.9 502.75L1228.16 488.78L1228.59 487.6L1228.65 163.82L1229.26 162.74L1253.34 148.65L1253.96 147.58V90L1254.57 88.9301L1278.93 74.78L1329.12 103.77L1304.61 117.97L1303.99 119.05V176.54L1303.44 177.65L1279.01 191.81L1278.4 192.88V340.06L1279.19 341.03L1318.53 363.7V362.27V275L1319.14 273.93L1330.91 267.14L1356.68 252.27L1356.73 250.82V179.18L1357.35 178.1L1407.27 149.25L1411.93 151.93L1406.86 154.85V156.27V198.43L1407.85 200L1433.59 185.21V164.4L1457.4 178.1L1407.3 206.93L1406.68 208.01V265.47L1407.91 267.6L1418.99 273.95L1368.88 303L1368.26 508.87L1356.65 502.18L1278.11 517.63L1253.62 531.83L1253 532.9V613.52L1253.59 614.61L1316.34 650.87L1305.1 657.48L1304.29 658.7L1304.16 845.02L1292.63 838.18L1278.71 842.03L1278.6 859.66L1267.14 853.43L1253.04 874.49Z" fill="white"/>
<path d="M1432.77 340.96L1421.31 347.62L1420.8 348.76L1420.78 375.94L1395.61 391.84L1394.98 392.91V532.09L1394.43 533.21L1318.74 576.15L1318.11 577.24V693.91L1380.81 730.15L1380.72 613.47L1381.43 612.35L1457.38 569.44L1458.91 569.82L1458.99 612.38L1483.31 626.41V384.85L1483.93 383.78L1495.34 377.16L1432.77 340.96Z" fill="white"/>
<path d="M1585 221.81L1547.96 200.45L1509.9 222.21L1510.15 582.2L1521.72 588.88L1522.93 590.44L1522.96 628.02L1520.69 628.19L1509.37 621.63L1446.38 687.03L1446.01 688.25L1446.18 805L1508.85 841.2L1572.91 804.95L1574.22 805.48L1574.19 867.01L1611.32 888.39L1611.34 786.47L1611.97 785.41L1636.24 771.45L1611.37 757.01V591.44L1611.98 590.37L1648.97 568.94L1586.34 532.78L1559.76 548.09V546.67L1559.55 399.61L1560.16 398.54L1623.4 362.52L1598.56 348.11L1586.16 340.92L1547.36 363.17V361.75V244.54L1548 243.48L1585 221.81Z" fill="white"/>
<path d="M1713.62 222.78L1663.47 193.91L1600.48 259.31L1599.81 260.39L1599.8 347.39L1625.25 362.18L1625.1 553.73L1649.54 567.84L1650.78 569.48L1650.91 848.65L1726.32 893.2L1740.38 885.32V900.76L1802.92 936.56L1841.58 915.21L1842.81 901.36L1854.26 907.91V746.34L1854.87 745.27L1866.43 738.61L1828.64 716.98V715.54V525.04L1829.25 523.97L1892.02 487.83L1867 473.38L1867.16 471.94L1867.13 326.42V296.49L1867.04 252.16L1867.65 251.08L1904.79 229.78L1842.19 193.49L1805.21 215.1L1804.6 216.19V259.35L1791.8 281.67L1791.57 282.96L1791.56 458.69L1764.94 474.09V363.59L1764.31 362.52L1733.3 344.65L1732.07 342.51L1732.09 316.02L1731.48 314.93L1714.31 304.98L1714.39 303.61V223.79L1713.62 222.78Z" fill="white"/>
<path d="M52.48 531.28L64.03 524.6V509.81L89.51 495.16L89.35 451.31L90.0599 450.28L152.73 414.39L90.54 392.7L52.67 414.2L52.27 415.54L52.48 531.28Z" fill="white"/>
<path d="M128.81 268.06L117.23 274.74L179.7 311.1L191.53 304.26L165.92 289.48L205.37 266.89L230.94 281.61L242.6 274.9L179.82 238.73L168.26 245.41L193.84 260.17L154.36 282.82L128.81 268.06Z" fill="white"/>
<path d="M280.88 105.12L243.85 83.77L206.67 105.21L206.04 106.28V252.41L243.25 273.85L243.27 127.87L243.88 126.79L280.88 105.12Z" fill="white"/>
<path d="M12.91 658.33L1.21997 651.61V731.78L12.83 723.47L12.91 658.33Z" fill="white"/>
<path d="M103.6 768.94L153.59 740.23L153.58 871.6L103.6 900.38V768.94Z" fill="#ABA9D5"/>
<path d="M65.3801 687.81L65.3701 745.35L115.87 716.09L128 723.15L127.84 651.45L65.3801 687.81Z" fill="#ABA9D5"/>
<path d="M38.4102 644.29L38.5701 863.46L14.2401 849.47L14.1401 658.32L38.4102 644.29Z" fill="#ABA9D5"/>
<path d="M53.1001 635.8L76.8201 649.39V622.12L53.1001 635.8Z" fill="#ABA9D5"/>
<path d="M103.47 591.87V649.3L115.65 642.26L129.09 650.03L129.25 723.88L153.52 738.01L153.53 562.93L103.47 591.87Z" fill="#ABA9D5"/>
<path d="M103.63 532.69V575.57L127.87 561.61L127.93 518.69L103.63 532.69Z" fill="#ABA9D5"/>
<path d="M90.5901 451.41L153.6 415.31L153.53 560.78L129.13 546.66L129.17 517.28L90.7501 495.02L90.5901 451.41Z" fill="#ABA9D5"/>
<path d="M89.3102 282.69V391.78L52.3003 412.99L52.3102 304.37L89.3102 282.69Z" fill="#ABA9D5"/>
<path d="M192.15 305.34L180.31 312.18L180.37 502.46L191.78 495.93L192.15 305.34Z" fill="#ABA9D5"/>
<path d="M204.8 268.66L168.4 289.49L193.39 303.91L192.94 495.26L204.65 488.6L204.8 268.66Z" fill="#ABA9D5"/>
<path d="M231.55 282.7L243.23 275.97L243.05 466.39L231.46 473.1L231.55 282.7Z" fill="#ABA9D5"/>
<path d="M281.41 106.26L244.51 127.85L244.49 346.64L255.82 340.06V295.74L281.43 280.89L281.41 106.26Z" fill="#ABA9D5"/>
<path d="M295.31 436.98L319.8 422.8L319.82 480.34L295.31 494.55V436.98Z" fill="#ABA9D5"/>
<path d="M269.72 510.84V642.25L294.95 627.67L308.39 635.3L308.4 679L319.69 672.47L319.82 481.78L269.72 510.84Z" fill="#ABA9D5"/>
<path d="M167.57 643.39L167.55 730.68L179.24 723.99L179.33 679.38L230.2 679.5L230.17 607.3L167.57 643.39Z" fill="#ABA9D5"/>
<path d="M230.15 681.43L180.43 710.02L180.48 856.27L217.44 834.73L217.49 746.05L230.21 738.7L230.15 681.43Z" fill="#ABA9D5"/>
<path d="M281.42 754.99L257.14 768.97L257.12 870.87L281.42 856.76V754.99Z" fill="#ABA9D5"/>
<path d="M295.52 702.61L358.12 666.47L358.09 783.36L351.48 802.53L295.52 834.4V702.61Z" fill="#ABA9D5"/>
<path d="M307.16 636.89V679.67L294.91 686.8L257.79 665.36L307.16 636.89Z" fill="#ABA9D5"/>
<path d="M370.84 363.61L321 392.41L321.06 523.79L370.88 495.08L370.84 363.61Z" fill="#ABA9D5"/>
<path d="M333.83 340.56L358.09 326.77V369.6L333.81 383.48L333.83 340.56Z" fill="#ABA9D5"/>
<path d="M365.6 189.37L320.94 215.12L320.89 303.07L358.11 324.64L357.94 236.67L365.6 189.37Z" fill="#ABA9D5"/>
<path d="M383.59 221.72L378.13 224.96L383.59 186.64V221.72Z" fill="#ABA9D5"/>
<path d="M435.03 208.56L372.08 244.64L372.13 405.79L383.66 399.12V266.1L435.18 236.44L435.03 208.56Z" fill="#ABA9D5"/>
<path d="M474.47 251.61L524.3 280.44L474.43 309.16L474.47 251.61Z" fill="#ABA9D5"/>
<path d="M1484.53 384.85L1495.97 378.23L1496.11 619.72L1484.55 626.4L1484.53 384.85Z" fill="#ABA9D5"/>
<path d="M537.05 282.32L474.55 318.69V362.48L512.73 384.63L512.72 413.69L524.96 406.64L537.1 413.6L537.05 282.32Z" fill="#ABA9D5"/>
<path d="M551.07 304.01L588.05 282.35V383.94L576.2 377.13L551.07 391.63V304.01Z" fill="#ABA9D5"/>
<path d="M511.49 386.09L511.47 517.32L453.99 550.6L450.21 546.68L474.3 407.42L511.49 386.09Z" fill="#ABA9D5"/>
<path d="M537.13 531.87V518.63L464.06 560.99L500.05 598.41L499.96 671.76L511.43 665.09V546.79L537.13 531.87Z" fill="#ABA9D5"/>
<path d="M498.83 599.76L436.01 635.9L435.97 752.72L498.65 716.51L498.83 599.76Z" fill="#ABA9D5"/>
<path d="M551.15 702.89L587.97 681.47L587.98 739.13L562.95 753.74L562.94 812.54L551.15 819.34V702.89Z" fill="#ABA9D5"/>
<path d="M372.13 922.68L434.8 886.37V769.75L384.77 798.64L372.16 835.25L372.13 922.68Z" fill="#ABA9D5"/>
<path d="M602.27 907.95L652.18 879.14V747.73L602.27 776.5V907.95Z" fill="#ABA9D5"/>
<path d="M666.16 856.17L716.22 827.24L716.1 681.08L666.16 709.89V856.17Z" fill="#ABA9D5"/>
<path d="M664.92 636.7L653.32 643.39V730.6L664.92 723.9V636.7Z" fill="#ABA9D5"/>
<path d="M723.74 603.06L679.07 628.8L679.03 679.33H716.29L716.27 650.23L723.74 603.06Z" fill="#ABA9D5"/>
<path d="M730.22 658.6L730.25 819.15L779.74 790.75L779.66 671.8L792.85 664.23V622.38L730.22 658.6Z" fill="#ABA9D5"/>
<path d="M741.64 601L741.62 636.44L736.24 639.51L741.64 601Z" fill="#ABA9D5"/>
<path d="M589.21 591.89L589.37 738.32L614.49 723.68L639.26 738.07L639.27 562.94L589.21 591.89Z" fill="#ABA9D5"/>
<path d="M576.64 451.73L613.83 430.27L613.93 546.16L576.6 524.61L576.64 451.73Z" fill="#ABA9D5"/>
<path d="M575.43 393.67V406.28L564.5 399.98L575.43 393.67Z" fill="#ABA9D5"/>
<path d="M627.88 422.17L639.45 415.5L639.37 560.84L627.88 554.21V422.17Z" fill="#ABA9D5"/>
<path d="M537.23 81.2V75.27L474.47 111.43V244.08L511.26 265.31V96.1801L537.23 81.2Z" fill="#ABA9D5"/>
<path d="M589.29 141L652.05 104.84L651.93 568.79L640.52 575.48L640.68 414.08L589.29 384.65V141Z" fill="#ABA9D5"/>
<path d="M589.4 97.8001L589.38 110.87L613.82 96.8401V83.5601L589.4 97.8001Z" fill="#ABA9D5"/>
<path d="M756.25 155L792.57 134.32L768.45 120.32L756.25 155Z" fill="#ABA9D5"/>
<path d="M756.07 171.52L818.76 135.49V370.09L781.43 391.86L781.45 362.79L755.99 348.11L756.07 171.52Z" fill="#ABA9D5"/>
<path d="M729.13 393.57L717.29 400.41L717.32 590.46L728.79 583.85L729.13 393.57Z" fill="#ABA9D5"/>
<path d="M741.78 356.88L705.39 377.72L730.36 392.15L730.02 583.91L741.65 590.5L741.78 356.88Z" fill="#ABA9D5"/>
<path d="M768.52 370.94L780.19 364.22L780.01 614.25L768.42 620.96L768.52 370.94Z" fill="#ABA9D5"/>
<path d="M818.99 694.81L882.22 658.78L882.01 864.16L819.36 900.48L818.99 694.81Z" fill="#ABA9D5"/>
<path d="M921.86 635.8L921.89 722.89L946.22 708.89L946.36 679.42L959.64 671.67L984.64 686.1L984.59 570.82L921.86 635.8Z" fill="#ABA9D5"/>
<path d="M883.8 451.37L920.81 430.09L920.9 487.6L883.8 508.96V451.37Z" fill="#ABA9D5"/>
<path d="M882.25 393L845.71 413.89L882.25 435.15V393Z" fill="#ABA9D5"/>
<path d="M934.78 422.09L946.34 415.35L946.43 472.9L934.78 479.61V422.09Z" fill="#ABA9D5"/>
<path d="M1022.81 295.76V282.32L960.29 318.68V480.27C960.29 480.27 960.31 480.34 960.34 480.36L1009.91 509C1009.98 509.04 1010.07 508.99 1010.07 508.91L1010.12 303.64C1010.12 303.31 1010.3 303.01 1010.58 302.84L1022.79 295.77L1022.81 295.76Z" fill="#ABA9D5"/>
<path d="M972.71 303.19L996.98 289.3V246.48L972.73 260.28L972.71 303.19Z" fill="#ABA9D5"/>
<path d="M1010.19 272.9L998.23 266.01V245.04L947.43 215.62V140.66L1010.19 104.5V272.9Z" fill="#ABA9D5"/>
<path d="M960.88 554.57L1022.87 518.64V561.52L1010.21 568.83V657.32L985.93 671.42L985.83 568.92L960.88 554.57Z" fill="#ABA9D5"/>
<path d="M1254.28 688.2L1265.78 681.45L1265.94 867.86L1254.28 874.48V688.2Z" fill="#ABA9D5"/>
<path d="M1279.84 673.36L1291.44 666.7L1291.39 853.08L1279.84 859.63V673.36Z" fill="#ABA9D5"/>
<path d="M1316.94 651.95L1305.66 658.59L1305.74 844.81L1317.04 838.33L1316.94 651.95Z" fill="#ABA9D5"/>
<path d="M1252.92 642.17L1252.93 629.76L1242.01 636.05L1252.91 642.34L1252.92 642.17Z" fill="#ABA9D5"/>
<path d="M1227.42 644.45V657.22L1216.3 650.92L1227.42 644.45Z" fill="#ABA9D5"/>
<path d="M1254.24 532.89L1304.34 503.86L1304.25 642.48L1254.24 613.56V532.89Z" fill="#ABA9D5"/>
<path d="M1304.3 444.92L1279.84 459.06V516.63L1304.34 502.51L1304.3 444.92Z" fill="#ABA9D5"/>
<path d="M1355.41 385.67L1305.56 414.46V545.87L1355.41 517.15V385.67Z" fill="#ABA9D5"/>
<path d="M1393.74 495.35L1369.5 509.19V304.07L1419.67 274.96L1419.54 376.65L1393.74 391.49V495.35Z" fill="#ABA9D5"/>
<path d="M1329.74 163.84L1279.64 192.9V339.86L1317.29 361.56V273.6L1329.67 266.43L1329.74 163.84Z" fill="#ABA9D5"/>
<path d="M1329.74 104.85L1305.23 119.05V176.55L1329.74 162.4V104.85Z" fill="#ABA9D5"/>
<path d="M1408.1 155.56L1432.36 141.65V184.49L1408.1 198.43V155.56Z" fill="#ABA9D5"/>
<path d="M1407.91 208.02L1458.02 179.18V354.16L1432.75 339.54L1420.8 346.48L1420.85 273.58L1407.91 266.17V208.02Z" fill="#ABA9D5"/>
<path d="M1457.65 370.83L1407.88 399.65V539.52L1457.75 568.22L1457.65 370.83Z" fill="#ABA9D5"/>
<path d="M1560.79 399.61L1624.03 363.58L1623.87 553.02L1586.34 531.35L1561 545.95L1560.79 399.61Z" fill="#ABA9D5"/>
<path d="M1548.64 244.54L1585.69 222.83V339.76L1548.6 361.04L1548.64 244.54Z" fill="#ABA9D5"/>
<path d="M1651.12 289.31L1714.39 223.79V303.61L1694.42 292.06L1668.19 307.16V329.43L1651.12 339.33V289.31Z" fill="#ABA9D5"/>
<path d="M1707.79 330.01L1732.09 316.02L1732.05 358.92L1707.73 372.87L1707.79 330.01Z" fill="#ABA9D5"/>
<path d="M1764.94 363.59L1715.09 392.39L1715.04 517.62L1751.86 545.7V480.24L1764.94 472.67V363.59Z" fill="#ABA9D5"/>
<path d="M1727.56 613.5L1790.32 577.34V709.09L1764.76 723.88L1764.72 737.76L1752.61 730.85L1739.14 738.61V885.98L1727.56 892.62V613.5Z" fill="#ABA9D5"/>
<path d="M1612.6 591.44L1649.54 570.04L1649.59 774.96L1638.06 781.61V771.09L1612.6 756.3V591.44Z" fill="#ABA9D5"/>
<path d="M1598.51 599.58L1586.89 606.29V755.51L1598.51 748.79V599.58Z" fill="#ABA9D5"/>
<path d="M1535.82 576.72L1559.79 562.87L1559.92 649.29L1535.82 635.42V576.72Z" fill="#ABA9D5"/>
<path d="M1510.06 724.27L1572.94 659.14L1572.91 804.95L1510.1 841.2L1510.06 724.27Z" fill="#ABA9D5"/>
<path d="M1457.74 570.51L1382.04 613.42V730.16L1444.94 694.97V686.74L1457.6 673.6L1457.74 570.51Z" fill="#ABA9D5"/>
<path d="M1918.04 297.36L1868.4 326.44L1868.41 472.68L1893.88 487.47L1893.89 699.74L1918.04 686.05V297.36Z" fill="#ABA9D5"/>
<path d="M1905.79 274.91L1868.37 296.47L1868.41 324.99L1917.83 296.04L1905.79 274.91Z" fill="#ABA9D5"/>
<path d="M1868.28 252.15L1905.4 230.85V273.69L1868.37 295.05L1868.28 252.15Z" fill="#ABA9D5"/>
<path d="M1829.88 525.04L1892.64 488.89L1892.65 768.17L1868.27 782.15L1868.3 738.29L1829.88 716.25V525.04Z" fill="#ABA9D5"/>
<path d="M1803.05 717.85V730.39L1792.12 724.15L1803.05 717.85Z" fill="#ABA9D5"/>
<path d="M1804.26 775.89L1841.44 754.45L1841.58 915.21L1804.16 936.56L1804.26 775.89Z" fill="#ABA9D5"/>
<path d="M1867.06 739.68L1855.5 746.34V907.88L1866.98 901.22L1867.06 739.68Z" fill="#ABA9D5"/>
<path d="M1612.59 786.49L1636.81 772.56L1636.87 874.29L1612.57 888.38L1612.59 786.49Z" fill="#ABA9D5"/>
<path d="M1049.84 326.08L1086.83 304.41L1086.82 417.56L1074.78 413.33L1049.81 427.64L1049.84 326.08Z" fill="#ABA9D5"/>
<path d="M1113.63 67.55L1163.6 38.77L1163.62 170.08L1113.63 198.88V67.55Z" fill="#ABA9D5"/>
<path d="M1113.74 215.09L1138.14 200.99L1138.02 405.67L1113.7 391.63L1113.74 215.09Z" fill="#ABA9D5"/>
<path d="M1164.72 244.4L1227.41 208.24L1227.35 487.78L1202.58 502.08C1202.23 502.28 1202.01 502.66 1202.01 503.06V531.76L1164.65 553.32L1164.71 244.39L1164.72 244.4Z" fill="#ABA9D5"/>
<path d="M1113.76 421.97L1138.02 407.83L1138.01 421.22L1122.67 430.06L1113.74 426.95L1113.76 421.97Z" fill="#ABA9D5"/>
<path d="M1139.36 451.4L1163.41 437.51V554.05L1139.29 567.96L1139.36 451.4Z" fill="#ABA9D5"/>
<path d="M1075.11 473.48L1138.13 437.39L1138.05 582.86L1113.66 568.75L1113.69 539.35L1075.28 517.09L1075.11 473.48Z" fill="#ABA9D5"/>
<path d="M1087.99 613.96L1138.06 585.01V760.1L1100.39 738.17L1087.99 745.36V613.96Z" fill="#ABA9D5"/>
<path d="M1088.14 791.01L1138.05 762.24V893.64L1088.14 922.45V791.01Z" fill="#ABA9D5"/>
<path d="M1011.43 716.98L1022.87 710.34L1023.01 945.13L1011.45 951.79L1011.43 716.98Z" fill="#ABA9D5"/>
<path d="M984.55 702.87L984.64 937.54L934.78 966.9V731.78L984.55 702.87Z" fill="#ABA9D5"/>
<path d="M1088.15 554.77L1112.45 540.76L1112.41 583.68L1088.15 597.63V554.77Z" fill="#ABA9D5"/>
<path d="M1152.7 192.58L1176.42 178.89V206.17L1152.7 192.58Z" fill="#ABA9D5"/>
<path d="M1037.02 702.61L1074.11 681.03L1074.15 753.38L1048.61 768.15V812.38L1037.01 819.07L1037.02 702.61Z" fill="#ABA9D5"/>
<path d="M1574.79 554.21L1585.67 560.5V547.93L1574.79 554.21Z" fill="#ABA9D5"/>
<path d="M1919.02 295.65L1906.65 273.89V229.44L1906.4 229.3L1906.26 229.22L1842.51 192.23L1842.17 192.06L1803.73 214.54L1803.62 214.6L1803.36 214.73V259.52L1790.6 281.27H1790.59L1790.33 281.7V458.04L1766.17 471.96V362.17L1765.94 362.03L1765.81 361.95L1733.3 343.22L1733.33 315.01V314.59L1733.11 314.44L1732.99 314.37L1715.62 304.32V222.52L1715.66 222.47L1663.25 192.35L1599.32 258.73L1599.04 259.02L1598.57 259.57V346.67L1586.97 339.95V221.8C1586.97 221.74 1586.96 221.68 1586.94 221.63C1586.9 221.52 1586.83 221.43 1586.72 221.37L1548.2 199.17L1547.96 199.02L1509.24 221.35C1509.24 221.35 1509.21 221.37 1509.2 221.39C1509.16 221.42 1509.13 221.44 1509.1 221.47C1509.08 221.48 1509.07 221.5 1509.07 221.51C1509.04 221.53 1509.02 221.56 1509.01 221.59C1508.94 221.69 1508.91 221.8 1508.91 221.92V582.92L1521.72 590.31V627.31L1509.56 620.31L1509.15 620.07L1458.82 672.33L1458.9 613.92L1483.76 628.29L1497.02 620.63L1497.33 620.43L1497.21 379.61V377.17C1497.21 376.92 1497.07 376.71 1496.87 376.61L1496.81 376.58L1459.26 354.85V177.76L1459.03 177.62L1458.9 177.54L1433.59 162.97V139.51L1413.18 151.22L1407.51 147.95L1407.27 147.82L1357.29 176.74L1355.88 177.54C1355.88 177.54 1355.84 177.56 1355.82 177.57C1355.77 177.6 1355.72 177.63 1355.68 177.67C1355.56 177.78 1355.49 177.93 1355.49 178.11V251.53L1330.91 265.71L1330.98 163.12V162.38L1330.96 103.74C1330.96 103.74 1330.95 103.72 1330.95 103.71V103.69C1330.95 103.69 1330.95 103.67 1330.94 103.66C1330.94 103.66 1330.94 103.653 1330.94 103.64C1330.94 103.64 1330.92 103.54 1330.9 103.5C1330.87 103.43 1330.82 103.36 1330.76 103.3C1330.73 103.26 1330.68 103.24 1330.64 103.21L1330.59 103.18L1279.19 73.5L1278.94 73.35L1253.04 88.39C1252.93 88.45 1252.85 88.55 1252.8 88.66C1252.79 88.68 1252.78 88.7 1252.77 88.72C1252.76 88.77 1252.74 88.8201 1252.74 88.8701C1252.73 88.8901 1252.73 88.92 1252.73 88.94V147.62L1227.82 162.16H1227.8L1227.68 162.23L1227.42 162.36V206.05L1215.26 199.04L1189.69 213.81L1177.67 206.91V177.45L1177.41 177.31L1177.3 177.25L1164.87 170.07L1164.85 37.78V37.36L1164.63 37.21L1164.5 37.13L1100.61 0.170044L1100.36 0L1074.9 14.72L1048.92 29.7401L1048.82 29.8L1048.58 29.96V280.91L1024.06 295.05V281.33L1024.05 280.9L1023.82 280.76L1023.68 280.68L1011.44 273.62V103.09L1011.22 102.94L1011.09 102.86L934.33 58.76L933.97 58.63L869.78 95.6H869.77L869.67 95.67L869.41 95.84V310.88H869.42V384.16L818.69 413.51L818.59 413.58L818.33 413.77V414.13L818.29 649.64L794.16 663.48L794.08 620.73L793.54 620.43L781.28 613.48L781.44 393.3L819.77 370.94L820.01 370.8V134.42C820.01 134.34 820.01 134.26 819.96 134.2C819.92 134.12 819.88 134.06 819.83 134C819.8 133.95 819.75 133.91 819.69 133.88L781.2 111.67L780.95 111.52L768.29 118.79L755.05 111.08L748.44 130.19L716.44 148.57C716.36 148.62 716.31 148.67 716.27 148.74C716.26 148.76 716.26 148.77 716.25 148.79V149.12L716.17 325.88L703.75 333.07C703.68 333.11 703.63 333.15 703.59 333.21C703.56 333.24 703.53 333.27 703.51 333.31C703.43 333.41 703.39 333.54 703.39 333.68V362.73L691.37 369.64L665.8 354.86L653.3 362.07V103.43L653.08 103.29L652.95 103.2L576.19 59.1L575.9 58.92L538.48 80.48V73.86L538.26 73.71L538.13 73.6201L461.39 29.52L461.05 29.35L396.81 66.38L396.71 66.44L396.45 66.59V214.33L384.84 221.07V177.96C384.84 177.96 384.84 177.92 384.83 177.9V177.57L371.48 170.01L371.22 169.83L307.94 206.29L307.36 206.65L306.65 207.04L306.73 278.05L306.52 294.73L282.74 280.96V104.79L282.52 104.64L282.37 104.54L244.13 82.4901L243.87 82.33L205.17 104.63L205.07 104.7L204.81 104.86V251.7L180.05 237.43L179.81 237.29L166.73 244.86C166.73 244.86 166.72 244.87 166.71 244.87C166.7 244.88 166.69 244.9 166.68 244.91C166.61 244.96 166.54 245.02 166.5 245.09C166.43 245.2 166.4 245.32 166.41 245.44V274.5L154.39 281.41L128.82 266.63L116.01 274.03L115.38 274.39V275.11L115.11 399.94L90.55 391.37V281.29L90.33 281.14L90.1801 281.05L51.97 259.01L51.61 258.88L13 281.13L12.98 281.15L12.88 281.21L12.61 281.37V488.7L51.23 511L51.26 531.99L26.08 546.54H26.0599L25.96 546.6L25.7 546.74V635.39L0.380005 649.98L0.25 650.05L0 650.2V650.6L0.170044 842.47V842.75L14.25 850.91L38.58 864.89L38.66 864.94L50.77 871.89L51.53 872.33L51.6801 872.41L52.26 872.75L64.2 879.58L102.62 901.95L102.74 902.01L103.01 902.17L103.26 902.02L103.36 901.96L154.59 872.46L154.83 872.32V843.51L179.21 857.57L179.29 857.62L180.01 858.05L180.42 857.77C180.42 857.77 180.44 857.77 180.45 857.76C182.82 856.12 203.3 844.31 217.5 836.15V850.2L256.15 872.46L256.26 872.51L256.51 872.64L256.75 872.5L256.87 872.44L282.65 857.47V829.12L294.31 835.82L294.55 835.96L294.65 836.03L294.88 836.19L294.92 836.21L295.17 836.04H295.19L295.29 835.96L295.85 835.64L350.88 804.3L345.44 820.1C345.44 820.1 345.42 820.12 345.42 820.14L345.38 820.27C345.38 820.27 345.37 820.34 345.37 820.38V909.32L370.9 924.11L371.52 924.47L372.14 924.11L435.8 887.22L436.04 887.08V768.68C436.04 768.68 436.03 768.58 436.02 768.52C436.01 768.47 435.99 768.42 435.96 768.38C435.91 768.28 435.83 768.2 435.73 768.14L410.13 753.32L409.88 753.18L359.37 782.36L359.39 665.44V664.91L359.01 664.67L346.1 657.2L320.94 671.75L321.04 525.24L371.88 495.94L372.13 495.8V407.03L383.67 400.46V517.22L371.28 524.37L371.17 524.44L370.91 524.61V525L370.85 567.78V569.58L370.82 717.1L434.01 753.7L434.6 754.04L435.09 754.34L435.35 754.49L435.51 754.4H435.52L436.4 753.9L498.74 717.89L498.72 791.19L550.18 820.92L550.24 820.95C550.24 820.95 550.34 821 550.39 821.01C550.44 821.02 550.49 821.03 550.54 821.03H550.55C550.55 821.03 550.65 821.02 550.7 821.01C550.74 821 550.79 820.98 550.84 820.95C550.86 820.95 550.87 820.94 550.88 820.93L562.95 813.97V887.28L599.34 908.42L601.22 909.5L601.25 909.52L601.4 909.61C601.4 909.61 601.47 909.65 601.51 909.66H601.52C601.52 909.66 601.59 909.68 601.62 909.66C601.72 909.66 601.83 909.63 601.93 909.58L602.17 909.44C602.17 909.44 602.17 909.43 602.18 909.43L653.19 879.98L653.43 879.84V851.06L665.09 857.87L665.49 858.1L666.02 857.79L717.05 828.11L717.3 827.97V813.56L727.83 819.76L728.23 819.99L728.78 820.33L729.7 820.9L779.75 792.18L779.81 879.24V879.52L815.73 900.52L818.29 902.08L818.33 902.11C818.49 902.24 818.72 902.27 818.92 902.16L883.01 865.01L883.26 864.87L883.4 732.61L920.65 754.12V960.58L934.53 968.6V968.07L934.19 968.14L933.55 967.94V966.58L921.89 959.88V725.03H921.9L933.55 731.77V966.58L934.53 967.14V968.07H934.54V968.6L984.91 939.16L1010.22 953.94L1010.2 952.38L985.9 937.96L985.84 791.64V790.21H985.82L985.83 767.88L985.81 717.13V702.86L985.84 702.88H985.85L1010.22 716.97V953.94L1023.93 946.01L1024.24 945.8L1024.17 813.78L1036.06 820.65C1036.14 820.69 1036.22 820.72 1036.3 820.72C1036.37 820.74 1036.45 820.74 1036.52 820.72C1036.6 820.71 1036.67 820.69 1036.74 820.65L1048.62 813.8V901.58L1087.37 924.14L1087.63 924.3L1088.15 924V923.98L1139.05 894.49L1139.3 894.35V582.85V582.86V569.39L1139.31 569.28L1163.42 555.47L1163.74 555.28L1164.83 554.66L1202.03 533.19V642.96L1189.45 650.23L1189.33 650.31L1189.07 650.45V650.85L1189.03 839.29L1252.43 875.51L1253.24 875.98L1253.75 876.23L1254.32 875.9L1266.76 868.86C1267.01 868.72 1267.16 868.45 1267.16 868.17V854.75L1278.56 861.01L1278.81 861.14C1279.11 861.29 1279.39 861.34 1279.72 861.15L1291.41 854.46L1292.16 854.06C1292.46 853.89 1292.65 853.58 1292.65 853.23V839.54L1304.2 846.45C1304.43 846.59 1304.69 846.62 1304.93 846.58C1305.06 846.58 1305.18 846.55 1305.3 846.48L1317.19 839.68L1317.8 839.33C1318.1 839.16 1318.27 838.85 1318.27 838.51L1318.14 695.35L1381.08 731.71L1381.18 731.78L1381.45 731.95L1381.71 731.78L1381.82 731.71L1444.96 696.37V805.7L1509.12 842.76L1509.25 842.83L1509.51 842.96L1509.74 842.83L1509.85 842.76L1572.97 806.18V867.71L1611.59 889.94L1611.74 890.03L1611.97 890.14L1612.21 890.01L1612.33 889.95L1638.13 874.99L1638.09 783.03L1649.66 776.35L1649.69 849.42V849.71L1650.88 850.35L1726.34 894.74H1726.35L1739.16 887.39V901.45L1803.2 938.12L1803.31 938.18L1803.58 938.29L1803.82 938.18L1803.92 938.13L1842.53 916.11L1842.84 915.91V902.78L1854.84 909.64C1854.85 909.63 1854.86 909.63 1854.87 909.62L1858.75 907.41L1868.22 901.91L1868.29 783.56L1893.65 769.02L1893.91 768.88V700.98L1919 686.76L1919.31 686.55V296.1L1919.04 295.64L1919.02 295.65ZM1917.83 296.04L1868.41 324.99H1868.4L1868.36 296.48H1868.37L1905.79 274.91L1917.83 296.04ZM1905.4 273.69L1868.37 295.05L1868.28 252.15L1905.4 230.85V273.69ZM1842.19 193.49L1904.79 229.78L1867.65 251.08L1805.21 215.1L1842.19 193.49ZM1804.6 216.19L1867.04 252.16L1867.13 295.06L1804.6 259.35V216.19ZM1804.2 260.55L1867.12 296.49H1867.13L1867.17 325.01L1867.13 324.98L1791.8 281.67L1804.2 260.55ZM1791.57 282.96L1867.13 326.42L1867.17 326.44V471.95H1867.16L1816.71 443.1L1816.64 443.06L1816.49 442.96H1816.47L1791.57 457.28V282.96ZM1766.17 473.38L1816.47 444.4L1892.02 487.83L1829.25 523.97L1766.17 487.72L1764.94 487.01L1753.71 480.56L1764.94 474.09L1766.17 473.38ZM1791.34 575.79L1791.21 575.7L1766.17 556.61L1764.94 555.67L1753.1 546.64V481.63L1764.94 488.43L1766.17 489.14L1828.64 525.04V715.54L1804.06 701.47L1803.81 701.31L1791.56 708.37V575.93L1791.34 575.79ZM1789.83 576.2L1766.17 589.83L1764.94 590.53L1753.1 597.35L1751.86 598.06L1726.99 612.39L1715 603.18L1713.86 602.31L1684.57 579.81L1683.51 578.99L1651.27 554.23L1713.73 518.66L1713.86 518.59L1714.11 518.45L1715.03 519.16L1751.86 547.25L1753.1 548.19L1764.94 557.22L1766.17 558.16L1789.83 576.2ZM1764.94 472.67L1752.23 480L1752.12 480.06L1751.86 480.24V545.7L1715.04 517.62L1715.09 392.39L1764.94 363.59V472.67ZM1733.29 359.63V344.65L1764.31 362.52L1714.47 391.3L1651.12 354.86L1649.89 354.15L1638.92 347.84L1649.89 341.47L1651.12 340.76L1668.19 330.85V352.2L1706.75 374.43L1706.87 374.5L1707.14 374.64L1707.41 374.5L1707.47 374.47L1732.98 359.83L1733.29 359.63ZM1669.43 351.49V308.57L1686.82 318.61L1688.05 319.33L1706.55 330.01L1706.49 372.83L1669.43 351.49ZM1732.07 342.51V343.94L1732.05 358.92L1707.73 372.87L1707.79 330.01L1707.84 329.98L1709.09 329.26L1732.09 316.02L1732.07 342.51ZM1731.48 314.93L1707.85 328.55L1707.18 328.94L1688.07 317.89L1670.06 307.48L1694.42 293.47L1731.48 314.93ZM1714.39 303.61L1694.66 292.2L1694.42 292.06L1668.54 306.93L1668.45 306.99L1668.19 307.16V329.43L1651.12 339.33V289.31L1651.28 289.15L1714.39 223.79V303.61ZM1663.47 193.91L1713.62 222.78L1650.55 288.12L1600.48 259.31L1663.47 193.91ZM1599.81 260.39L1649.89 289.18V340.04L1637.43 347.27L1637.32 347.36L1637.07 347.52V347.91L1636.94 560.57L1625.1 553.73L1625.25 362.6V362.18L1625.04 362.03L1624.91 361.95L1599.8 347.39V260.39H1599.81ZM1598.51 582.68V598.15L1586.28 605.21L1574.79 598.51L1586.96 591.48V591.33L1586.89 576.33V576.04L1561.02 561.06L1560.98 561.04L1560.74 560.9L1559.78 561.45L1548.58 567.93L1547.33 568.64L1535.2 575.65L1535.07 575.57L1523.58 568.94L1547.34 555.25L1548.58 554.54L1559.76 548.09L1561 547.38L1586.34 532.78L1598.54 539.83L1599.78 540.54L1623.86 554.45L1625.1 555.16L1636.94 562L1638.17 562.71L1648.97 568.94L1636.06 576.42L1625.08 582.78L1623.84 583.5L1611.98 590.37L1598.51 582.68ZM1611.37 591.44V755.58L1599.75 748.83V584.81L1611.37 591.44ZM1598.51 599.58V748.79L1586.89 755.51V606.29L1598.51 599.58ZM1559.92 649.29L1535.82 635.42V576.72L1547.33 570.07L1548.58 569.35L1559.79 562.87L1559.85 606.9L1559.87 608.38L1559.92 649.29ZM1522.96 570.01L1534.58 576.72V634.71L1522.96 628.02V570.01ZM1522.69 378.03L1547.36 392.47L1548.6 393.2L1559.55 399.61L1559.76 546.67L1548.58 553.11L1547.34 553.83L1522.96 567.87L1522.69 378.03ZM1560.79 399.61L1599.8 377.39L1624.03 363.58L1623.87 553.02L1599.78 539.11L1598.54 538.4L1586.34 531.35L1561 545.95L1560.79 399.61ZM1598.56 348.11L1599.8 348.83L1623.4 362.52L1599.8 375.96L1560.16 398.54L1548.6 391.77L1547.36 391.04L1523.32 376.96L1547.36 363.17L1548.6 362.46L1586.16 340.92L1598.56 348.11ZM1585.69 339.76L1548.6 361.04L1548.62 244.55H1548.64L1585.69 222.83V339.76ZM1547.96 200.45L1585 221.81L1548 243.48L1510.77 221.9L1547.96 200.45ZM1510.15 582.2V222.97L1547.36 244.54H1547.38L1547.36 361.75L1521.86 376.38H1521.83L1521.71 376.32V376.46L1521.47 376.57V376.88L1521.36 376.95L1521.47 377.02L1521.72 576.13V588.88L1510.15 582.2ZM1483.31 626.41L1458.99 612.38L1458.97 571.8L1458.89 370.76L1483.31 384.85V626.41ZM1496.11 619.72L1484.55 626.4L1484.53 384.86L1495.97 378.23L1496.11 619.72ZM1459.26 356.29L1495.33 377.15H1495.34L1489.69 380.44L1483.93 383.78H1483.92L1482.47 382.94L1458.58 369.14L1458.26 368.95L1420.77 390.73L1419.53 391.46L1407.25 398.58L1395.61 391.84L1419.54 378.08L1420.78 377.37L1445.81 362.97L1446.75 362.45L1421.31 347.62L1432.77 340.96L1438.53 344.3L1459.26 356.29ZM1457.75 568.22L1407.88 539.52V399.65L1419.53 392.89L1420.77 392.17L1440.55 380.68L1457.65 370.83L1457.75 568.22ZM1394.98 392.91L1406.64 399.67V538.81L1394.98 532.09V392.91ZM1394.11 391.25H1394.1L1394 391.32L1393.74 391.49V495.35L1369.5 509.19V304.07L1419.61 275.02L1419.56 348.64L1419.54 376.65L1394.11 391.25ZM1420.78 375.94L1420.8 348.76L1444.28 362.44L1420.78 375.94ZM1458.02 354.16L1432.99 339.67L1432.75 339.54L1429.17 341.62L1420.8 346.48L1420.7 346.54L1420.85 274.3V273.58L1416.37 271.02L1407.91 266.17V208.02L1458.02 179.18V354.16ZM1414.43 151.93L1432.36 141.65V184.49L1408.1 198.43V155.56L1413.18 152.65L1414.43 151.93ZM1407.27 149.25L1411.93 151.93L1408.1 154.13L1406.86 154.84L1368.91 176.77L1367.99 177.3L1407.12 200.01L1407.17 200.04L1407.23 200.07C1407.23 200.07 1407.29 200.1 1407.32 200.1C1407.37 200.12 1407.43 200.12 1407.48 200.12C1407.53 200.12 1407.59 200.12 1407.64 200.1C1407.67 200.1 1407.7 200.08 1407.73 200.07C1407.75 200.06 1407.77 200.05 1407.79 200.04L1407.85 200.01L1433.59 185.21V164.4L1457.4 178.1L1407.3 206.93L1357.35 178.1L1407.27 149.25ZM1406.86 156.27V198.43L1370.46 177.3L1406.86 156.27ZM1356.73 179.18L1406.68 208.01V265.47L1368.88 243.81L1356.73 250.82V179.18ZM1330.91 267.14L1355.49 252.96L1368.88 245.24L1406.68 266.9L1407.91 267.6L1418.99 273.95L1368.88 303L1330.9 280.8L1329.66 280.08L1319.14 273.93L1329.67 267.86L1330.91 267.14ZM1356.64 384.44C1356.64 384.44 1356.62 384.36 1356.6 384.33C1356.59 384.3 1356.57 384.27 1356.55 384.25C1356.54 384.22 1356.51 384.19 1356.49 384.17C1356.46 384.13 1356.42 384.1 1356.37 384.07H1356.36L1356.24 384L1330.84 369.36L1329.6 368.65L1318.53 362.27V275L1328.9 281.06L1368.26 304.07V508.87L1356.65 502.18V384.57C1356.65 384.57 1356.65 384.48 1356.64 384.44ZM1305.58 502.84V502.44L1305.53 448.47V443.98L1305.52 443.93C1305.52 443.91 1305.53 443.9 1305.53 443.88V443.68L1305.56 414.46L1317.29 407.69L1318.53 406.97L1355.41 385.67V517.15L1305.56 545.87L1305.58 517.68H1305.59V502.84H1305.58ZM1279.49 457.83L1229.19 428.94L1253.54 414.8L1303.73 443.78L1279.49 457.83ZM1304.3 444.92L1304.32 473.52L1304.34 501.73V502.51L1279.84 516.63V459.06L1280.73 458.54L1304.3 444.92ZM1279.59 518.2L1279.84 518.06L1304.23 503.92L1304.34 503.86V516.96L1304.32 548.02L1304.25 642.48L1254.24 613.56V532.89L1269.98 523.77L1279.59 518.2ZM1280.18 399.14L1279.11 398.48L1278.4 398L1229.41 369.91L1278.4 341.49L1279.19 341.03L1279.64 341.29L1317.29 362.99L1318.53 363.7L1329.06 369.77L1330.32 370.49L1354.79 384.59L1318.53 405.54L1317.29 406.26L1304.95 413.39H1304.94L1280.18 399.14ZM1279.64 339.86V192.9L1304.92 178.23L1305.23 178.05L1327.7 165.01L1329.74 163.83L1329.67 266.43L1317.71 273.33L1317.58 273.4C1317.53 273.42 1317.49 273.46 1317.46 273.49C1317.43 273.52 1317.39 273.56 1317.37 273.6C1317.33 273.66 1317.31 273.72 1317.3 273.79C1317.29 273.83 1317.29 273.86 1317.29 273.9V361.56L1279.64 339.86ZM1329.74 162.4L1329.12 162.76L1305.23 176.55V119.05L1329.74 104.85V162.4ZM1278.93 74.78L1329.12 103.77L1304.61 117.97L1255.69 89.59L1254.57 88.9301L1278.93 74.78ZM1253.96 90L1303.99 119.05V176.54L1254.57 147.93L1253.96 147.58V90ZM1253.34 148.65L1303.44 177.65L1279.01 191.81L1229.26 162.74L1253.34 148.65ZM1228.65 163.82L1278.4 192.88V340.06L1228.65 368.93V163.82ZM1228.61 416.37L1228.78 370.99L1231.32 372.45L1278.4 399.54H1278.41L1278.93 399.85L1304.32 414.46L1304.29 442.65L1253.78 413.51L1253.53 413.36L1228.56 427.85L1228.6 416.37H1228.61ZM1228.57 430.02L1228.61 430.04L1278.6 459.06V516.43L1278.49 516.49L1229.38 488.06H1229.37L1228.59 487.6H1228.57V430.02ZM1228.16 488.78L1276.29 516.44L1278.11 517.63L1253.62 531.83L1249.4 529.36L1228.58 517.2L1227.34 516.47L1203.9 502.75L1204 502.69L1227.35 489.22L1228.16 488.78ZM1253 532.9V613.52L1203.26 642.26V503.83L1226.69 517.52L1227.93 518.25L1253 532.9ZM1163.62 170.08L1113.63 198.88V67.55L1163.6 38.77L1163.62 170.08ZM1074.89 16.15V16.09L1074.96 16.13L1100.33 1.45001L1162.99 37.7L1113.01 66.48L1050.42 30.31L1074.89 16.15ZM1049.79 31.38L1112.38 67.54V199.6L1100.22 206.61L1099.6 206.96V207.68L1099.62 398.99L1088.07 405.65H1088.05L1088.07 303.69V302.97L1087.45 302.61L1049.79 280.92V31.38ZM1075.13 679.45L1075.01 679.37L1023.75 649.77L1023.5 649.6L1011.45 656.6V570.28L1024.11 577.62L1086.75 613.96V746.07L1075.37 752.67L1075.35 680.02V679.59L1075.13 679.45ZM985.58 568.78L985.33 568.64L960.88 554.57L1022.87 518.64V561.52L1010.58 568.61L1010.47 568.67L1010.22 568.83V657.32L985.93 671.42L985.83 631.18V568.92L985.58 568.78ZM887.3 541.68L886.06 540.96L883.8 539.64L882.56 538.92L858.51 524.95L882.56 511.11L883.8 510.39L920.9 489.04L922.14 488.32L933.54 481.76L934.78 481.05L946.43 474.34L946.94 474.05L947.68 474.48L959.06 481.05L960.29 481.76L1010.08 510.52L1015.79 513.82L1022.26 517.56L1006.41 526.74L960.29 553.47L959.64 553.85L959.61 553.83L920.95 531.59L902.64 550.6L887.3 541.68ZM901.79 551.49L857.8 597.16L857.88 526.02L882.56 540.33L883.8 541.05L884.84 541.66L886.08 542.38L901.79 551.49ZM920.9 487.6L883.8 508.96V451.37L920.81 430.09L920.9 487.6ZM896.04 413.58L895.68 413.45L883.49 420.41V393L933.54 422.09V480.32L922.14 486.89L922.05 429.04C922.05 428.96 922.03 428.89 922 428.82C922 428.78 921.97 428.73 921.94 428.69C921.92 428.65 921.89 428.61 921.86 428.58C921.83 428.55 921.8 428.52 921.76 428.5C921.75 428.49 921.73 428.48 921.72 428.47L896.04 413.58ZM934.78 479.61V422.09L946.34 415.35L946.43 472.9L934.78 479.61ZM1048.92 531.68L1048.81 531.75L1048.55 531.92V546.67L1037.02 553.34L1036.97 525.96V524.53L1036.79 437.6L1048.57 448.97L1049.81 450.16L1073.87 473.38L1074.04 517.23L1049.79 531.18L1048.92 531.68ZM1060.73 539.63L1073.44 546.99H1073.45L1074.69 547.7L1080.83 551.26L1086.91 554.77L1086.85 597.59L1049.79 576.25V533.31L1060.73 539.63ZM1035.72 523.82V525.25L1035.78 554.05L1024.11 560.8V517.2L1023.51 516.85L1011.32 509.81L1011.38 304.5L1048.6 326.08L1048.58 428.35L1036.05 435.53L1035.81 435.66L1035.55 435.78L1035.72 523.82ZM1024.11 576.19L1012.08 569.21L1022.87 562.97L1024.11 562.25L1035.78 555.5L1037.02 554.78L1048.55 548.12V576.96L1087.57 599.37L1087.83 599.23L1113.38 584.54L1113.65 584.4V570.21L1137.44 583.94L1087.38 612.89L1024.11 576.19ZM1112.42 568.03V583.68L1088.15 597.63V554.77L1088.77 554.41L1088.84 554.37L1112.45 540.76L1112.42 568.03ZM1087.61 553.66L1087.54 553.7L1074.15 545.97L1062.19 539.05L1061.96 538.92L1050.4 532.24L1074.04 518.65L1074.78 518.23L1075.28 518.52L1111.84 539.69L1087.61 553.66ZM1074.6 472.36L1049.81 448.44L1048.57 447.25L1037.19 436.27L1048.57 429.75L1049.81 429.04L1074.87 414.7L1086.82 418.87L1088.06 419.3L1112.5 427.82H1112.51L1113.73 428.25H1113.74L1121.25 430.87H1121.26L1122.8 431.41H1122.82L1137.27 436.46L1125.89 442.98H1125.88L1124.65 443.69H1124.64L1100.25 457.67L1099 458.38L1074.6 472.36ZM1049.81 427.64L1049.84 326.09L1086.83 304.41V407.09H1086.82V417.56L1075.01 413.44L1074.78 413.33L1049.81 427.64ZM1088.06 417.99V407.81L1112.52 421.96H1112.53L1112.51 426.52H1112.5L1088.06 417.99ZM1122.68 430.06H1122.67L1113.74 426.95H1113.73L1113.75 421.97H1113.76L1122.84 416.66L1138.02 407.81H1138.04L1138.02 407.83V421.22L1122.68 430.06ZM1138.02 405.64V405.67L1113.7 391.63L1113.74 215.09L1138.14 200.99L1138.02 405.64ZM1137.43 406.74L1135.24 408.01L1113.69 420.57L1113.55 420.65H1113.54L1113.14 420.89L1088.68 406.73L1099.62 400.41L1100.83 399.71H1100.86L1112.46 393L1113.04 392.66L1113.7 393.04L1137.43 406.74ZM1112.46 391.59L1100.86 398.28L1100.84 208.39L1112.5 215.1L1112.46 391.59ZM1024.05 296.48L1049.18 281.99L1086.21 303.34L1049.22 325.01L1047.73 324.14L1024.06 310.43L1022.82 309.71L1012 303.43L1022.81 297.19L1024.05 296.48ZM1022.81 295.76L1010.5 302.86L1010.44 302.91L1010.39 302.93C1010.39 302.93 1010.31 302.99 1010.28 303.03C1010.22 303.1 1010.18 303.19 1010.16 303.28C1010.15 303.31 1010.14 303.35 1010.15 303.38V303.44L1010.13 303.52L1010.08 509.09L960.29 480.33V318.68L1010.19 289.65L1011.43 288.93L1022.8 282.32V295.76H1022.81ZM1011.43 275.05L1022.18 281.25L1011.43 287.5L1010.19 288.22L959.67 317.61L947.43 310.53L946.19 309.81L870.92 266.25L894.72 252.96V260.48L946.19 290.07L947.43 290.79L971.73 304.76L971.83 304.82L972.1 304.95L972.35 304.83L972.44 304.78L997.98 290.16L998.23 290.02V267.43L1010.19 274.33L1011.43 275.05ZM979.33 255.1L978.09 255.81L972.1 259.22L947.43 245.05L946.19 244.34L927.93 233.85L926.69 233.13L896.57 215.83L920.93 201.69L946.19 216.33L947.43 217.05L996.36 245.41L979.33 255.1ZM996.98 246.48V289.3L972.71 303.19L972.73 260.28L979.32 256.53L980.57 255.82L996.98 246.48ZM925.45 233.85L926.7 234.56L946.19 245.76L947.43 246.47L971.48 260.28L971.46 303.19L947.43 289.36L946.19 288.65L895.96 259.75V216.91L925.45 233.85ZM1010.19 272.9L998.23 266.01V245.04L997.97 244.91L997.87 244.85L947.43 215.62V140.66L1010.19 104.5V272.9ZM934.02 60.01L1009.58 103.43L946.79 139.59L871.28 96.1801L934.02 60.01ZM870.65 97.25L946.19 140.66V214.9L921.2 200.42L920.95 200.25L895.1 215.26L894.98 215.32L894.72 215.46V251.53L870.65 265.38V97.25ZM870.65 267.52L946.19 311.23L947.43 311.95L947.54 312.01L959.06 318.68V479.61L947.68 473.04L947.58 414.32V413.94L947.37 413.79L947.23 413.7L883.14 376.59L882.79 376.42L870.65 383.44V267.52ZM869.41 385.59L870.65 384.88L882.81 377.84L945.72 414.26L934.13 421.02L883.49 391.57L882.89 391.21L870.65 398.21L869.41 398.92L844.16 413.35L843.23 413.88H843.24L869.41 429.1L870.65 429.82L882.53 436.73L882.87 436.93L896.89 428.84L884.12 421.47L895.73 414.83L920.18 429.02L883.17 450.3L870.65 443.1L869.41 442.39L820.19 414.08L869.41 385.59ZM894.41 428.84L883.49 435.16V422.54L894.41 428.84ZM845.71 413.89L869.41 400.34L870.65 399.63L882.25 393V435.15L870.65 428.4L869.41 427.69L845.71 413.89ZM819.56 415.15L869.41 443.83L870.65 444.54L882.56 451.39V509.67L857.03 524.37H857.01L856.9 524.45L856.66 524.61V525.01L856.56 598.58V598.71L856.57 599.06L856.59 613.93L856.63 641.79L844.64 634.83L844.39 634.67L819.52 648.93L819.56 415.15ZM818.76 370.09L781.43 391.86L781.45 363.19V362.79L781.2 362.65L781.07 362.57L755.99 348.11L756.07 171.52L818.76 135.49V370.09ZM768.45 120.32L792.57 134.32L756.25 155L768.45 120.32ZM749.45 131.03L750.07 129.25L755.72 112.91L767.04 119.5L767.36 119.69L766.89 121.02L754.78 155.44L743.36 148.66L749.45 131.03ZM747.81 131.98L742.01 148.75L741.87 149.21L754.59 156.76L754.86 156.93L755.11 157.09L795.04 134.33L769.52 119.51L780.94 112.95L818.14 134.41L755.45 170.45L718.24 148.96L747.81 131.98ZM717.54 149.99L754.83 171.52L754.75 347.4L717.46 325.91L717.54 149.99ZM704.62 334.71L728.33 348.39L716.48 355.24L710.52 358.63L704.62 361.98V334.71ZM665.79 356.29L691.11 370.93L691.41 371.03L711.12 359.71L727.83 350.12L730.81 348.4L705.25 333.64L716.8 326.95L754.75 348.82L755.99 349.53L779.58 363.13L767.92 369.83L755.98 362.93L744.89 356.53L742.75 355.29L742.42 355.1L702.9 377.72L728.52 392.49L716.67 399.33L654.21 362.97L665.79 356.29ZM780.21 364.2L780.19 392.59V394.02L780.03 613.8V614.23L768.44 620.94V620.54L768.53 400.83V370.93L768.55 370.92L780.22 364.2H780.21ZM767.36 429.58L767.2 621.25V621.67H767.19L746.73 633.44L746.24 633.72L742.96 635.6L742.88 593.53V591.19L743.02 356.89V356.86L755.98 364.36L764.11 369.06L767.29 370.9H767.3L767.33 401.52L767.36 429.58ZM705.39 377.72H705.38L733.38 361.69L741.78 356.88L741.65 590.5L730.02 583.91L730.36 392.85V392.15L705.39 377.72ZM729.13 393.57L728.79 583.85L717.32 590.46L717.29 401.09V400.41L729.13 393.57ZM653.59 364.06V364.04L683.64 381.54L716.05 400.41L716.08 591.18L703.9 598.2L653.17 568.89L653.59 364.06ZM640.44 413.94L640.31 413.87L621.48 403.09L620.23 402.37L589.3 384.66H589.29V141L651.92 104.91V568.79L640.52 575.48V562.22H640.54V561.51L640.68 414.51V414.08L640.44 413.94ZM576.56 583.82L575.32 583.1L538.37 561.66L537.13 560.94L513.35 547.15L523.25 541.39L523.74 541.1L523.86 541.03H523.87L524 540.95L524.48 540.67L526.47 539.51L526.93 539.24L537.13 533.35L538.37 532.63L563.18 518.29L575.35 525.31L576.59 526.03L613.93 547.58L615.17 548.3L626.64 554.92L627.88 555.64L638.66 561.86L627.88 568.09L627.26 568.45L627.22 568.48L626.64 568.81L615.19 575.43L614.45 575.86L614.41 575.89H614.38L613.96 576.14L588.6 590.8L576.56 583.82ZM587.97 591.89V679.46L537.86 650.03L537.61 649.89L512.67 664.37V548.19L537.13 562.39L538.37 563.1L575.32 584.55L576.56 585.27L587.97 591.89ZM435.66 288.27L435.99 288.46L436.28 288.63L436.77 288.91L473.23 310.03L474.29 310.66L474.47 310.58L474.58 310.51L474.68 310.44L511.26 289.38L511.36 289.32L511.85 289.04L512.11 288.89L512.5 288.67L512.6 288.61L517.94 285.54H517.95L518.44 285.25L518.7 285.1L519.19 284.82L526.78 280.45L520.79 276.99L520.3 276.71L520.05 276.56L519.55 276.27L512.5 272.2L511.26 271.48L474.47 250.22L473.23 249.5L444.16 232.7L448.21 230.37L473.23 244.8L474.47 245.51L511.26 266.73L512.5 267.44L523.68 273.89L524.17 274.18L524.43 274.33L524.92 274.61L536.44 281.25L524.75 288.04L524.26 288.32L524 288.47L523.52 288.76L512.6 295.1L512.5 295.16L512.11 295.39L511.85 295.54L511.36 295.83L511.26 295.89L474.47 317.28L473.89 317.6L473.23 317.24L436.81 296.15L435.54 295.42L397.68 273.5L396.44 272.78L385.51 266.45L396.44 260.16L397.68 259.45L435.19 237.86L435.51 287.93V288.19L435.66 288.27ZM436.42 236.29V235.71L436.39 229.65L436.44 229.68L441.68 232.7L442.16 232.98L442.3 233.06L442.42 233.13L442.92 233.42L473.23 250.9V308.59L436.76 287.46L436.68 287.41L436.43 237.15V236.29H436.42ZM474.43 309.16L474.47 251.61L511.26 272.89L512.5 273.61L518.33 276.98L518.82 277.27L519.07 277.42L519.56 277.7L524.3 280.44L517.95 284.1L517.46 284.38L517.21 284.53H517.2L516.71 284.81H516.7L512.6 287.18L512.5 287.24L512.11 287.46L511.85 287.61L511.36 287.89L511.26 287.95L474.43 309.16ZM615.07 437.89V429.28L615.06 428.84L614.82 428.7L614.71 428.64L612.01 427.1L611.36 426.73L610.81 426.42L608.94 425.35L595.77 417.83L594.52 417.12L589.29 414.13L588.05 413.42L576.9 407.06L576.67 406.93V393.67L587.22 399.69L587.71 399.97L587.97 400.12L588.05 400.16L589.29 400.87L606.11 410.47H606.12L607.36 411.18H607.37L626.64 422.17V553.49L615.17 546.87L615.08 449.13V437.89H615.07ZM613.93 546.16L576.6 524.61L576.64 451.73L612.33 431.13L613.83 430.27V438.11L613.93 546.16ZM608.61 410.47L607.36 409.75L589.3 399.45L589.29 399.44L588.81 399.17L588.55 399.02L588.06 398.74L576.68 392.24L576.37 392.06L576.07 391.88L575.44 392.24L562.02 399.99L574.42 407.06L574.92 407.35L575.17 407.49L575.44 407.65L575.66 407.77L576.68 408.35L588.06 414.85L589.3 415.55L593.29 417.83L594.54 418.54L613.21 429.2L576.02 450.66L551.05 436.34L550.55 436.05L550.3 435.91L549.81 435.62L538.38 429.07L537.89 428.79L537.76 428.72L537.63 428.64L537.14 428.36L513.4 414.74L524.97 408.08L537.11 415.03H537.13L537.62 415.33L537.88 415.47L538.37 415.75L549.81 422.3L550.12 422.48L550.29 422.58L550.55 422.73L551.04 423.01L575.77 437.17L576.01 437.31L590.07 429.2L564.16 414.39L563.67 414.11L563.42 413.96H563.41L562.92 413.68L551.07 406.91L551.05 406.89L550.58 406.63L550.55 406.61L550.31 406.47L549.83 406.19H549.82L539.02 400.01L544.86 396.64L546.1 395.93L549.82 393.78H549.83L550.31 393.5L550.55 393.35H550.58L551.05 393.07L551.07 393.05L576.18 378.57L588.05 385.37L588.54 385.65L588.8 385.8L589.28 386.08H589.29L618.99 403.08L620.23 403.79L638.81 414.43L627.25 421.11L608.61 410.47ZM575.43 393.67V406.28L564.5 399.98L575.43 393.67ZM512.49 384.48L512.41 384.44L500.08 377.28L498.84 376.57L474.55 362.48V318.69L511.26 297.33L511.36 297.27L511.85 296.98L512.11 296.83L512.5 296.6L512.6 296.54L524.75 289.48L525.23 289.19H525.24L525.49 289.04L525.97 288.76L534.94 283.54L537.04 282.32V295.18V296.61L537.07 354.63L537.09 355.97V413.61L537.08 413.6L525.18 406.78L524.94 406.64L512.7 413.69V385.03L512.71 384.63L512.47 384.48H512.49ZM510.88 384.96L474.55 405.79L473.74 406.25L473.3 406L423.89 377.44L461.01 356.06L473.23 363.14L473.3 363.18L474.55 363.9L497.61 377.27L498.85 377.99L510.88 384.96ZM550.55 421.3L550.3 421.16H550.29L549.81 420.88L538.37 414.32V401.07L538.39 401.08L549.81 407.61H549.83L550.3 407.89H550.32L550.56 408.04H550.59L551.05 408.32H551.08L561.69 414.4L562.19 414.68L562.44 414.82L562.93 415.11L587.59 429.2L576.02 435.89L551.37 421.77L551.05 421.59L550.88 421.48L550.62 421.34L550.57 421.37V421.31L550.55 421.3ZM538.47 349.64V297.43L549.82 304.01H549.83V355.1L549.82 392.35H549.81L544.85 395.22L543.62 395.93L538.48 398.97V349.64H538.47ZM538.47 296L538.3 295.9V281.3L538.29 280.9L538.04 280.76L537.91 280.68L537.23 280.29L526.15 273.9L537.23 267.51L538.47 266.79L550.4 259.91L587.45 281.26L550.45 302.94L538.47 296ZM588.06 383.95L576.46 377.3L576.21 377.13L551.08 391.63V304.01L588.06 282.35V383.95ZM588.05 280.18L550.64 258.62L550.4 258.48L538.47 265.36L537.23 266.08L524.91 273.18L512.5 266.02V97.59L537.23 111.8L538.47 112.51L588.05 141V280.18ZM396.44 274.2L397.68 274.92L435.55 296.84L436.82 297.57L473.23 318.65L473.3 318.69V361.75L473.23 361.71L461.29 354.78L461.03 354.61L422.43 376.86H422.41L422.1 377.03L422.05 377.29L422.04 377.38L422.02 377.49L421.98 377.75L399.42 508.12L384.9 516.5V267.52L396.44 274.2ZM400.53 508.92L400.81 507.32L423.12 378.41L473.05 407.29L461.69 472.98L461.46 474.29L449.13 545.55L436.02 531.94L435.69 531.59L422.65 539.09L422.6 539.12L397.79 524.76V524.74L400.53 508.92ZM462.61 474.95L462.75 474.17L462.84 473.64L473.3 413.2L474.3 407.42L474.55 407.28L511.49 386.09V415.08L511.47 501.7V517.32L474.55 538.7L473.3 539.42L453.99 550.6L450.21 546.68L462.61 474.95ZM473.3 540.84L474.55 540.12L512.38 518.23L512.69 518.03V503.83L536.5 517.56L474.55 553.47L463.13 560.09L454.87 551.51L473.3 540.84ZM512.69 502.4L512.72 415.78L512.77 415.81L537.13 429.78L537.52 430.01L537.62 430.06L537.75 430.14L537.88 430.21L538.04 430.3L538.13 430.35L538.27 430.43L538.37 430.49L549.8 437.05L550.29 437.33L550.54 437.47L551.04 437.76L575.39 451.73L575.37 485.27V490.08L575.35 523.89L563.48 517.04L563.45 517.02L563.19 516.87L538.43 531.16L538.37 531.2V517.22L538.12 517.08L537.99 517L537.18 516.53L512.69 502.4ZM589.21 591.89H589.22L613.96 577.58L615.13 576.9L615.19 576.87L616.56 576.07L626.64 570.25L627.88 569.53L639.28 562.93V738.07H639.27L614.85 723.84L614.5 723.67L589.37 738.32L589.22 684V680.38L589.21 591.89ZM627.88 554.21V422.17L639.45 415.5L639.37 560.84L627.88 554.21ZM575.88 60.35L613.8 82.14L588.79 96.73L551.07 74.7L551.03 74.6801L575.88 60.35ZM613.82 83.56V96.84L589.38 110.87L589.4 97.8L613.82 83.56ZM550.98 76.08L588.16 97.8L588.14 110.87L550.98 89.45V76.08ZM538.47 81.92L549.73 75.4301V90.16L588.4 112.43L588.52 112.5L588.77 112.63L589.01 112.5L589.12 112.45L614.79 97.72L615.06 97.58V82.86L651.44 103.77L588.65 139.93L538.47 111.08L537.23 110.37L513.14 96.52L537.23 82.63L538.47 81.92ZM537.23 81.2L511.63 95.94H511.61L511.52 96.01L511.26 96.1801V265.31L474.47 244.08V111.43L537.23 75.27V81.2ZM461.06 30.77L536.62 74.2L473.83 110.35L398.31 66.95L461.06 30.77ZM397.68 68.02L473.23 111.43V243.36L448.54 229.12L448.2 228.95L442.92 231.99L436.43 228.24L436.31 207.38H436.33L436.31 207.02L422.45 199.24L397.68 213.61V68.02ZM307.7 278.05L307.88 208.34L319.7 215.12V216.44L319.67 302.36L307.7 295.19V278.05ZM282.03 281.98L282.06 282L282.73 282.39L306.67 296.26L307.16 296.54L307.25 296.6L307.54 296.77L319.67 303.8L319.87 303.91L319.91 303.94L320.14 304.07L320.18 304.09L320.23 304.12L320.89 304.5L357.42 325.67L357.47 325.7L353.49 327.97L342.72 334.09L342.59 334.17L333.2 339.51L320.88 332.43L320.16 332.02H320.14L320.13 332L319.75 331.78H319.73L319.66 331.73L307.3 324.63L307.2 324.57L307.17 324.55L306.68 324.27L282.73 310.51L282.06 310.13L281.99 310.09L257.69 296.12L281.93 282.04L282.03 281.98ZM359.43 354.87L359.37 325.75V325.67L359.2 237.89V237.87L364.05 240.7L365.39 241.47L366.33 242.02L370.84 244.65V361.44L359.43 354.87ZM370.24 362.5L359.45 368.74L359.43 356.27L370.24 362.5ZM358.11 235.8L357.94 236.67V237.15L358.11 324.64L320.89 303.07L320.94 215.12L365.6 189.37L362.2 210.46L358.11 235.8ZM358.09 326.77V369.6L347.67 375.55L333.81 383.48L333.83 346.07V340.56L334.24 340.35L358.09 326.77ZM332.59 340.81V379.25L332.58 383.48L267.98 346.32L267.22 345.88H267.21L267.2 345.87L257.7 340.4L257.07 340.03V297.19L282 311.51L282.06 311.54L282.73 311.93L293.58 318.16L294.81 318.87L295.04 319.01L332.59 340.81ZM281.43 280.81V280.89L256.23 295.54L256.2 295.56L256.09 295.61L255.82 295.74V340.06L244.49 346.64L244.51 230.7V127.85L281.41 106.26L281.43 280.81ZM320.43 420.99L319.8 421.35V420.62L319.75 420.59L269.26 391.43L269.01 391.29L244.38 405.59V367.87L244.48 359.85V358.97L244.49 349.05L253.08 354H253.1L253.11 354.01L253.86 354.45H253.87L319.8 392.39V420.62L320.43 420.99ZM308.39 635.3L308.16 635.17L294.95 627.67L269.72 642.25V510.84L317.68 483.01L317.82 482.93L319.81 481.78H319.82V499.36L319.69 672.47L308.4 679V635.3H308.39ZM231.15 605.72L231.05 605.66L218.73 598.54V481.75L218.83 481.81L268.48 510.82V642.96L231.44 664.36L231.41 606.29V605.85L231.15 605.72ZM193.32 303.87L192.77 303.55L187.72 300.63L168.4 289.49L204.8 268.66V282.4L204.65 488.53V488.6L193.9 494.71L193.02 495.22L192.94 495.26L193.16 401.99L193.39 306.53V303.91L193.32 303.87ZM191.7 497.4L192.2 497.11L192.7 496.83L205.89 489.24L217.49 482.58V597.82L167.02 568.65L166.67 568.5L154.77 575.5V561.79L154.8 490.08L178.63 503.86L179.5 504.38L191.7 497.4ZM180.31 312.18L192.15 305.34V308.69L191.78 495.93L191.7 495.97L191.59 496.04L180.37 502.46L180.31 312.18ZM206.04 466.92V268.66L230.31 282.68H230.32L230.37 341.35L230.22 472.9V473.83H230.21L225.32 476.65L224.69 477.01L224.08 477.36L221.47 478.86L218.21 480.73L218.12 480.79L217.98 480.87L217.49 481.15L206.07 487.72L206.04 466.92ZM166.71 569.91L217.49 599.25L218.73 599.97L229.55 606.22L218.73 612.46L217.49 613.17L166.95 642.31L154.77 635.36L154.74 635.34V576.93L154.77 576.91L166.71 569.91ZM220.06 481.1L225.32 478.08L225.93 477.73L226.56 477.36L230.21 475.27L231.46 474.55L243.22 467.74L243.78 467.41L244.05 467.26L244.32 467.11L293.52 495.59L269.1 509.75L220.06 481.1ZM231.45 473.11V472.18L231.55 282.7L243.22 275.97L243.15 346.86V348.29L243.1 405.97V407.4L243.04 465.4V466.39L231.45 473.1H231.44L231.45 473.11ZM294.07 436.98V494.48L244.65 465.87L244.37 465.71V408.14L294.07 436.98ZM244.66 406.87L269.01 392.72L319.19 421.7H319.2L294.96 435.76H294.95L244.66 406.87ZM319.21 480.7L295.31 494.55V436.98L296.19 436.47L296.6 436.23L319.75 422.82L319.8 422.8L319.82 422.78V480.34L319.21 480.7ZM243.85 83.77L280.88 105.12L243.88 126.79L206.67 105.21L243.85 83.77ZM206.04 106.28L243.27 127.87V230.7L243.25 242.65V273.85L206.04 252.41V106.28ZM167.64 246.48L191.36 260.17L173.24 270.57L167.64 273.75V246.48ZM128.81 268.06L154.13 282.7L154.36 282.82L173.79 271.68L180.11 268.09L192.53 260.92L193.84 260.17L192.52 259.41L168.26 245.41L179.82 238.73L204.8 253.12L205.37 253.45L206.04 253.84L242.32 274.74L242.6 274.9L230.94 281.61L205.44 266.87L205.38 266.89L204.81 267.22L204.76 267.25L176.47 283.45L165.93 289.48L167.2 290.22L191.54 304.26L179.71 311.1L136.02 285.67L117.24 274.74L128.82 268.06H128.81ZM90.35 392.63L90.54 392.7L115.09 401.26L116.33 401.69L152.73 414.39L122.06 431.95L116.26 435.27L115.02 435.98L90.0599 450.28L57.79 419.14L56.87 418.25L52.67 414.2L89.3099 393.23L90.35 392.63ZM103.08 531.57L103 531.61L89.62 523.89L77.6801 517L77.4301 516.86L65.88 510.18L89.52 496.59L90.26 496.16L90.75 496.45L127.3 517.62L103.08 531.57ZM127.93 518.69L127.89 545.94V547.41L127.87 561.61L103.63 575.57V532.69L104.33 532.29L127.93 518.69ZM65.27 511.24L76.22 517.56L102.39 532.68L102.31 575.53L65.27 554.16V511.24ZM64.38 509.6L64.29 509.66L64.03 509.81V524.6L52.48 531.28L52.28 422.31V415.54L52.3 415.57L55.75 418.89L56.67 419.78L89.35 451.31L89.51 495.16L64.38 509.6ZM89.3099 391.78L52.3 412.99V304.37L89.3099 282.69V391.78ZM51.03 509.46L13.85 488V282.79L51.0699 304.37L51.03 509.46ZM14.46 281.7L51.66 260.26L88.6801 281.63L51.6899 303.29L14.46 281.7ZM51.25 533.42L52.49 532.7L64.03 526.03V554.89L102.17 576.87L103.03 577.39L103.83 576.91L129.11 562.32L129.13 548.13L150.99 560.75L152.92 561.86L102.84 590.81L27.54 547.12L51.25 533.42ZM128.85 649.89L128.72 649.81L115.65 642.26L103.47 649.3V591.87L153.53 562.93V738.02H153.52L129.25 723.88L129.09 650.44V650.03L128.85 649.89ZM128 723.15L115.87 716.09L103.47 723.28L88.75 731.81L65.37 745.35V718.14V687.81L102.22 666.36L103.46 665.64L127.83 651.45L127.99 723.15H128ZM26.9301 548.19L102.23 591.89V650.02L90.08 657.04L78.05 650.13V621.05C78.05 621 78.04 620.95 78.03 620.9C78.02 620.86 78.01 620.82 77.99 620.78C77.98 620.73 77.95 620.69 77.91 620.65C77.88 620.61 77.84 620.58 77.8 620.55C77.78 620.53 77.76 620.51 77.74 620.5L64.66 612.93L26.9301 634.67V548.19ZM1.41003 842.02L1.21997 651.61L12.91 658.33V663.59L12.85 716.98L13 848.74L1.41003 842.02ZM14.24 849.47L14.14 658.32L38.41 644.29L38.45 700.95V702.4L38.5699 863.46L14.24 849.47ZM51.3099 679.4L51.0699 679.54L51.4399 870.85L39.8099 864.17L39.6899 703.13V701.67L39.65 644.29L40.77 644.93L76.05 665.13L63.65 672.28L51.3099 679.4ZM64.14 701.39L64.09 878.09L52.76 871.61L52.38 710.54V709.09L52.3099 680.98L59.25 684.99L64.14 687.81V701.39ZM52.9301 679.9L67.01 671.77L78.54 665.12L64.3 656.97L60.51 654.8L39.27 642.65L39.03 642.5L35.36 644.62L26.9301 649.49L25.6899 650.21L13.52 657.24L1.85999 650.54L25.6899 636.81L26.9301 636.1L64.64 614.37L76.2 621.04L50.62 635.8L71.26 647.66L89.84 658.34L90.08 658.48L102.23 651.46L103.47 650.74L115.65 643.7L127.23 650.38L103.47 664.21L102.23 664.93L64.76 686.74L52.9301 679.9ZM76.8199 622.12V649.39L71.91 646.6L64.96 642.66L53.1 635.8L76.8199 622.12ZM102.37 900.37L66.17 879.3L65.25 878.75L65.37 747.62L102.37 768.94V900.37ZM103 767.86L99.8099 766.02L65.95 746.45L89.98 732.52L91.22 731.81L102.24 725.42L103.48 724.7L115.88 717.52L128.01 724.59L129.26 725.32L151.88 738.49L152.91 739.09L151.81 739.72L129.32 752.69L103.01 767.86H103ZM153.58 871.6L103.6 900.38V768.94L129.32 754.17L153.59 740.23V871.6H153.58ZM153.57 487.94V489.37L153.53 560.78L150.77 559.19L129.13 546.66L129.17 517.68V517.28L128.92 517.14L128.79 517.06L90.75 495.02L90.67 473.84L90.59 451.41L115.01 437.42L116.26 436.71L153.6 415.31L153.57 487.94ZM154.62 413.8C154.62 413.8 154.6 413.76 154.58 413.75L154.47 413.68H154.44C154.44 413.68 154.42 413.66 154.41 413.66L116.34 400.38L116.61 275.81L117.04 276.06L179.07 312.18L179.1 502.7L154.8 488.65L154.84 414.25C154.84 414.25 154.81 414.16 154.8 414.11V414.07C154.8 414.07 154.79 414.06 154.79 414.05C154.76 413.98 154.73 413.92 154.68 413.87C154.66 413.84 154.65 413.82 154.62 413.8ZM154.77 738.01H154.76L154.74 636.77L154.77 636.79L166.33 643.39V731.31L155.37 737.67L154.77 738.01ZM179.24 856.19L154.83 842.09V740.21L154.84 740.17L179.24 754.14L179.28 754.16V856.22L179.24 856.19ZM179.28 752.73V752.83L179.24 752.81L155.38 739.09L155.41 739.07L179.24 725.42L179.29 725.39V752.73H179.28ZM179.95 679.38H179.33L179.24 709.27V723.99L167.55 730.68L167.57 643.39L217.49 614.61L218.73 613.9L230.17 607.3L230.2 665.34V679.5L179.95 679.38ZM228.87 680.73L180.48 708.51L180.56 680.62L228.87 680.73ZM217.75 745.9L217.49 746.05V834.7C204.3 842.28 185.13 853.35 180.53 856.24C180.51 856.25 180.5 856.26 180.48 856.27V709.99L230.14 681.44L230.2 681.4V738.7L229.88 738.89L217.88 745.83L217.75 745.9ZM255.89 812.37V870.88L218.73 849.49V747.47L229.81 753.87L230.19 754.09L231.47 754.84L231.58 754.9L255.9 768.96V812.37H255.89ZM256.5 767.89L231.58 753.48L231.48 753.42L230.19 752.67L229.82 752.46L219.34 746.4L229.87 740.31L230.2 740.12L231.49 739.37L231.58 739.32L243.62 732.36L280.79 753.92L256.5 767.89ZM281.42 856.76L257.12 870.87V814.45V813.08V768.97L281.41 754.99V856.76H281.42ZM294.3 834.39L282.64 827.7V753.58L282.42 753.43L282.3 753.35L243.89 731.09L243.64 730.92L231.58 737.9L231.5 737.95V680.52V666.36L268.48 687.74L269.72 688.45L293.66 702.26L294.15 702.54L294.28 702.62H294.3V834.39ZM370.89 922.68L346.6 908.61V821.48L370.92 835.51H370.95L370.89 922.68ZM434.8 886.37L372.13 922.68L372.16 835.25L384.77 798.64L434.8 769.75V886.37ZM409.87 754.61L434.17 768.68L420.31 776.69L384.27 797.51H384.25L359.93 783.46L409.87 754.61ZM359.04 784.38L359.36 784.56L383.51 798.49H383.52L374.21 825.49L371.2 834.24L365.41 830.9L346.73 820.12L352.5 803.37L353.11 801.6L358.12 787.05L359.04 784.38ZM358.12 783.27L358.09 783.36L358.04 783.5L351.48 802.53L295.52 834.4V702.61L320.92 687.95L358.12 666.47V783.27ZM346.09 658.64L357.63 665.3L320.92 686.53L320.43 686.81L320.29 686.89L320.17 686.96L319.68 687.24L298.02 699.77L294.99 701.52H294.97L269.72 686.98L268.48 686.27L233.83 666.33L232.14 665.36L268.48 644.38L269.72 643.67L294.95 629.1L306.66 635.73L269.72 657.06L268.48 657.77L256.33 664.79L255.3 665.36L268.48 672.97L269.72 673.68L294.64 688.07L294.89 688.24L301.88 684.18L319.69 673.89L320.18 673.61L320.3 673.54L320.44 673.45L320.93 673.17L346.09 658.64ZM307.16 636.89V679.67L294.91 686.8L269.72 672.25L268.48 671.53L257.79 665.36L268.48 659.19L269.72 658.48L278.84 653.22L307.16 636.89ZM320.75 391.13L320.43 391.32H320.42L255.11 353.73H255.1L254.35 353.29H254.33L254.32 353.28L244.87 347.84L256.44 341.13L265.95 346.6H265.96L266.73 347.04L332.05 384.59L320.75 391.13ZM370.88 495.08L321.06 523.79V488.64V481.41V480.31L321.04 420.63L320.99 420.66L321.04 392.39L350.04 375.63L358.22 370.9L358.71 370.62L358.84 370.55L358.97 370.47L359.33 370.26L359.46 370.19L365.79 366.53L370.84 363.61L370.88 407.47V495.08ZM371.47 243.57L359.27 236.48L367.25 187.01L347.3 198.5L320.32 214.04L308.66 207.36L371.21 171.28L383.55 178.24L376.56 227.3L396.45 215.76L397.69 215.04L422.49 200.65L434.36 207.38L397.69 228.49L396.45 229.2L371.48 243.57H371.47ZM383.59 186.64V221.72L378.13 224.96L383.59 186.64ZM372.13 405.79V386.51V373.56V361.43L372.12 361.42L372.09 251.34V244.64L396.45 230.68L397.69 229.97L435.04 208.56L435.15 227.49L435.19 236.44L397.69 258.02L396.45 258.74L384.06 265.87H384.04L383.67 266.1V399.12L372.14 405.79H372.13ZM384.23 518.34L385.46 517.62L399.14 509.72L396.66 524.09L396.5 525.01L396.4 525.37L421.37 539.83L409.82 546.48L372.77 524.95L384.23 518.34ZM372.14 526.02L408.61 547.17L372.08 568.19L372.14 526.02ZM434.74 752.72L372.05 716.39V570.81L372.08 570.84L434.77 635.79L434.74 752.72ZM435.5 634.76L435.15 634.4L372.43 569.42L409.85 547.89L410.33 547.61L410.46 547.53L410.56 547.48L411.05 547.19L422.6 540.55L422.65 540.52L423.09 540.27L423.35 540.12L423.84 539.84L423.89 539.81L435.46 533.15L448.87 547.07L449.29 547.51L449.52 547.75L449.95 548.2L452.88 551.24L462.02 560.73L462.37 561.1L462.56 561.29L462.91 561.65L464.41 563.21L467.48 566.4L498.45 598.55L435.5 634.76ZM498.65 716.51L435.97 752.72L436.01 635.9L498.83 599.76L498.65 716.51ZM499.27 597.61L471.49 568.72L468.44 565.54L468.41 565.52L464.06 560.99L537.13 518.63V531.87L528.89 536.67L527.83 537.29L511.8 546.55L511.69 546.62L511.43 546.79V665.09L499.96 671.76L500.07 601.13V598.98L500.05 598.41L499.74 598.1L499.27 597.61ZM549.91 819.34L499.95 790.48L499.99 673.89L549.91 702.89V819.34ZM550.53 701.82L500.6 672.82L537.61 651.32L587.22 680.47L550.53 701.82ZM562.95 753.74V812.54L551.15 819.34V702.89L587.62 681.67L587.97 681.47V739.13L563.21 753.57L562.95 753.74ZM601.03 907.96L564.17 886.58V813.26L564.18 811.82V755.18V755.15L588.2 769.07L589.44 769.78L601.02 776.49V907.96H601.03ZM601.66 775.42L589.45 768.35L588.21 767.63L564.79 754.08L588.14 740.47L588.71 740.14L589.02 739.96H589.03L589.37 739.76L591.16 738.71H591.17L614.52 725.1L637.52 738.48L638.36 738.97L639.27 739.5L639.63 739.71H639.64L640.51 740.22L651.56 746.65L640.51 753.02L639.27 753.74L601.66 775.42ZM652.18 879.14L602.27 907.95V776.5L639.27 755.18L640.51 754.46L652.18 747.73V879.14ZM653.42 849.64V747.64L664.77 754.22V856.28L653.42 849.64ZM664.78 725.41V752.78L664.77 752.79L652.08 745.44L641.13 739.09L652.09 732.74L656.7 730.08L664.78 725.4V725.41ZM640.52 738.01V636.79L652.09 643.39V731.32L640.52 738.01ZM664.92 710.61V723.9L664.78 723.98L662 725.59L653.32 730.6V643.39L664.92 636.7L664.89 679.33L664.92 710.61ZM665.28 620.47L665.19 620.53L664.93 620.7V635.26L652.7 642.31L640.52 635.36L640.49 635.34V576.93L651.94 570.21L652.46 569.91L702.66 598.92L701.41 599.64L665.28 620.47ZM666.16 635.99V622.11L676.96 628.32H676.97L677.83 628.82V629.26L677.8 679.33H666.13L666.16 635.99ZM714.37 680.57L679.17 700.94H679.15L679.12 700.97L677.93 701.67H677.91L666.25 708.41L666.17 708.46L666.25 680.57H714.37ZM716.22 827.24L715.07 827.9C711.21 830.09 700.95 835.9 690.8 841.76C683.35 846.05 677.44 849.48 673.22 851.96C669.01 854.42 667.1 855.58 666.16 856.17V709.89L666.25 709.84L667.7 709L677.91 703.1H677.93L679.17 702.39L716.1 681.08V738.89L716.08 738.91V740.34L716.22 740.26V827.24ZM717.18 643.72L716.27 650.23V669.9L716.29 679.33H679.03L679.07 628.8L715.52 607.8L715.92 607.57L717.34 606.75L723.74 603.06L717.35 642.67L717.18 643.72ZM717.6 812.34L717.33 651.73V651.56L717.48 651.65L728.98 658.33L729.01 819.08L717.6 812.34ZM718.73 650.95H718.71L717.42 650.27V650.2L725.35 600.46L717.32 605.09L715.92 605.86L678.22 627.6L666.79 621.04L702.64 600.35L703.89 599.63L705.13 598.91L715.92 592.78L717.32 591.88L728.79 585.26L729.33 584.95L730.02 585.34L741.65 591.91V592.13L741.56 592.74L734.89 639.6L734.8 640.33L734.59 641.87L742.73 637.17L742.86 637.1L767.19 623.11L768.44 622.39L781.03 615.1L781.31 614.93L792.3 621.14L729.7 657.32L718.73 650.95ZM741.64 601L741.62 635.46V636.44L738.6 638.16L737.73 638.66L736.24 639.51L741.64 601ZM779.92 671.65L779.66 671.8V672.2L779.74 790.75L730.25 819.15L730.22 658.6L792.85 622.38V664.23L780.03 671.58L779.92 671.65ZM781.04 878.83L780.9 673.22L817.74 694.8L818.04 900.46L781.04 878.83ZM818.37 693.73L781.53 672.15L818.28 651.07L819.52 650.36L844.37 636.11L856.63 643.22L857.87 643.94L881.6 657.7H881.61L857.92 671.21L818.37 693.73ZM882.15 730.47V731.9L882.01 864.16L819.36 900.48L818.99 694.81L857.92 672.62L882.22 658.78L882.15 730.47ZM920.64 752.71L883.39 731.19L883.46 660.73V657.87C883.51 657.72 883.49 657.55 883.41 657.41C883.36 657.32 883.29 657.25 883.2 657.2L882.97 657.07L857.87 642.51L857.83 614.64V613.22L857.81 599.77L884.61 615.18L920.4 635.76L920.62 635.89V650.67L920.64 723.61V752.72L920.63 752.71H920.64ZM921.14 634.76L858.18 598.55L902.88 552.12L903.74 551.23L921.16 533.14L958.37 554.55L958.4 554.57L959.6 555.26L959.64 555.28L960.29 555.66L984.21 569.42L971.04 583.07L970.18 583.96L921.64 634.24L921.14 634.76ZM921.86 635.8L971.04 584.86L971.9 583.96L984.59 570.82L984.65 671.39V686.1L959.98 671.84L959.64 671.67L946.72 679.18L946.63 679.24L946.36 679.42V679.81L946.22 708.89L921.89 722.89L921.86 635.8ZM947.6 680.83L971.16 694.55L947.47 708.18L947.6 680.83ZM934.78 966.9V731.78L984.55 702.87V716.42V717.84L984.57 777.79V790.93L984.63 937.54L934.77 966.9H934.78ZM985.84 701.49H985.83L985.53 701.31L985.41 701.24L985.18 701.13L984.92 701.26L984.81 701.31L984.63 701.41L984.59 701.44L934.15 730.71L922.51 723.95L946.22 710.32L972.9 694.98L972.93 694.96L973.63 694.56L948.23 679.76L959.66 673.09L984.64 687.53L985.39 687.97L985.83 688.22H985.84L1022.24 709.27L1010.84 715.9L985.84 701.49ZM1011.45 951.79V806.44L1011.44 805.01V716.98L1022.87 710.34L1022.93 811.65V813.08L1023.01 945.13L1011.45 951.79ZM1035.78 730.53H1035.77V819.06L1024.16 812.36L1024.11 709.33V708.93L1023.86 708.79L1023.73 708.71L985.85 686.8V673.62L990.01 676.04L1010.21 687.77L1011.45 688.49L1035.78 702.62V730.53ZM1036.4 701.55H1036.39L1011.45 687.07L1010.21 686.35L986.47 672.55H986.48L1010.21 658.76L1011.45 658.04L1023.48 651.05L1073.5 679.94L1036.4 701.55ZM1048.61 768.15V812.38L1037.02 819.06H1037.01V702.62H1037.02L1074.11 681.03L1074.15 752.97V753.38L1049 767.95L1048.61 768.15ZM1086.9 922.45L1049.85 900.88V769.6L1074.16 783.66L1075.39 784.36L1086.9 791.02V922.45ZM1087.52 789.93L1075.39 782.92L1074.16 782.21L1050.47 768.52L1074.15 754.8L1075.72 753.89L1086.75 747.5L1087.99 746.78L1100.39 739.6L1136.4 760.56L1137.43 761.16L1136.34 761.79H1136.33L1087.52 789.93ZM1138.05 893.64L1088.14 922.45V791.01L1122.83 771.01L1138.05 762.24V893.64ZM1138.06 760.1L1100.71 738.35L1100.39 738.17L1087.99 745.36V613.96L1138.06 585.01V760.1ZM1138.12 450.05V480.94L1138.06 570.12V582.86L1135.21 581.22L1113.66 568.75L1113.69 539.77V539.35L1113.45 539.2L1113.31 539.13L1075.28 517.09L1075.11 473.48L1100.24 459.09L1101.48 458.38L1125.87 444.41H1125.88L1127.12 443.7L1138.13 437.39V450.05H1138.12ZM1139.11 435.79L1139.02 435.76L1124.24 430.6H1124.21L1138.66 422.27L1138.71 422.24H1138.73L1150.67 429.15L1151.91 429.87L1163.03 436.29H1163.04L1160 438.06L1158.98 438.64L1158.76 438.77H1158.75L1139.36 449.97V436.39L1139.37 435.87L1139.11 435.79ZM1139.26 407.62V406.8L1139.38 201.14L1175.65 221.9L1151.3 235.96L1150.92 236.18L1150.67 236.32V427.72L1139.33 421.17V421.23L1139.25 421.18V421.12L1139.33 421.17L1139.26 407.62ZM1163.41 554.05L1139.29 567.96V451.44L1139.36 451.4L1155.37 442.16L1159.99 439.49L1161.22 438.77L1163.41 437.51L1163.44 437.49L1163.41 554.05ZM1163.48 244.42L1163.41 435.09L1151.91 428.44V237.75L1158.13 241.33L1163.48 244.41V244.42ZM1152.53 236.67L1178.14 221.89L1138.87 199.42L1138.63 199.28L1113.13 214.03L1101.46 207.32L1112.38 201.03L1113.48 200.4L1113.63 200.32L1154 177.04L1164.25 171.14L1175.8 177.82L1150.22 192.58L1189.41 215.09L1189.66 215.26L1215.25 200.47L1226.83 207.15L1164.1 243.33L1152.53 236.67ZM1176.42 178.89V206.17L1152.7 192.58L1176.42 178.89ZM1164.82 553.24L1164.66 553.33L1164.68 436.78V435.34L1164.7 292.68V244.41L1164.72 244.4L1227.41 208.24V320.56L1227.38 416.47V427.89L1227.37 429.32L1227.35 487.78H1227.33L1202.44 502.15C1202.29 502.23 1202.19 502.36 1202.14 502.5C1201.98 502.68 1202.02 503.06 1202.02 503.3V531.77L1164.82 553.24ZM1253.04 874.49H1253.03L1190.24 838.59L1190.3 651.88L1202.02 658.66L1203.26 659.38L1253 688.18L1253.03 688.13V688.2H1253.04V874.49ZM1254.28 874.48V688.2L1265.78 681.42V681.45L1265.82 731.41V732.82L1265.94 867.86L1254.28 874.48ZM1278.6 673.37H1278.59V724.11H1278.6V859.66H1278.59L1267.14 853.43L1267.1 732.09V730.68L1267.08 680.69V680.09L1266.49 679.74L1254.24 672.67L1253 671.96L1228.66 657.9V644.45L1253 658.54L1254.24 659.26L1278.59 673.36H1278.6V673.37ZM1291.43 716.78V718.2L1291.39 853.08L1279.84 859.63H1279.83V673.37H1279.84L1291.44 666.7V716.78H1291.43ZM1304.16 845.02L1292.63 838.18L1292.67 683.54V665.27L1292.06 664.92L1254.24 643.11L1254.21 643.09H1254.2C1254.2 643.09 1254.16 643.04 1254.16 643V629.91C1254.16 629.86 1254.19 629.83 1254.24 629.82C1254.26 629.8 1254.29 629.8 1254.32 629.82L1304.3 658.7L1304.16 845.02ZM1305.1 657.48L1304.24 656.99L1260.2 631.78L1254.24 628.37L1253.9 628.17H1253.88L1253.78 628.1L1253.7 628.06L1253.51 627.97L1253.3 628.09H1253.28L1253.18 628.16L1253 628.27L1239.69 635.96C1239.62 636 1239.62 636.09 1239.69 636.14L1253 643.82L1254.24 644.54L1290.81 665.63L1279.23 672.28H1279.21L1254.24 657.83L1253 657.11L1228.35 642.84L1227.95 642.72L1227.79 642.82H1227.78L1227.68 642.88L1214.74 650.39L1213.82 650.93L1215.03 651.63L1215.13 651.69L1227.92 658.93L1253 673.39L1254.24 674.1V674.15L1265.13 680.41L1254.24 686.78L1253.65 687.13L1253 686.75L1203.26 657.95L1202.02 657.24L1190.92 650.81L1202.02 644.4L1203.26 643.68L1253 614.95L1253.59 614.61L1254.24 614.99L1304.25 643.88L1305.49 644.6L1316.34 650.87L1305.48 657.26L1305.1 657.48ZM1252.92 629.92V642.17C1252.92 642.23 1252.87 642.27 1252.81 642.27C1252.8 642.27 1252.79 642.27 1252.78 642.26H1252.76L1246.19 638.46L1242.17 636.14L1242.01 636.05L1242.17 635.96L1242.71 635.65L1252.83 629.83C1252.88 629.83 1252.92 629.87 1252.92 629.92ZM1227.42 644.45V657.22L1216.3 650.92L1227.42 644.45ZM1305.74 844.81L1305.66 658.59L1316.87 651.98L1316.94 651.94L1316.96 694.69L1317.04 838.33L1305.74 844.81ZM1317.26 575.59H1317.24L1317.13 575.66L1316.87 575.81V649.77L1305.49 643.19L1305.56 547.31L1356.41 518.01L1356.65 517.87V503.78L1368.51 510.68L1368.66 510.76C1368.85 510.85 1369.08 510.86 1369.28 510.74L1393.74 496.77V532.18L1317.26 575.59ZM1318.12 693.92H1318.11V577.24L1380.72 613.47L1380.81 730.15L1318.12 693.92ZM1381.43 612.35L1318.74 576.15L1393.74 533.6L1394.43 533.21L1394.98 533.53L1406.64 540.24L1407.88 540.95L1457.38 569.44L1407.88 597.4L1406.64 598.1L1404.84 599.12L1403.59 599.83L1383.9 610.95L1381.43 612.35ZM1444.94 694.97L1382.04 730.16V613.42L1404.79 600.52L1406.04 599.81H1406.05L1406.64 599.48L1407.88 598.77L1457.74 570.51V577.84L1457.6 673.6L1444.94 686.74V694.97ZM1508.85 841.2L1446.18 805L1446.02 695.78V688.25L1446.01 688.24L1451.41 691.35L1452.66 692.06L1508.83 724.38L1508.93 767.82L1508.85 841.2ZM1509.33 723.24L1453.91 691.36L1452.67 690.65L1446.38 687.03L1457.6 675.38L1458.82 674.11L1509.37 621.63L1521.72 628.74L1522.96 629.45L1534.58 636.14L1535.82 636.85L1559.92 650.72L1560.11 650.83L1561.15 651.42L1561.36 651.55L1563.55 652.81L1564.8 653.53L1572.4 657.9L1564.68 665.9L1509.33 723.24ZM1573.54 597.79L1573.52 597.81L1572.94 598.15V672.09V672.08L1572.92 763.88V804.95L1510.1 841.2L1510.06 724.27L1565.8 666.54L1572.94 659.14V656.78L1566.04 652.81L1564.79 652.09L1561.36 650.12L1561.02 562.33L1564 564.06L1585.66 576.61V576.76L1585.72 590.77L1573.56 597.79H1573.54ZM1574.17 599.58H1574.18L1585.65 606.29V756.23L1574.21 762.85L1574.19 648.08H1574.17V599.58ZM1611.34 797.73L1611.32 888.39L1574.19 867.01V764.99H1574.21L1585.65 771.62L1586.89 772.33L1598.51 779.05L1599.75 779.77L1611.34 786.47V797.73ZM1611.97 785.41L1611.37 785.06L1599.75 778.34L1598.51 777.63L1586.89 770.91L1585.65 770.19L1574.81 763.92L1585.65 757.65L1586.89 756.93L1598.51 750.21L1599.08 749.88L1599.75 750.27L1611.37 757.01L1612.6 757.73L1636.24 771.45L1612.6 785.05L1611.97 785.41ZM1612.57 888.38L1612.59 798.44V786.49H1612.6L1636.81 772.56V782.33L1636.82 783.77L1636.87 874.29L1612.57 888.38ZM1649.59 774.96L1638.06 781.61V771.09L1637.73 770.89L1612.6 756.3V591.44L1623.84 584.93L1636.93 577.35L1637.3 577.14L1638.16 576.64L1638.54 576.42L1649.54 570.04V600.1L1649.59 679.95V774.96ZM1649.89 553.6L1649.79 553.66L1649.54 553.78V558.74V567.84L1638.17 561.28L1638.3 348.91L1649.89 355.58L1651.12 356.29L1713.85 392.4V517.17L1713.73 517.24L1651.12 552.9L1650.77 553.1L1649.96 553.56L1649.89 553.6ZM1739.4 738.43L1739.14 738.61V885.98L1727.56 892.62V732.08L1726.32 732.8V893.2L1650.94 848.62L1650.91 848.65L1650.84 703.09V680.76L1650.79 599.38V567.9L1650.77 555.42L1651.12 555.69L1682.34 579.67L1683.41 580.49L1713.86 603.87L1715 604.74L1726.32 613.44V731.38L1727.56 730.66V613.5L1751.86 599.5L1753.1 598.78L1764.94 591.96L1766.17 591.25L1790.32 577.34V709.09L1765.12 723.62L1765.02 723.69L1764.76 723.88V724.25L1764.72 737.76L1753.1 731.11L1752.62 730.85L1739.5 738.36L1739.4 738.43ZM1766 725.25L1790.32 739.16L1791.56 739.87L1815.21 753.39L1803.63 760.07L1791.56 753.18L1790.32 752.47L1765.96 738.56L1766 725.25ZM1803.01 789.38V790.82L1802.92 936.56L1740.38 900.76V739.99L1751.86 746.57L1753.1 747.28L1790.32 768.62L1791.56 769.33L1803.02 775.9V789.38H1803.01ZM1804.16 936.56L1804.25 791.53V775.89L1828.64 761.83L1829.88 761.12L1841.44 754.45V756.83L1841.48 797.51V798.94L1841.57 902.08V915.21L1804.16 936.56ZM1854.26 907.91L1842.81 901.36L1842.72 798.23V796.8L1842.68 753.93V753.02L1842.43 752.88L1842.32 752.81L1829.88 745.71V745.73L1828.64 745.03V745L1804.29 731.1V717.84L1828.64 731.73L1829.88 732.44L1854.26 746.34V907.91ZM1829.88 731.02L1829.02 730.52L1828.64 730.31L1803.97 716.23H1803.94V716.21L1803.66 716.06L1803.05 716.41L1791.56 723.05L1790.32 723.77L1789.63 724.17L1790.32 724.56L1791.56 725.27L1803.05 731.83L1828.64 746.43L1829.88 747.13L1840.83 753.38H1840.82L1829.88 759.69L1828.64 760.41L1803.63 774.82L1791.56 767.9L1790.32 767.19L1753.1 745.85L1751.86 745.14L1741.01 738.92L1751.86 732.65L1752.57 732.24L1753.1 732.54L1790.32 753.87L1791.56 754.58L1803.33 761.32L1803.68 761.45L1817.7 753.36L1791.56 738.43L1790.32 737.72L1766.63 724.19L1790.32 710.52L1791.56 709.81L1803.79 702.75L1828.64 716.98L1829.88 717.69L1866.43 738.61L1854.87 745.27L1829.88 731.02ZM1803.05 717.85V730.39L1792.12 724.15L1803.05 717.85ZM1867.04 782.85V784.28L1866.98 901.22L1855.5 907.88V746.34L1867.06 739.68L1867.04 782.85ZM1892.65 768.17L1868.27 782.15L1868.3 738.67V738.29L1868.04 738.11L1867.94 738.04L1829.88 716.25V525.04L1892.64 488.89H1892.65V768.17ZM1918.04 686.05L1893.89 699.74H1893.88V487.47L1893.26 487.11L1892.83 486.86L1868.41 472.68H1868.4V326.44H1868.41L1918.04 297.36V686.05Z" fill="#1E1C3C"/>
<path d="M1625.09 568.69L1623.85 567.98L1599.78 554.15L1599.65 554.07L1598.41 553.35L1586.46 546.45L1586.21 546.31L1572.32 554.21L1611.67 576.94L1611.98 577.12L1623.85 570.19L1624.53 569.8L1625.09 569.47L1625.76 569.08L1625.09 568.69ZM1585.67 547.93V560.49L1574.78 554.2L1585.67 547.92V547.93ZM1623.29 569.09L1611.98 575.69L1586.95 561.24V547.91L1598.54 554.6L1623.47 568.99L1623.29 569.1V569.09Z" fill="#1E1C3C"/>
</g>
<defs>
<clipPath id="clip0_139_578">
<rect width="1919.31" height="968.6" fill="white"/>
</clipPath>
</defs>
</svg>
