<svg width="280" height="265" viewBox="0 0 280 265" fill="none" xmlns="http://www.w3.org/2000/svg">
<path d="M0.979736 60.27L15.8896 153.61L104.56 187.79L90.0398 94.3L0.979736 60.27Z" fill="white"/>
<path d="M177.68 128.96L104.56 187.79L90.0398 94.3L163.16 35.47L177.68 128.96Z" fill="white"/>
<path d="M1.42969 60.4399L75.1396 1.12988L163.16 35.47L90.0398 94.3L1.42969 60.4399Z" fill="white"/>
<path d="M163.09 34.99L75.2898 0.73999L75.0698 0.659912L1.73975 59.6599L1.15967 60.1299L0.969727 60.28L15.5098 153.92L104.18 188.1L104.62 188.27L104.99 187.97L177.93 129.29L178.11 129.14L163.52 35.1799L163.08 35.01L163.09 34.99ZM104.04 187.15L16.2598 153.31L1.65967 60.77L89.6797 94.6001L104.05 187.15H104.04ZM89.7698 93.77L1.94971 60.25L2.33984 59.9399L75.2197 1.6001L162.35 35.6001L89.9697 93.8401L89.7798 93.77H89.7698ZM177.23 128.78L104.85 187.02L90.4797 94.48L162.86 36.24L177.23 128.78Z" fill="#1F1C3D" stroke="#1F1C3D" stroke-miterlimit="10"/>
<path d="M36.6003 61.5588C42.3034 60.6739 46.49 57.1426 45.9514 53.6716C45.4129 50.2006 40.353 48.1041 34.6499 48.989C28.9467 49.8739 24.7601 53.4052 25.2987 56.8762C25.8373 60.3472 30.8971 62.4437 36.6003 61.5588Z" fill="#1F1C3D"/>
<path d="M78.0521 26.1618C83.7553 25.2769 87.9419 21.7459 87.4034 18.2749C86.8648 14.8039 81.8049 12.7074 76.1018 13.5923C70.3986 14.4772 66.212 18.0085 66.7506 21.4795C67.2892 24.9505 72.349 27.0468 78.0521 26.1618Z" fill="#1F1C3D"/>
<path d="M85.3751 79.1808C91.0783 78.2959 95.2649 74.7649 94.7263 71.2939C94.1878 67.8229 89.1279 65.7264 83.4248 66.6113C77.7216 67.4962 73.5348 71.0275 74.0733 74.4985C74.6119 77.9695 79.672 80.0658 85.3751 79.1808Z" fill="#1F1C3D"/>
<path d="M126.818 43.7954C132.522 42.9105 136.708 39.3792 136.17 35.9082C135.631 32.4372 130.571 30.3409 124.868 31.2258C119.165 32.1108 114.978 35.6418 115.517 39.1128C116.055 42.5838 121.115 44.6803 126.818 43.7954Z" fill="#1F1C3D"/>
<path d="M164.751 125.208C166.306 119.84 164.476 114.592 160.662 113.487C156.848 112.382 152.495 115.838 150.939 121.206C149.384 126.574 151.214 131.822 155.028 132.927C158.842 134.032 163.195 130.577 164.751 125.208Z" fill="black"/>
<path d="M122.435 111.418C123.99 106.049 122.159 100.802 118.345 99.6963C114.531 98.5911 110.178 102.047 108.623 107.415C107.067 112.784 108.898 118.031 112.712 119.137C116.526 120.242 120.879 116.786 122.435 111.418Z" fill="#1F1C3D"/>
<path d="M88.7322 162.326C92.0316 160.117 92.1852 154.561 89.0752 149.917C85.9651 145.273 80.7693 143.3 77.4699 145.509C74.1705 147.719 74.0171 153.275 77.1271 157.919C80.2371 162.563 85.4328 164.536 88.7322 162.326Z" fill="#1F1C3D"/>
<path d="M32.062 140.202C35.3614 137.993 35.5148 132.437 32.4048 127.793C29.2948 123.149 24.0991 121.176 20.7997 123.385C17.5003 125.595 17.3465 131.151 20.4565 135.795C23.5666 140.439 28.7626 142.412 32.062 140.202Z" fill="#1F1C3D"/>
<path d="M59.0635 151.223C62.3629 149.014 62.5163 143.458 59.4063 138.814C56.2963 134.17 51.1005 132.196 47.8011 134.406C44.5017 136.616 44.348 142.172 47.458 146.815C50.568 151.459 55.7641 153.433 59.0635 151.223Z" fill="#1F1C3D"/>
<path d="M82.4988 126.852C85.7982 124.642 85.9518 119.086 82.8418 114.442C79.7317 109.798 74.5359 107.825 71.2365 110.034C67.9371 112.244 67.7837 117.8 70.8937 122.444C74.0037 127.088 79.1994 129.061 82.4988 126.852Z" fill="#1F1C3D"/>
<path d="M25.8342 104.746C29.1336 102.536 29.287 96.9802 26.177 92.3362C23.067 87.6923 17.8713 85.7189 14.5719 87.9285C11.2725 90.1381 11.1188 95.694 14.2288 100.338C17.3388 104.982 22.5349 106.955 25.8342 104.746Z" fill="#1F1C3D"/>
<path d="M52.8301 115.758C56.1295 113.549 56.2829 107.993 53.1729 103.349C50.0629 98.705 44.8671 96.7316 41.5677 98.9412C38.2683 101.151 38.1146 106.707 41.2246 111.351C44.3346 115.995 49.5307 117.968 52.8301 115.758Z" fill="#1F1C3D"/>
<path d="M147.1 89.1799L91.2097 165.42L129.25 252.5L185.52 176.45L147.1 89.1799Z" fill="white"/>
<path d="M222.49 263.12L129.25 252.5L185.52 176.45L278.77 187.07L222.49 263.12Z" fill="white"/>
<path d="M147.29 89.6201L241.3 100.34L278.77 187.07L185.52 176.45L147.29 89.6201Z" fill="white"/>
<path d="M279.05 186.68L241.68 100.17L241.58 99.96L148.07 89.3L147.33 89.22L147.1 89.1899L90.7297 165.37L128.77 252.45L128.96 252.89L129.43 252.94L222.44 263.54L222.68 263.56L279.24 187.12L279.05 186.68ZM129.34 251.68L91.6797 165.47L147.22 90.02L185.05 176.39L129.34 251.68ZM185.71 175.88L147.79 89.8601L148.28 89.9199L241.01 100.72L278.1 186.58L185.79 176.07L185.7 175.88H185.71ZM222.31 262.68L130 252.17L185.7 176.88L278.01 187.39L222.31 262.68Z" fill="#1F1C3D" stroke="#1F1C3D" stroke-miterlimit="10"/>
<path d="M223.984 142.636C226.073 139.812 224.006 134.741 219.367 131.308C214.727 127.875 209.273 127.381 207.183 130.204C205.094 133.028 207.161 138.1 211.8 141.533C216.44 144.966 221.894 145.46 223.984 142.636Z" fill="#1F1C3D"/>
<path d="M161.418 245.859C166.329 243.191 168.773 238.199 166.877 234.71C164.981 231.221 159.463 230.556 154.552 233.224C149.641 235.893 147.197 240.885 149.093 244.374C150.989 247.863 156.507 248.528 161.418 245.859Z" fill="#1F1C3D"/>
<path d="M205.745 227.153C210.656 224.485 213.1 219.493 211.204 216.004C209.308 212.515 203.79 211.85 198.879 214.519C193.968 217.187 191.524 222.179 193.42 225.668C195.316 229.157 200.834 229.822 205.745 227.153Z" fill="#1F1C3D"/>
<path d="M251.705 209.306C256.616 206.637 259.06 201.645 257.164 198.156C255.268 194.667 249.75 194.002 244.839 196.67C239.928 199.339 237.484 204.331 239.38 207.82C241.276 211.309 246.794 211.974 251.705 209.306Z" fill="#1F1C3D"/>
<path d="M139.192 221.653C140.309 216.176 138.059 211.094 134.168 210.301C130.277 209.508 126.218 213.304 125.102 218.781C123.986 224.258 126.235 229.34 130.126 230.133C134.017 230.926 138.076 227.129 139.192 221.653Z" fill="#1F1C3D"/>
<path d="M172.555 178.56C173.671 173.083 171.422 168 167.531 167.207C163.64 166.414 159.581 170.211 158.464 175.688C157.348 181.164 159.598 186.247 163.488 187.04C167.379 187.833 171.438 184.036 172.555 178.56Z" fill="#1F1C3D"/>
<path d="M143.442 173.551C144.559 168.074 142.309 162.992 138.418 162.199C134.527 161.406 130.468 165.202 129.352 170.679C128.236 176.155 130.485 181.238 134.376 182.031C138.267 182.824 142.326 179.027 143.442 173.551Z" fill="#1F1C3D"/>
<path d="M149.683 123.191C150.799 117.714 148.55 112.632 144.659 111.839C140.768 111.046 136.709 114.843 135.592 120.319C134.476 125.796 136.726 130.878 140.617 131.671C144.508 132.464 148.567 128.667 149.683 123.191Z" fill="#1F1C3D"/>
<path d="M116.857 168.81C117.973 163.334 115.724 158.251 111.833 157.458C107.942 156.665 103.883 160.462 102.767 165.938C101.651 171.415 103.9 176.497 107.791 177.29C111.682 178.083 115.741 174.287 116.857 168.81Z" fill="#1F1C3D"/>
</svg>
