<?xml version="1.0" encoding="UTF-8"?>
<svg id="Capa_2" xmlns="http://www.w3.org/2000/svg" viewBox="0 0 3398.05 3513.29">
  <defs>
    <style>
      .cls-1 {
        fill: #1f1c3d;
      }
    </style>
  </defs>
  <g id="Capa_1-2" data-name="Capa_1">
    <path class="cls-1" d="M2366.24,1156.32l-304.23-175.66V209.75L1698.56,0,23.12,967.21l-23.12,13.55v1551.81l1695.48,978.93,3.09,1.78,1684.92-971.55,14.56-8.78V981.2l-364.24-210.28-667.56,385.41ZM1001.4,856.41v2186.12l-608.49-351.37v-1483.63l608.49-351.13ZM2090.92,1383.63l-1059.79-612.71-667.82,385.41-274.48-158.54L1698.56,68.42l274.63,158.4-667,385.12,1060.35,612.52,667.27-385.26,275.42,159.12-1610.81,928.78-274.48-158.4,666.98-385.07ZM1973.12,1383.29l-598.15,345.2-39.85,23.14v1483.49l-274.51-158.45V856.31l912.51,526.98ZM1668.96,3427.8l-274.63-158.4v-1449.49l274.48,158.59.14,1449.3ZM1424.06,612.23l578.74-334.06v668.35l-578.74-334.3ZM59.21,2498.43v-1449.44l274.48,158.54v1449.44l-274.48-158.54ZM1728.03,1978.5l1610.81-928.98v1449.44l-1610.66,928.98-.14-1449.44Z"/>
  </g>
</svg>