<svg width="79" height="79" viewBox="0 0 79 79" fill="none" xmlns="http://www.w3.org/2000/svg">
<g clip-path="url(#clip0_122_1491)">
<path d="M39.04 0C17.52 0 0 17.51 0 39.04C0 60.57 17.51 78.0801 39.04 78.0801C60.57 78.0801 78.08 60.57 78.08 39.04C78.08 17.51 60.57 0 39.04 0ZM39.04 77.5601C17.8 77.5601 0.520004 60.28 0.520004 39.04C0.520004 17.8 17.8 0.52002 39.04 0.52002C60.28 0.52002 77.56 17.8 77.56 39.04C77.56 60.28 60.28 77.5601 39.04 77.5601Z" fill="#1F1C3D"/>
<path d="M62.1899 29.1099V29.0298L57.4799 26.3101H57.2499L48.1599 31.5698L43.8799 29.1099V18.5801L43.8099 18.54V18.46L39.1099 15.75H38.8799L15.7199 29.0898V29.1699L15.6499 29.21L15.7099 48.7998L15.8199 49L20.3999 51.6499L29.6299 56.96L29.6499 57L34.3299 59.6699H34.3399L38.9199 62.29H38.9399C38.9399 62.29 39.0299 62.3101 39.0799 62.3101C39.1399 62.3101 39.2099 62.2898 39.2599 62.2598L62.2599 48.9702L62.3799 48.77L62.2299 29.1299L62.1599 29.0898L62.1899 29.1099ZM20.2899 50.9502L16.2799 48.6201L16.2199 29.77L20.3099 32.1201L20.2899 50.9399V50.9502ZM20.8999 51.2998L20.8599 32.1299L29.4899 27.1401L29.5499 56.2798L20.8899 51.2998H20.8999ZM34.1199 39.6602V39.71L34.0999 39.75L34.0499 39.7798V39.8301L34.1799 58.9302L30.0999 56.5801L30.0399 27.1201L42.9899 34.5298L34.1099 39.6499L34.1199 39.6602ZM38.7499 61.5498L34.7699 59.2798L34.6499 44.6099L34.6199 40.3599L35.1999 40.6899L38.7699 42.7598L38.7499 61.5601V61.5498ZM39.0399 42.27L34.8899 39.8701L43.7699 34.75V34.3501L29.8899 26.4102L29.8399 26.3799L29.7899 26.4102H29.6499L20.5799 31.6602L16.4899 29.3101L38.9999 16.3398L43.0499 18.6802L38.7999 21.1299L34.1899 23.79V24.1899L34.2499 24.2202L38.8699 26.8901L41.1699 28.2002L48.0499 32.1499H48.2799L57.3699 26.8999L61.4299 29.2397L39.0399 42.2798V42.27ZM43.3299 19.1401V28.7798L41.4299 27.7002L34.9499 23.98L36.9099 22.8501L43.3299 19.1499V19.1401ZM39.3099 61.6299V42.7397L46.8499 38.3599L61.7099 29.71L61.8599 48.6001L39.3099 61.6299Z" fill="#1F1C3D"/>
</g>
<defs>
<clipPath id="clip0_122_1491">
<rect width="78.08" height="78.0801" fill="white"/>
</clipPath>
</defs>
</svg>
