<?xml version="1.0" encoding="UTF-8"?>
<svg id="Capa_2" xmlns="http://www.w3.org/2000/svg" viewBox="0 0 7828.19 2765.59">
  <defs>
    <style>
      .cls-1 {
        fill: #ABA9D5;
      }
    </style>
  </defs>
  <g id="Capa_1-2" data-name="Capa_1">
    <g>
      <rect class="cls-1" x="3528.66" y="439.78" width="155.49" height="858.4"/>
      <path class="cls-1" d="M3974.48,920.94c0-31.01,5.79-57.41,17.4-79.21,11.58-21.8,27.65-38.49,48.2-50.09,20.52-11.58,44.08-17.39,70.62-17.39,39.12,0,69.8,12.16,91.99,36.47,22.22,24.31,33.32,57.99,33.32,101v386.46h151.73v-409.92c.29-51.41-8.73-95.14-27.02-131.19-18.32-36.04-44.01-63.56-77.14-82.56-33.1-19.01-71.88-28.5-116.3-28.5-48.06,0-88.36,10.63-120.91,31.86-32.57,21.23-56.25,49.87-71.06,85.92h-7.56v-109.4h-145v643.8h151.71v-377.24Z"/>
      <path class="cls-1" d="M4860.4,931.01l-109.81-23.47c-32.69-7.55-56.1-17.19-70.21-28.92-14.11-11.73-21.04-26.96-20.75-45.69-.29-21.8,10.27-39.54,31.65-53.23,21.37-13.69,47.84-20.54,79.42-20.54,23.48,0,43.33,3.77,59.52,11.32,16.21,7.54,29.13,17.46,38.77,29.76,9.65,12.3,16.41,25.43,20.33,39.39l138.31-15.09c-10.32-54.76-37.25-98.22-80.68-130.35-43.45-32.13-102.9-48.2-178.34-48.2-51.43,0-96.77,8.03-136.03,24.1-39.26,16.07-69.84,38.71-91.78,67.9-21.96,29.2-32.76,63.64-32.47,103.31-.29,46.95,14.37,85.72,44.01,116.31,29.62,30.6,75.3,52.33,137.05,65.18l109.81,23.05c29.62,6.43,51.48,15.65,65.6,27.66,14.11,12.01,21.16,27.24,21.16,45.68,0,21.8-10.96,40.1-32.89,54.91-21.96,14.81-50.94,22.21-86.98,22.21s-63.3-7.4-85.09-22.21c-21.79-14.81-36.04-36.73-42.75-65.8l-147.95,14.25c9.21,59.25,37.85,105.42,85.91,138.53,48.06,33.11,111.5,49.67,190.32,49.67,53.63,0,101.13-8.67,142.5-25.99,41.34-17.32,73.7-41.42,97.01-72.3,23.34-30.87,35.16-66.56,35.43-107.09-.27-46.11-15.29-83.4-45.05-111.91-29.76-28.49-75.1-49.31-136.03-62.45Z"/>
      <path class="cls-1" d="M5219.45,604.5c24.31,0,45.05-8.03,62.26-24.1,17.18-16.07,25.76-35.42,25.76-58.04s-8.58-42.41-25.76-58.47c-17.21-16.07-37.95-24.1-62.26-24.1s-44.71,8.03-62.02,24.1c-17.33,16.07-26,35.56-26,58.47s8.68,41.98,26,58.04c17.3,16.07,38,24.1,62.02,24.1Z"/>
      <path class="cls-1" d="M5970.03,1445.29c26.25-36.04,39.38-81.59,39.38-136.63v-654.28h-149.62v106.47h-8.39c-7.56-15.65-18.59-32.34-33.13-50.09-14.52-17.74-34.03-32.97-58.45-45.69-24.45-12.7-55.55-19.06-93.25-19.06-49.46,0-94.32,12.64-134.55,37.93-40.23,25.29-72.17,62.31-95.78,111.07-23.6,48.77-35.41,108.5-35.41,179.19s11.8,128.46,35.41,174.98c23.6,46.53,55.45,81.47,95.56,104.79,40.11,23.34,84.89,35.01,134.33,35.01,36.88,0,67.56-5.59,92.02-16.77,24.45-11.17,44.13-25,59.08-41.49,14.95-16.48,26.34-32.55,34.17-48.2h7.54v121.97c0,47.5-14.11,81.66-42.34,102.48-28.21,20.82-63.83,31.23-106.87,31.23-30.46,0-55.69-4.13-75.66-12.37-19.97-8.24-35.82-18.58-47.57-31.01-11.73-12.44-20.67-24.94-26.8-37.52l-136.66,33.11c9.23,29.9,25.71,57.14,49.46,81.73,23.75,24.59,55.18,44.22,94.32,58.89,39.09,14.66,85.91,22,140.42,22,57.82,0,109.51-8.94,155.05-26.82,45.56-17.89,81.48-44.85,107.75-80.9ZM5842.16,1078.97c-11.73,29.33-28.91,51.83-51.55,67.47-22.64,15.65-50.02,23.47-82.15,23.47s-61.27-8.17-84.02-24.52c-22.78-16.35-39.96-39.25-51.57-68.73-11.59-29.49-17.4-63.92-17.4-103.32s5.74-73.56,17.21-104.15c11.44-30.6,28.5-54.71,51.11-72.31,22.66-17.6,50.87-26.41,84.68-26.41s60.29,8.45,82.79,25.36c22.49,16.91,39.55,40.59,51.13,71.05,11.61,30.45,17.4,65.94,17.4,106.46s-5.87,76.28-17.62,105.63Z"/>
      <path class="cls-1" d="M6293.44,920.94c0-31.01,5.94-57.41,17.84-79.21,11.85-21.8,28.35-38.49,49.44-50.09,21.11-11.58,45.08-17.39,71.88-17.39,39.96,0,71.05,12.09,93.28,36.26,22.2,24.17,33.32,57.91,33.32,101.21v386.46h151.71v-409.92c0-51.97-9.14-95.98-27.43-132.02-18.32-36.05-44.11-63.43-77.33-82.16-33.28-18.72-72.25-28.08-116.96-28.08-49.17,0-89.62,10.54-121.34,31.64-31.72,21.1-55.11,49.82-70.21,86.14h-7.54v-323.99h-148.36v858.4h151.71v-377.24Z"/>
      <path class="cls-1" d="M6884.3,1129.69c-.29,40.23,8.43,73.77,26.17,100.59,17.76,26.82,41.85,46.59,72.32,59.3,30.44,12.72,64.68,18.51,102.68,17.39,21.52-.55,39.77-2.51,54.7-5.87,14.95-3.35,26.47-6.42,34.58-9.22l-25.57-118.62c-4.19,1.13-10.25,2.39-18.22,3.78-7.97,1.39-16.7,2.09-26.2,2.09-12.58,0-24.04-1.95-34.36-5.87-10.35-3.91-18.66-11.24-24.94-22-6.3-10.75-9.45-26.33-9.45-46.73v-332.8h127.01v-117.36h-127.01v-154.25h-151.71v154.25h-91.39v117.36h91.39v357.95Z"/>
      <polygon class="cls-1" points="4081.91 1818.22 3684.14 1818.22 3684.14 1454.83 3528.66 1454.83 3528.66 2313.23 3684.14 2313.23 3684.14 1948.58 4081.91 1948.58 4081.91 2313.23 4237.83 2313.23 4237.83 1454.83 4081.91 1454.83 4081.91 1818.22"/>
      <path class="cls-1" d="M4786.77,2042.47c0,32.69-6.76,59.87-20.33,81.52-13.55,21.66-30.8,37.92-51.77,48.83-20.94,10.89-42.6,16.35-64.95,16.35-36.35,0-65.68-12.01-88.04-36.04-22.34-24.03-33.52-56.45-33.52-97.25v-386.44h-151.73v409.92c0,51.42,9.09,95.22,27.24,131.4,18.18,36.19,43.38,63.71,75.66,82.56,32.28,18.87,69.51,28.3,111.7,28.3,48.35,0,89.06-11.46,122.19-34.37,33.11-22.9,56.93-52.39,71.47-88.44h6.69v114.43h147.13v-643.8h-151.73v373.04Z"/>
      <path class="cls-1" d="M5531.65,1689.56c-33.11-19.01-71.88-28.51-116.3-28.51-48.06,0-88.36,10.63-120.91,31.86-32.57,21.23-56.25,49.87-71.06,85.92h-7.54v-109.4h-145.02v643.8h151.71v-377.23c0-31.01,5.82-57.41,17.4-79.21,11.58-21.8,27.68-38.49,48.2-50.1,20.55-11.58,44.08-17.39,70.62-17.39,39.11,0,69.79,12.16,92.02,36.47,22.2,24.31,33.3,57.99,33.3,101.01v386.45h151.76v-409.92c.27-51.41-8.75-95.14-27.05-131.19-18.32-36.04-44.01-63.56-77.14-82.56Z"/>
      <path class="cls-1" d="M6668.49,1739.02c-27.24-26.55-58.53-46.17-93.89-58.9-35.34-12.7-72.85-19.07-112.52-19.07-61.48,0-114.99,14.04-160.53,42.12-45.56,28.09-80.99,67.21-106.27,117.36-25.3,50.16-37.93,108.35-37.93,174.58s12.58,125.81,37.71,175.41c25.16,49.6,61.15,87.88,107.94,114.85,46.8,26.96,102.49,40.45,167.03,40.45,50.02,0,94.44-7.62,133.29-22.85,38.85-15.23,70.76-36.74,95.77-64.55,25.01-27.8,41.98-60.42,50.92-97.87l-141.65-15.93c-6.71,18.16-16.65,33.39-29.76,45.69-13.16,12.3-28.65,21.58-46.53,27.87-17.88,6.28-37.85,9.43-59.93,9.43-32.98,0-61.77-7.05-86.35-21.16-24.6-14.11-43.74-34.51-57.44-61.19-13.21-25.76-19.9-56.65-20.36-92.43h448.31v-46.52c0-56.43-7.83-105.13-23.48-146.07-15.65-40.93-37.08-74.67-64.34-101.21ZM6308.44,1930.56c1.48-25.2,7.73-48.67,19.29-70.21,13.01-24.17,31.24-43.73,54.72-58.68,23.46-14.95,50.7-22.43,81.72-22.43,29.06,0,54.55,6.57,76.48,19.71,21.93,13.13,39.06,31.09,51.35,53.85,12.29,22.78,18.59,48.7,18.85,77.76h-302.43Z"/>
      <path class="cls-1" d="M7173.64,1660.21c-36.88,0-69.65,10.13-98.27,30.39-28.67,20.26-48.86,48.96-60.59,86.13h-6.71v-107.3h-147.11v643.8h151.73v-378.49c0-27.38,6.28-51.55,18.85-72.51,12.58-20.95,29.83-37.37,51.76-49.24,21.93-11.87,46.72-17.82,74.4-17.82,12.84,0,26.2.91,40.03,2.73,13.81,1.82,23.94,3.84,30.37,6.08v-139.57c-6.98-1.39-15.7-2.44-26.2-3.15-10.47-.69-19.9-1.05-28.28-1.05Z"/>
      <path class="cls-1" d="M7783.14,2008.51c-29.76-28.5-75.1-49.31-136.03-62.45l-109.81-23.47c-32.69-7.55-56.1-17.18-70.21-28.92-14.11-11.74-21.04-26.96-20.75-45.69-.29-21.8,10.28-39.54,31.65-53.23,21.37-13.69,47.84-20.54,79.42-20.54,23.48,0,43.33,3.77,59.52,11.32,16.21,7.54,29.13,17.46,38.77,29.76,9.65,12.3,16.41,25.43,20.33,39.4l138.31-15.09c-10.32-54.76-37.25-98.21-80.68-130.35-43.45-32.14-102.9-48.2-178.34-48.2-51.43,0-96.77,8.03-136.03,24.1-39.26,16.07-69.84,38.71-91.78,67.9-21.93,29.2-32.76,63.64-32.47,103.31-.29,46.95,14.37,85.72,44.01,116.31,29.62,30.6,75.3,52.33,137.05,65.18l109.81,23.05c29.62,6.43,51.5,15.65,65.6,27.67,14.11,12.01,21.16,27.24,21.16,45.68,0,21.8-10.96,40.1-32.89,54.91-21.96,14.81-50.94,22.21-86.98,22.21s-63.3-7.4-85.09-22.21c-21.79-14.81-36.03-36.73-42.75-65.8l-147.95,14.25c9.21,59.25,37.85,105.42,85.91,138.53,48.08,33.1,111.5,49.67,190.31,49.67,53.63,0,101.13-8.67,142.5-25.99,41.34-17.32,73.7-41.42,97.01-72.3,23.34-30.87,35.16-66.56,35.43-107.09-.27-46.1-15.29-83.4-45.05-111.91Z"/>
      <path class="cls-1" d="M5144.38,654.38h-1.19v643.8h151.71v-643.78c-21.79,15.41-46.82,23.53-75.44,23.53s-53.22-8.13-75.08-23.55Z"/>
      <path class="cls-1" d="M6056.3,2192.1c-7.97,1.39-16.72,2.09-26.22,2.09-12.55,0-24.02-1.95-34.36-5.87-10.35-3.91-18.64-11.24-24.94-22-6.28-10.75-9.43-26.33-9.43-46.73v-332.8h127.01v-117.36h-127.01v-117.58c-21.67,16.86-46.24,30.97-74.16,41.93-24.29,9.53-50.26,16.61-77.58,21.76v53.89h-91.36v117.36h91.36v357.95c-.29,40.23,8.46,73.77,26.2,100.59,17.74,26.82,41.85,46.59,72.32,59.3,30.44,12.71,64.66,18.51,102.68,17.39,21.52-.56,39.75-2.51,54.7-5.87,14.93-3.35,26.47-6.42,34.58-9.22l-25.57-118.62c-4.19,1.13-10.27,2.39-18.22,3.78Z"/>
      <path class="cls-1" d="M1862.66,910.24l-239.49-138.28V165.11L1337.08,0,18.2,761.37l-18.2,10.67v1221.55l1334.65,770.59,2.43,1.4,1326.33-764.79,11.46-6.91V772.38l-286.72-165.53-525.49,303.39ZM788.28,674.15v1720.87l-478.99-276.59V950.54l478.99-276.4ZM1645.93,1089.16l-834.25-482.31-525.7,303.39-216.07-124.8L1337.08,53.86l216.18,124.69-525.05,303.16,834.68,482.16,525.26-303.27,216.81,125.26-1267.99,731.12-216.07-124.69,525.03-303.12ZM1553.2,1088.9l-470.85,271.73-31.37,18.22v1167.77l-216.09-124.73V674.07l718.31,414.83ZM1313.77,2698.29l-216.18-124.69v-1141.01l216.07,124.84.11,1140.86ZM1120.99,481.93l455.57-262.96v526.12l-455.57-263.15ZM46.61,1966.72V825.74l216.07,124.8v1140.97l-216.07-124.8ZM1360.27,1557.43l1267.99-731.27v1140.97l-1267.88,731.27-.11-1140.97Z"/>
    </g>
  </g>
</svg>