<svg width="1920" height="1036" viewBox="0 0 1920 1036" fill="none" xmlns="http://www.w3.org/2000/svg">
<g clip-path="url(#clip0_139_791)">
<g clip-path="url(#clip1_139_791)">
<mask id="mask0_139_791" style="mask-type:luminance" maskUnits="userSpaceOnUse" x="0" y="0" width="1920" height="1036">
<path d="M1920 0H0V1036H1920V0Z" fill="white"/>
</mask>
<g mask="url(#mask0_139_791)">
<path fill-rule="evenodd" clip-rule="evenodd" d="M1524.18 562.299C1518.99 585.987 1533.56 599.221 1571.51 585.527C1579.46 602.312 1609.85 588.798 1632.68 564.47C1626.07 577.824 1624.88 598.281 1635.88 604.533C1643.89 617.037 1650.53 630.411 1674.46 629.781C1672.49 636.403 1670.18 643.805 1668.33 649.697C1646.59 653.568 1620.07 674.565 1588.1 720.419C1578.64 734.004 1572.44 748.528 1568.43 763.353C1536.39 842.438 1547.78 882.851 1565.63 974.861C1562.26 985.494 1561.51 995.767 1561.83 1004.34C1563.5 1013.75 1569.79 1022.12 1576.83 1027.62C1577.71 1028.87 1578.66 1030.06 1579.76 1031.07C1580.38 1031.64 1581.33 1031.61 1581.93 1031.03C1583.82 1032.09 1578.44 1035.02 1576.18 1036.76H1840.77L1874.71 902.557L1907.02 959.586L1886.79 1036.76H1989.22C2013.05 973.91 2008.6 930.106 1976.84 854.442C1981.91 850.901 1984.37 846.5 1981.53 843.469C1977.59 838.867 1974.67 834.676 1973.25 829.064C1983.92 825.203 1979.75 845.419 1987.46 849.27C1995.47 853.272 1995.68 831.005 1992.61 824.022C1987.02 811.318 1978.11 808.868 1966.09 795.213L1953.03 801.665L1978.13 789.271C1962.13 764.103 1947.37 734.624 1934.91 706.435C1966.18 622.528 1969.04 492.317 1908.55 454.755L1910.16 423.685C1955.81 400.328 1972.94 376.44 1951.7 365.346C1955.85 298.345 1871.65 331.366 1857.13 310.029C1842.9 312.43 1834.77 342.569 1864.15 358.844C1855.76 378.401 1851.31 395.246 1850.12 407.98C1847.5 430.497 1855.46 437.349 1864.47 436.099L1861.27 444.652C1796.93 454.005 1750.98 558.068 1743.97 646.856C1737.06 669.623 1734.07 693.491 1737.09 725.741C1728.84 696.032 1717.02 671.234 1701.03 658.43C1699.92 647.446 1698.85 634.052 1698.6 625.349C1706.98 627.29 1714.94 626.119 1720.41 621.728C1725.09 617.977 1728.66 610.905 1729.82 602.222C1734.03 599.911 1736.99 595.47 1737.47 589.818C1738.18 581.495 1733.27 573.313 1726.06 569.902C1731.66 544.053 1707.51 520.246 1682.6 533.97C1681.97 532.89 1680.61 532.46 1679.48 533.04C1679.47 533.04 1679.45 533.06 1679.44 533.06C1673.42 524.577 1655.51 531.729 1654.43 537.041C1658.96 517.395 1654.91 501.95 1643.51 502.94C1632.76 474.251 1624.1 474.031 1608.56 482.744C1573.55 472.601 1552.24 477.162 1551.12 499.989C1528.93 502.25 1505.17 483.614 1509.77 502.64C1489.47 510.363 1510.72 551.766 1524.18 562.329V562.299ZM1749.55 794.613C1750.32 797.754 1751.12 800.945 1751.96 804.216C1753.38 804.826 1754.89 805.337 1756.45 805.797C1753.77 820.261 1753.05 839.127 1757.76 848.25C1755.75 865.346 1753.48 883.621 1751.08 902.798C1750.47 902.547 1749.86 902.307 1749.25 902.067C1753.28 874.869 1753.73 834.846 1749.55 794.613Z" fill="#484769"/>
<path d="M1860.15 936.608C1859.76 937.709 1858.57 942.38 1859.05 943.681C1864.49 948.002 1869.79 937.789 1870.52 936.298C1869.18 938.939 1869.33 941.93 1869.57 943.12C1879.4 945.151 1881.94 930.046 1886.4 926.445C1885.27 929.416 1881.52 937.639 1882.52 942.03C1885.45 943.181 1887.94 941.72 1890.36 939.119C1876.84 977.591 1867.11 1008.18 1859.73 1036.27H2050.37C2049.04 1028.59 2047.83 1020.76 2046.74 1012.72C2049.13 1012.23 2051.72 1011.22 2054.34 1009.74C2054.94 1010.32 2055.88 1010.35 2056.51 1009.78C2057.61 1008.77 2058.56 1007.58 2059.44 1006.33C2066.47 1000.84 2072.76 992.466 2074.44 983.053C2074.76 974.48 2074.01 964.207 2070.63 953.574C2088.48 861.564 2099.89 821.152 2067.83 742.066C2063.82 727.252 2057.63 712.717 2048.16 699.133C2016.2 653.268 1989.67 632.282 1967.94 628.41C1966.09 622.528 1963.77 615.116 1961.8 608.494C1985.73 609.114 1992.38 595.74 2000.38 583.246C2011.39 576.994 2010.2 556.537 2003.58 543.183C2026.41 567.511 2054.11 576.234 2062.06 559.448C2100.03 573.143 2117.28 564.69 2112.08 541.012C2125.55 530.439 2132.7 517.885 2112.4 510.163C2117 491.146 2107.33 480.933 2085.15 478.673C2084.03 455.845 2062.72 451.284 2027.71 461.427C2012.18 452.714 2003.51 452.934 1992.77 481.624C1981.36 480.633 1977.31 496.088 1981.84 515.724C1980.76 510.413 1962.85 503.26 1956.83 511.743C1956.82 511.743 1956.8 511.723 1956.79 511.723C1955.66 511.143 1954.3 511.573 1953.67 512.653C1928.77 498.929 1904.61 522.737 1910.21 548.585C1903.01 551.996 1898.09 560.179 1898.8 568.501C1899.28 574.153 1902.25 578.594 1906.46 580.905C1907.62 589.588 1911.18 596.66 1915.86 600.411C1921.34 604.803 1929.3 605.963 1937.67 604.033C1937.42 612.735 1936.35 626.13 1935.24 637.113C1888.38 674.635 1877.3 815.11 1887.02 880.781C1878.78 883.982 1869.79 888.323 1866.88 892.004L1857.61 905.298C1859.84 909.65 1863.64 907.519 1866.17 906.989C1859.6 914.501 1851.7 925.715 1852.06 936.248C1853.66 939.079 1857.28 938.979 1860.16 936.608H1860.15Z" fill="#2C2B49"/>
<path fill-rule="evenodd" clip-rule="evenodd" d="M1272.96 506.421C1272.86 506.351 1272.77 506.301 1272.67 506.231C1267.23 501.37 1261.25 497.329 1254.58 494.328C1242.38 488.846 1221.69 479.943 1201.85 477.352C1196.92 467.729 1192.77 456.706 1189.17 444.712C1225.47 422.185 1238.95 388.384 1231.89 378.371C1236.19 373.939 1249.99 356.834 1224.38 341.509C1194.68 323.723 1186.72 343.9 1186.72 343.9C1186.72 343.9 1133.72 309.349 1131.48 368.468H1131.46C1131.09 369.408 1130.73 370.338 1130.38 371.268C1130.38 371.268 1130.4 371.278 1130.41 371.288C1122.47 392.155 1118.78 409.09 1118.38 421.904C1118.37 421.924 1118.35 421.935 1118.33 421.955C1117.24 430.657 1119.37 447.813 1129.14 452.444C1131.78 452.274 1134.1 451.704 1136.18 450.884C1139.09 450.794 1142.33 450.133 1145.76 448.903C1147.85 465.658 1148.21 481.313 1148.48 493.487C1124.95 513.614 1112.72 532.24 1110.15 563.199C1110.06 563.059 1109.94 562.939 1109.8 562.839C1109.19 562.429 1108.36 562.589 1107.94 563.199C1107.71 563.53 1107.44 563.85 1107.1 564.09C1106.76 564.33 1106.33 564.52 1105.78 564.61C1105.74 564.61 1105.7 564.63 1105.66 564.64C1105.75 564.57 1105.84 564.5 1105.92 564.43C1106.37 564.04 1106.73 563.62 1107.03 563.179C1107.44 562.569 1107.28 561.739 1106.67 561.319C1106.06 560.909 1105.22 561.069 1104.81 561.679C1104.63 561.949 1104.43 562.189 1104.18 562.399C1104.12 562.449 1104.05 562.509 1103.98 562.559C1103.87 561.559 1103.74 560.549 1103.56 559.538C1103.9 559.578 1104.24 559.488 1104.53 559.268C1105.11 558.818 1105.22 557.978 1104.77 557.398C1104.55 557.108 1104.22 556.817 1103.82 556.547C1121.07 537.771 1118.3 508.572 1096.15 522.607C1046.33 480.473 992.37 515.744 1003.53 590.848C990.881 605.333 980.026 626.82 980.316 635.853C979.396 636.833 978.486 637.813 977.577 638.794C968.041 610.815 953.178 591.809 936.326 581.365C933.937 566.881 935.916 553.246 939.674 543.023C943.982 544.514 948.24 544.794 951.919 543.733C962.354 540.712 971.17 529.159 973.609 514.574C977.807 512.573 980.166 507.572 978.996 502.5C978.177 498.949 975.818 496.208 972.879 494.878C972.769 494.398 972.689 493.927 972.569 493.447C972.079 491.597 971.53 489.926 970.94 488.346C1006.38 430.617 972.459 388.054 924.501 420.674C922.762 410.371 916.105 397.327 908.019 393.455C885.919 392.765 873.375 407.5 877.423 421.594C880.902 425.046 885.729 428.096 890.957 430.517C855.034 450.724 808.585 518.035 914.026 534.94C914.166 534.88 914.296 534.831 914.436 534.77C911.008 548.585 905.27 563.059 900.283 571.842C876.314 573.203 852.885 589.258 837.932 619.097C837.892 619.177 837.862 619.257 837.822 619.327C831.165 630.211 824.908 641.765 819.1 653.988C820.02 603.352 810.484 558.268 778.679 538.752L779.469 509.782C790.953 508.962 799.479 494.898 795.831 473.361C796.551 472.781 797.21 472.1 797.8 471.31C797.46 471.04 797.11 470.78 796.741 470.55L796.641 470.49H796.621L796.611 470.47L796.551 470.43L796.521 470.41H796.511L796.491 470.39L796.461 470.37L796.431 470.35L796.401 470.33L796.371 470.31L796.341 470.29L796.311 470.27L796.281 470.25L796.251 470.23L796.221 470.21C796.081 470.13 795.931 470.05 795.781 469.97C821.819 451.234 828.096 437.249 807.016 429.337C810.844 417.993 805.687 409.951 780.668 418.673C779.029 407.24 768.344 405.379 752.431 415.893C742.206 404.049 727.803 411.151 722.555 434.318C716.638 460.447 720.746 483.674 746.214 499.679L735.049 529.509C699.566 534.65 670.099 570.812 650.628 616.617C645.801 608.734 640.223 601.892 633.766 596.45C634.776 593.839 639.494 575.243 636.705 567.821C628.998 568.621 621.272 568.291 613.625 567.571C613.266 565.22 612.946 562.959 612.716 560.929C620.362 562.609 627.609 561.479 632.607 557.468C636.955 553.987 640.333 547.384 641.453 539.292C645.311 537.131 648.02 533.01 648.459 527.798C649.219 518.825 642.972 510.003 634.496 508.092L634.446 508.012L634.396 507.932L634.296 507.762L634.246 507.682L634.136 507.512L634.086 507.432L634.036 507.352L633.986 507.272L633.936 507.192L633.886 507.112L633.836 507.032L633.726 506.862L633.616 506.691L633.456 506.441L633.406 506.361L633.356 506.281L633.296 506.201L633.236 506.121L633.186 506.041L633.126 505.961L633.066 505.881L633.007 505.801L632.947 505.721L632.887 505.641L632.827 505.561L632.767 505.481L632.707 505.401L632.647 505.321L632.587 505.241L632.527 505.161L632.467 505.081L632.407 505.001L632.347 504.921L632.287 504.841L632.227 504.761L632.167 504.681L632.107 504.601L632.087 504.571C691.459 478.052 626.429 441.301 596.553 475.902C596.094 475.512 595.424 475.412 594.854 475.702C594.534 475.862 594.224 476.032 593.905 476.202C590.476 475.101 584.209 476.022 579.491 477.552C576.153 468.719 567.637 462.437 557.641 462.437C544.747 462.437 534.282 472.901 534.282 485.815C534.282 495.898 540.659 504.491 549.605 507.772C540.369 532.46 561.16 560.439 590.866 565.07C583.569 564.33 576.473 563.96 569.676 564.67C565.108 568.901 563.449 590.408 567.487 596.25C551.974 603.672 538.48 614.746 526.836 627.51C516.68 600.972 497.919 573.523 469.662 543.453C469.952 534.42 459.097 512.933 446.443 498.449C457.608 423.335 403.643 388.074 353.826 430.207C350.068 427.826 345.3 426.036 340.882 427.606C334.265 429.957 332.256 438.06 332.836 444.342C333.206 448.373 334.585 452.304 336.804 455.685C338.013 457.526 339.463 459.196 341.112 460.657C341.981 461.427 342.911 462.137 343.88 462.787C344.51 463.208 345.36 463.498 345.57 464.248C345.59 464.328 345.61 464.408 345.61 464.508C345.72 465.879 345.11 467.209 345.03 468.569C344.94 470.06 344.98 471.56 345.03 473.051C345.16 476.042 345.52 479.013 346.119 481.944C348.558 493.947 355.145 507.962 368.119 511.183C371.478 512.013 375.286 511.693 379.124 510.283C381.613 517.125 383.392 525.287 384.202 532.69C381.953 537.591 378.934 541.963 375.076 545.564L372.917 547.004C372.857 547.194 372.787 547.384 372.727 547.575C365.071 570.612 366.11 592.549 370.878 609.184C368.239 656.289 359.943 751.359 345.61 849.781C341.921 849.621 338.233 849.491 334.535 849.411L314.024 952.894L328.018 954.004C322.29 983.213 315.983 1011.24 309.087 1036.8H757.199L764.855 954.674L807.426 1008.66L801.288 1036.8H1207.22C1214.58 1018.18 1221.83 999.489 1229.1 980.803C1238.31 1000.51 1247.64 1018.8 1257.19 1036.8H1375.65L1319.6 851.031C1324.63 831.115 1326.26 810.298 1325.03 790.262C1352.99 778.278 1379.5 760.722 1390.74 746.168C1452.58 666.042 1322.82 548.105 1272.98 506.461L1272.96 506.421ZM1090.43 831.995C1090.41 831.855 1090.4 831.715 1090.38 831.585C1090.42 831.665 1090.46 831.755 1090.5 831.825C1090.47 831.885 1090.45 831.935 1090.42 831.995H1090.43ZM1110.54 941.97C1108.49 942.04 1106.43 942.11 1104.38 942.2C1103.52 936.278 1102.68 930.376 1101.86 924.485C1104.69 925.525 1108.05 925.505 1110.03 922.164C1111.51 923.854 1113.08 924.675 1114.64 924.845C1113.25 930.547 1111.88 936.248 1110.54 941.96V941.97ZM1089.14 819.951C1083.93 770.496 1080.61 728.332 1079.11 701.604C1083.88 684.968 1084.92 663.031 1077.26 639.994C1077.2 639.804 1077.13 639.614 1077.07 639.424L1074.91 637.983C1071.04 634.372 1068.02 630.011 1065.79 625.109C1066.6 617.707 1070.7 612.595 1073.2 605.753C1077.04 607.154 1078.51 604.433 1081.87 603.602C1093.75 600.641 1103.88 586.097 1104.24 568.551C1104.34 568.451 1104.43 568.341 1104.52 568.241L1104.54 568.221C1104.54 568.221 1104.62 568.121 1104.66 568.071L1104.68 568.051V568.031L1104.74 567.971V567.951L1104.77 567.931L1104.8 567.891L1104.82 567.871V567.851L1104.85 567.831V567.811L1104.88 567.791V567.771L1104.91 567.751V567.731L1104.94 567.711V567.691H1104.95L1104.97 567.671L1105 567.631V567.611H1105.01V567.591L1105.04 567.571L1105.07 567.531V567.511H1105.08V567.491L1105.13 567.431V567.411H1105.14V567.391L1105.19 567.321C1105.12 567.241 1105.05 567.171 1104.98 567.101V567.091L1104.89 567.001L1104.87 566.981H1104.86L1104.85 566.951H1104.84L1104.82 566.921H1104.81L1104.75 566.851H1104.74L1104.72 566.821H1104.71C1104.57 566.691 1104.43 566.571 1104.29 566.461C1104.29 566.12 1104.27 565.77 1104.25 565.43C1104.28 565.43 1104.31 565.41 1104.33 565.4C1104.57 565.31 1104.8 565.2 1105.01 565.09C1104.78 565.38 1104.66 565.76 1104.73 566.15C1104.85 566.881 1105.54 567.371 1106.27 567.251C1107.25 567.081 1108.04 566.741 1108.69 566.281C1109.26 565.88 1109.71 565.4 1110.07 564.9C1107.95 594.83 1114.55 636.193 1128.48 700.983C1115.75 753.86 1092.05 797.064 1089.19 819.941L1089.14 819.951Z" fill="#484769"/>
<path fill-rule="evenodd" clip-rule="evenodd" d="M640.533 553.446C640.893 570.992 651.018 585.537 662.903 588.498C666.261 589.328 670.069 589.008 673.908 587.597C676.396 594.44 678.176 602.602 678.985 610.005C676.736 614.906 673.718 619.277 669.859 622.879L667.7 624.319C667.641 624.509 667.571 624.699 667.511 624.889C659.854 647.927 660.894 669.864 665.661 686.499C663.023 733.604 654.726 828.674 640.393 927.095C636.705 926.935 633.016 926.805 629.318 926.725L608.808 1030.21L622.801 1031.32C622.431 1033.21 622.052 1035.09 621.682 1036.96H908.179C911.297 1028.95 914.416 1020.94 917.525 1012.92C921.373 1021.17 925.251 1029.15 929.159 1036.96H1046.55L1002.53 891.034C1007.25 872.328 1008.78 852.772 1007.62 833.956C1033.89 822.702 1001.72 825.383 1012.27 811.709C1070.35 736.455 1005.54 606.513 958.736 567.391C958.646 567.321 958.556 567.281 958.466 567.211C953.368 562.649 947.731 558.848 941.474 556.037C930.019 550.886 910.588 542.533 891.946 540.092C887.309 531.059 883.41 520.706 880.032 509.432C919.474 484.965 930.229 446.302 915.626 444.482C917.605 418.133 897.484 410.691 874.804 406.92C865.099 405.299 855.054 406.59 846.308 411.101C837.822 415.483 829.176 423.425 825.827 437.83C825.477 438.71 825.147 439.59 824.808 440.461C824.808 440.461 824.828 440.461 824.838 440.471C817.381 460.067 813.923 475.982 813.543 488.016C813.533 488.036 813.513 488.046 813.503 488.066C812.473 496.238 814.482 512.353 823.658 516.705C826.137 516.545 828.316 516.005 830.285 515.244C833.014 515.154 824.258 522.006 827.476 520.846C829.445 536.581 825.027 529.029 825.277 540.462C796.391 565.18 796.661 619.267 805.527 672.834C795.181 656.169 781.558 638.934 764.456 620.738C764.746 611.705 753.89 590.218 741.236 575.734C752.401 500.62 698.436 465.358 648.619 507.492C626.47 493.457 623.701 522.657 640.953 541.433L640.543 553.426L640.533 553.446Z" fill="#2C2B49"/>
<path fill-rule="evenodd" clip-rule="evenodd" d="M153.919 1036.99H265.027L241.878 976.441L282.029 902.057L310.856 1036.99H598.193C596.204 1029.34 594.094 1021.71 591.836 1014.01C591.446 1012.69 591.046 1011.36 590.656 1010.04C590.096 1008.17 589.537 1006.3 588.957 1004.43C588.397 1002.61 587.838 1000.78 587.268 998.948C586.838 997.578 586.398 996.197 585.968 994.827C585.519 993.427 585.079 992.016 584.629 990.606C584.169 989.185 583.709 987.755 583.25 986.334C582.79 984.914 582.32 983.483 581.85 982.053C581.39 980.663 580.931 979.272 580.461 977.872C579.941 976.301 579.401 974.721 578.872 973.13C578.132 970.939 577.382 968.739 576.623 966.528C576.033 964.808 575.443 963.087 574.843 961.356C574.344 959.926 573.844 958.486 573.334 957.045C572.804 955.545 572.285 954.034 571.745 952.514C571.225 951.043 570.705 949.563 570.176 948.082C569.616 946.502 569.046 944.901 568.476 943.311C567.977 941.91 567.477 940.51 566.967 939.099C566.258 937.119 565.538 935.118 564.808 933.117C564.129 931.247 563.449 929.356 562.759 927.456C562 925.355 561.23 923.254 560.46 921.124C559.94 919.703 559.421 918.273 558.891 916.832C558.211 914.972 557.521 913.101 556.832 911.22C556.322 909.82 555.802 908.42 555.283 907.009C554.523 904.938 553.753 902.848 552.984 900.747C552.524 899.487 552.054 898.226 551.584 896.956C550.545 894.145 549.495 891.294 548.436 888.423C559.521 886.993 570.216 885.172 580.271 882.911C580.721 878.25 578.182 857.243 572.755 829.634C584.159 818.781 593.415 808.148 599.022 800.325C609.627 799.205 615.635 793.223 621.782 785.57C636.815 782.159 648.599 778.688 647.51 769.965C652.108 768.155 653.997 762.723 650.618 756.921C654.447 756.021 658.405 750.539 655.016 745.047L646.7 744.667C654.497 742.897 656.366 737.205 653.847 732.724C644.391 730.933 615.055 731.983 606.369 734.934C597.263 742.237 584.399 755.061 576.933 768.825L560.69 777.918C550.835 741.686 545.457 672.554 528.355 647.656L531.374 628.39C542.848 632.662 550.475 632.272 557.971 626.42C570.326 616.757 574.963 588.568 556.432 561.999C556.002 547.004 543.738 534.981 528.655 534.981C525.107 534.981 521.718 535.651 518.599 536.871C513.842 533.05 507.805 530.759 501.228 530.759C489.213 530.759 478.978 538.392 475.1 549.075C474.81 549.075 474.52 549.045 474.23 549.045C456.838 549.045 442.745 563.149 442.745 580.555C442.745 583.976 443.295 587.257 444.304 590.348C442.025 589.818 439.656 589.538 437.217 589.538C419.825 589.538 405.732 603.642 405.732 621.048C405.732 627.68 407.781 633.832 411.279 638.904C407.701 642.385 405.052 646.826 403.743 651.808C393.787 565.86 349.098 470.42 287.607 461.487L284.408 452.934C293.414 454.185 301.37 447.333 298.751 424.815C297.842 415.182 295.763 385.623 284.588 368.888C286.797 364.716 288.056 359.965 288.056 354.913C288.056 338.418 274.693 325.044 258.21 325.044C251.293 325.044 244.926 327.404 239.869 331.356C235.181 328.285 229.573 326.484 223.546 326.484C207.933 326.484 195.129 338.478 193.82 353.763C179.327 355.813 168.182 368.267 168.182 383.332C168.182 397.527 178.077 409.401 191.341 412.442C191.311 413.012 191.291 413.592 191.291 414.172C191.291 430.667 204.655 444.042 221.137 444.042C226.905 444.042 232.292 442.401 236.86 439.56C237.47 439.88 238.09 440.2 238.709 440.52L240.329 471.59C179.837 509.152 186.284 630.081 213.961 723.271C201.507 751.46 186.743 780.939 170.741 806.107L195.839 818.501L182.785 812.049C170.761 825.703 161.855 828.154 156.268 840.858C153.199 847.85 153.409 870.117 161.415 866.106C169.122 862.255 164.953 842.038 175.629 845.9C174.199 851.511 171.28 855.713 167.342 860.304C164.504 863.335 166.963 867.737 172.03 871.278C143.154 940.09 136.876 982.553 153.899 1036.97L153.919 1036.99ZM407.981 1002.45C404.662 974.29 401.234 947.072 398.025 921.454L400.524 933.958C403.353 947.062 407.991 960.386 413.758 973.86L407.981 1002.46V1002.45ZM392.428 822.662C393.987 822.202 395.497 821.692 396.916 821.082C415.127 750.449 416.387 710.086 407.961 674.905C410.959 679.136 415.107 682.508 419.955 684.538C416.897 689.01 415.098 694.411 415.098 700.243C415.098 715.608 427.542 728.062 442.895 728.062C444.274 728.062 445.633 727.962 446.963 727.762L391.608 869.247C391.449 867.877 391.279 866.486 391.119 865.126C395.827 855.993 395.107 837.137 392.428 822.672V822.662Z" fill="#2C2B49"/>
<path fill-rule="evenodd" clip-rule="evenodd" d="M1128.84 952.444C1129.4 955.895 1130.29 958.285 1133.65 959.606C1134.79 962.787 1142.94 968.109 1145.27 963.407C1145.08 965.058 1149.8 973.84 1155.83 970.519C1172.86 988.505 1196.65 963.307 1202.99 937.719L1212.64 944.941C1222.15 934.728 1199.93 978.492 1208 969.989C1202.1 993.157 1196.92 1015.41 1192.31 1036.99H1433.98L1426.7 995.807C1431.12 982.433 1434.35 962.677 1431.77 945.491L1432.42 935.878L1432.49 935.798L1449.07 935.228C1449.84 927.496 1450.48 919.863 1451 912.331L1440.27 1036.24L1486.97 1037.01H1580.85C1595.81 978.892 1605.62 958.725 1620.24 934.918C1630.73 967.708 1641.92 1001.7 1654.78 1037.01H1726.3C1712.42 985.554 1701.68 935.808 1695.42 889.514C1697.46 889.093 1699.69 888.213 1701.94 886.963C1702.48 887.503 1703.35 887.523 1703.92 887.003C1704.96 886.052 1705.88 884.952 1706.69 883.762C1712.68 879 1717.98 871.848 1719.41 863.815C1719.69 856.383 1719.04 847.49 1716.11 838.277L1728.43 840.018C1738.86 786.221 1744.35 721.7 1729.86 683.218C1722.83 664.552 1710.69 636.613 1692.44 611.975C1697.41 596.44 1695.56 578.695 1686.95 564.79C1682.23 557.178 1675.7 550.696 1671.89 542.583C1667.48 533.15 1667.14 522.387 1666.97 511.973C1666.81 501.56 1666.67 490.827 1662.6 481.234C1658.53 471.64 1646.54 459.567 1636.13 459.827C1632.75 457.436 1622.68 455.015 1618.07 456.486C1617.78 456.326 1617.49 456.175 1617.19 456.025C1616.66 455.755 1616.04 455.845 1615.61 456.206C1579.15 425.256 1542.51 446.752 1564.46 470.91C1568.08 474.891 1573.83 479.053 1582.49 482.924L1582.47 482.954L1582.41 483.034L1582.35 483.114L1582.29 483.194L1582.24 483.274L1582.18 483.354L1582.13 483.434L1582.08 483.514L1582.03 483.594L1581.98 483.674L1581.93 483.754L1581.88 483.834L1581.83 483.914L1581.78 483.994L1581.73 484.074L1581.68 484.154L1581.63 484.234L1581.58 484.314L1581.53 484.395L1581.48 484.475L1581.43 484.555L1581.38 484.635L1581.33 484.715L1581.28 484.795L1581.13 485.025L1581.03 485.185L1580.93 485.345L1580.88 485.425L1580.83 485.505L1580.78 485.585L1580.73 485.665L1580.68 485.745L1580.63 485.825L1580.53 485.985L1580.48 486.065L1580.38 486.225L1580.33 486.305L1580.28 486.385C1572.38 488.156 1566.55 496.378 1567.26 504.751C1567.67 509.613 1570.2 513.444 1573.8 515.464C1574.85 523.007 1578 529.159 1582.05 532.4C1586.71 536.141 1593.46 537.191 1600.59 535.631C1600.38 537.521 1600.08 539.632 1599.74 541.813C1592.62 542.483 1585.42 542.793 1578.23 542.043C1577.55 543.833 1577.35 546.334 1577.44 549.095C1577.68 556.958 1580.28 566.921 1580.97 568.721C1574.95 573.793 1569.75 580.165 1565.24 587.517C1547.1 544.834 1519.65 511.133 1486.57 506.331L1477.7 482.644L1476.17 478.533C1476.58 478.273 1476.95 478.013 1477.35 477.752C1480.5 481.584 1485.28 484.024 1490.63 484.024C1500.14 484.024 1507.85 476.312 1507.85 466.789C1507.85 463.428 1506.87 460.297 1505.21 457.646C1510.48 454.695 1514.04 449.073 1514.04 442.601C1514.04 436.129 1510.15 430.017 1504.5 427.196C1505.88 424.716 1506.67 421.875 1506.67 418.834C1506.67 410.861 1501.25 404.169 1493.9 402.198C1493.94 401.728 1493.97 401.248 1493.97 400.768C1493.97 391.245 1486.26 383.532 1476.75 383.532C1472 383.532 1467.7 385.453 1464.59 388.564C1461.43 384.873 1456.75 382.532 1451.52 382.532C1442 382.532 1434.3 390.244 1434.3 399.768C1434.3 399.948 1434.32 400.118 1434.33 400.298C1419.43 397.357 1416.5 404.079 1419.5 412.972C1399.85 420.344 1405.71 433.378 1429.98 450.844L1430.38 451.114C1427.66 470.47 1434.75 487.215 1445.15 487.956L1445.89 514.954C1410.8 536.491 1404.79 591.459 1409.62 648.847C1402.64 633.562 1394.99 619.237 1386.81 605.853C1386.77 605.773 1386.73 605.683 1386.69 605.603C1370.57 573.443 1345.33 556.147 1319.5 554.677C1314.12 545.214 1307.93 529.619 1304.25 514.724C1304.4 514.784 1304.54 514.844 1304.69 514.904C1418.31 496.678 1382.72 415.112 1344.01 393.336C1349.64 390.725 1354.84 387.434 1358.59 383.712C1362.96 368.518 1349.42 352.633 1325.62 353.383C1316.9 357.554 1309.72 371.619 1307.85 382.722C1256.17 347.561 1205.16 402.478 1243.35 464.688C1242.72 466.389 1242.13 468.189 1241.6 470.19C1241.46 470.7 1241.38 471.21 1241.26 471.731C1238.1 473.161 1235.56 476.112 1234.68 479.943C1233.42 485.405 1235.96 490.797 1240.49 492.957C1243.11 508.672 1252.61 521.126 1263.85 524.387C1267.82 525.538 1272.41 525.228 1277.06 523.627C1281.11 534.641 1283.24 549.345 1280.67 564.95C1238.91 590.808 1208.45 665.492 1233.25 794.213C1208.14 830.555 1177.3 867.046 1152.06 899.687L1163.31 908.109C1152.93 909.55 1144.19 914.211 1137.2 919.613C1132.81 923.014 1123.6 948.912 1123.86 949.713C1124.2 950.733 1127.63 952.313 1128.87 952.564L1128.84 952.444Z" fill="#2C2B49"/>
<path fill-rule="evenodd" clip-rule="evenodd" d="M665.831 799.255C664.672 818.071 666.201 837.627 670.929 856.333L616.504 1036.7H726.413C736.469 1017.88 746.284 998.868 755.93 978.222C763.516 997.748 771.102 1017.27 778.809 1036.7H1283.43L1270.65 978.152L1311.25 926.655L1334.3 1036.7H1443.71C1455.12 997.618 1464.11 980.022 1476.49 959.876C1484.43 984.704 1493.66 1010.31 1504.01 1036.7H1581.46C1568.81 993.777 1558.68 952.273 1553.43 913.401C1555.52 912.971 1557.8 912.071 1560.1 910.79C1560.65 911.34 1561.55 911.37 1562.13 910.83C1563.19 909.86 1564.12 908.73 1564.95 907.509C1571.08 902.638 1576.51 895.315 1577.98 887.093C1578.26 879.49 1577.6 870.377 1574.6 860.954L1587.2 862.735C1594.9 823.042 1599.97 777.658 1596.64 740.656C1602.4 747.618 1608.29 752.93 1618.24 753.98C1623.85 761.803 1633.1 772.436 1644.51 783.29C1639.08 810.898 1636.55 831.915 1636.99 836.567C1647.05 838.817 1657.74 840.638 1668.83 842.078C1667.77 844.949 1666.72 847.8 1665.68 850.611C1665.21 851.881 1664.75 853.142 1664.28 854.402C1663.51 856.503 1662.74 858.594 1661.98 860.664C1661.46 862.075 1660.94 863.485 1660.43 864.876C1659.74 866.756 1659.05 868.627 1658.37 870.487C1657.85 871.918 1657.32 873.358 1656.8 874.779C1656.02 876.909 1655.26 879.01 1654.5 881.111C1653.81 883.011 1653.13 884.892 1652.45 886.773C1651.73 888.773 1651 890.774 1650.3 892.755C1649.79 894.165 1649.29 895.565 1648.79 896.966C1648.22 898.566 1647.65 900.157 1647.09 901.737C1646.56 903.218 1646.04 904.698 1645.52 906.169C1644.99 907.689 1644.46 909.19 1643.93 910.7C1643.43 912.141 1642.92 913.581 1642.42 915.012C1641.82 916.742 1641.23 918.463 1640.64 920.183C1639.88 922.394 1639.13 924.595 1638.39 926.785C1637.86 928.366 1637.32 929.956 1636.8 931.527C1636.33 932.927 1635.87 934.318 1635.41 935.708C1634.94 937.139 1634.47 938.559 1634.01 939.99C1633.55 941.42 1633.08 942.84 1632.63 944.261C1632.18 945.671 1631.73 947.072 1631.29 948.482C1630.85 949.863 1630.41 951.233 1629.99 952.604C1629.42 954.434 1628.86 956.265 1628.31 958.085C1627.74 959.956 1627.17 961.836 1626.61 963.697C1626.21 965.017 1625.81 966.348 1625.43 967.668C1618.7 990.586 1613.14 1013.1 1608.8 1036.67H1812.53L1807.06 996.317L1817.1 994.807L1803.5 927.506C1809.27 914.031 1813.91 900.707 1816.74 887.603L1816.85 857.493L1838.09 854.662L1770.3 681.407C1771.63 681.607 1772.99 681.707 1774.37 681.707C1789.72 681.707 1802.16 669.253 1802.16 653.888C1802.16 648.057 1800.38 642.655 1797.31 638.183C1807.35 633.992 1814.41 624.069 1814.41 612.495C1814.41 604.663 1811.17 597.6 1805.97 592.539C1809.47 587.457 1811.52 581.315 1811.52 574.683C1811.52 557.278 1797.43 543.173 1780.03 543.173C1777.6 543.173 1775.23 543.463 1772.95 543.983C1773.96 540.902 1774.51 537.611 1774.51 534.2C1774.51 516.795 1760.41 502.69 1743.02 502.69C1742.73 502.69 1742.44 502.71 1742.15 502.72C1738.27 492.037 1728.04 484.404 1716.02 484.404C1709.45 484.404 1703.41 486.695 1698.65 490.516C1695.53 489.306 1692.15 488.636 1688.6 488.636C1673.51 488.636 1661.25 500.66 1660.82 515.654C1642.3 542.223 1646.93 570.412 1659.28 580.075C1666.78 585.937 1674.39 586.317 1685.88 582.046L1688.9 601.312C1671.79 626.21 1666.42 695.342 1656.56 731.573L1640.32 722.48C1632.86 708.726 1620 695.892 1610.88 688.589C1605.71 686.829 1593.19 685.749 1581.92 685.538C1567.29 651.608 1540.93 604.573 1499.47 584.736C1503.32 579.165 1501.74 558.648 1497.39 554.607C1490.9 553.927 1484.13 554.287 1477.18 554.987C1506.81 550.365 1527.17 521.366 1515.14 497.088C1537.51 522.717 1637.49 515.334 1611.62 467.809C1589.11 426.476 1490.48 454.735 1492.76 473.651C1489.31 471.2 1478.98 468.729 1474.28 470.23C1473.98 470.07 1473.68 469.91 1473.38 469.76C1472.84 469.48 1472.2 469.58 1471.76 469.95C1443.26 436.939 1381.24 472 1437.86 497.298L1437.84 497.329L1437.78 497.408L1437.72 497.489L1437.66 497.569L1437.6 497.649L1437.54 497.729L1437.48 497.809L1437.42 497.889L1437.36 497.969L1437.3 498.049L1437.24 498.129L1437.19 498.209L1437.14 498.289L1437.08 498.369L1437.03 498.449L1436.98 498.529L1436.93 498.609L1436.88 498.689L1436.83 498.769L1436.78 498.849L1436.73 498.929L1436.68 499.009L1436.63 499.089L1436.58 499.169L1436.42 499.409L1436.32 499.569L1436.22 499.729L1436.17 499.809L1436.12 499.889L1436.07 499.969L1436.02 500.049L1435.97 500.129L1435.92 500.209L1435.82 500.37L1435.77 500.449L1435.67 500.61L1435.62 500.69L1435.57 500.77C1427.49 502.59 1421.53 511.003 1422.26 519.566C1422.68 524.537 1425.27 528.468 1428.95 530.529C1430.02 538.252 1433.24 544.544 1437.38 547.865C1442.16 551.686 1449.07 552.766 1456.36 551.166C1456.15 553.106 1455.85 555.257 1455.5 557.498C1448.21 558.188 1440.84 558.498 1433.49 557.738C1430.83 564.81 1435.32 582.556 1436.29 585.036C1430.14 590.228 1424.81 596.75 1420.21 604.273C1401.65 560.589 1373.54 526.098 1339.69 521.186L1329.04 492.737C1353.33 477.462 1357.25 455.315 1351.6 430.397C1346.6 408.3 1332.86 401.518 1323.11 412.822C1307.93 402.798 1297.74 404.569 1296.18 415.472C1272.31 407.15 1267.4 414.822 1271.05 425.646C1250.94 433.198 1256.93 446.532 1281.77 464.398L1281.7 467.639C1278.22 488.186 1286.34 501.6 1297.3 502.38L1298.06 530.009C1235.71 568.271 1263.05 709.646 1282.45 788.071C1273.11 801.575 1264.48 814.099 1256.55 825.803C1252.43 737.945 1228.92 667.863 1196.03 614.056C1195.99 613.976 1195.96 613.896 1195.92 613.826C1180.96 583.986 1157.53 567.931 1133.56 566.571C1129.8 559.928 1125.6 550.045 1122.29 539.642C1126.29 542.623 1131.25 544.394 1136.62 544.394C1148.32 544.394 1158.05 536.021 1160.18 524.937C1162.62 525.768 1165.22 526.228 1167.94 526.228C1181.19 526.228 1191.94 515.474 1191.94 502.21C1191.94 498.369 1191.03 494.738 1189.43 491.517C1193.87 487.155 1196.63 481.093 1196.63 474.381C1196.63 461.817 1186.98 451.504 1174.7 450.454C1174.88 449.273 1174.97 448.073 1174.97 446.842C1174.97 433.578 1164.22 422.825 1150.97 422.825C1148.26 422.825 1145.65 423.285 1143.22 424.105C1141.19 412.902 1131.4 404.399 1119.61 404.399C1110.08 404.399 1101.84 409.961 1097.97 418.023C1096.36 417.683 1094.7 417.503 1092.99 417.503C1079.74 417.503 1068.99 428.256 1068.99 441.521C1068.99 447.092 1070.89 452.214 1074.07 456.285C1069.94 460.527 1061.52 470.23 1061.29 488.166C1061.29 488.656 1061.09 489.116 1060.98 489.596C1058.04 490.916 1055.68 493.667 1054.86 497.218C1053.69 502.29 1056.05 507.292 1060.25 509.292C1062.69 523.877 1071.5 535.431 1081.94 538.452C1085.62 539.522 1089.87 539.232 1094.18 537.741C1097.94 547.965 1099.92 561.599 1097.53 576.084C1073.59 590.908 1053.65 623.049 1047.33 673.615C1038.2 660.56 1027.08 647.116 1013.91 633.102C1014.2 624.069 1003.34 602.582 990.691 588.097C1001.86 512.983 947.891 477.722 898.074 519.856C875.924 505.821 873.155 535.02 890.407 553.796L889.997 565.79C890.347 583.336 900.483 597.881 912.367 600.841C915.725 601.672 919.534 601.352 923.372 599.941C925.861 606.783 927.64 614.946 928.449 622.348C926.2 627.25 923.182 631.621 919.324 635.222L917.165 636.663C917.105 636.853 917.035 637.043 916.975 637.233C909.318 660.27 910.358 682.207 915.126 698.843C912.847 739.556 909.988 793.803 900.003 871.308C899.223 869.517 898.184 868.077 896.814 867.086C893.116 860.454 890.627 847.67 886.129 838.337C894.815 822.792 865.049 775.827 850.516 715.448C869.047 647.096 875.244 557.828 831.684 520.556C831.934 509.122 832.274 494.418 834.233 478.683C837.452 479.843 840.5 480.453 843.229 480.543C845.188 481.313 847.377 481.844 849.856 482.004C859.032 477.652 861.041 461.547 860.011 453.365C860.001 453.345 859.981 453.334 859.971 453.314C859.591 441.281 856.133 425.366 848.677 405.769C848.677 405.769 848.696 405.769 848.706 405.759C848.377 404.889 848.037 404.009 847.687 403.128C878.343 386.473 867.997 352.222 853.524 349.761C842.939 378.801 753.75 354.723 757.879 409.781C743.275 411.611 754.03 450.264 793.472 474.731C790.094 485.995 786.195 496.348 781.558 505.391C762.916 507.832 743.485 516.195 732.03 521.336C725.773 524.147 720.146 527.948 715.038 532.51C714.948 532.57 714.858 532.62 714.768 532.69C667.96 571.802 546.077 682.578 604.16 757.842C614.715 771.516 639.613 788.001 665.881 799.255H665.831Z" fill="#1F1C3D"/>
<path fill-rule="evenodd" clip-rule="evenodd" d="M-65.01 1007.74C-55.3145 1002.9 -60.552 977.471 -47.1282 982.333C-48.9174 989.395 -52.5958 994.667 -57.5535 1000.45C-61.1218 1004.27 -58.0332 1009.8 -51.6562 1014.25C-54.9047 1021.99 -57.9132 1029.46 -60.7119 1036.7H409.38C402.713 1013.49 394.407 988.015 383.722 957.625C386.141 960.226 388.64 961.686 391.568 960.536C392.568 956.135 388.82 947.922 387.69 944.951C392.138 948.552 394.677 963.667 404.512 961.626C404.752 960.436 404.902 957.455 403.563 954.804C404.303 956.295 409.6 966.508 415.038 962.186C415.517 960.886 414.328 956.215 413.938 955.114C416.817 957.495 420.435 957.585 422.034 954.754C422.384 944.221 414.498 933.007 407.921 925.495C410.46 926.025 414.258 928.156 416.487 923.804L407.211 910.51C404.302 906.839 395.317 902.497 387.081 899.286C396.796 833.616 385.711 693.141 338.853 655.619C337.743 644.635 336.674 631.241 336.424 622.538C344.8 624.479 352.766 623.309 358.234 618.917C362.912 615.166 366.48 608.094 367.639 599.411C371.848 597.1 374.816 592.659 375.296 587.007C376.006 578.684 371.088 570.502 363.881 567.091C369.479 541.242 345.33 517.435 320.421 531.159C319.792 530.079 318.432 529.649 317.303 530.229C317.293 530.229 317.273 530.249 317.263 530.249C311.246 521.766 293.334 528.919 292.254 534.23C296.782 514.584 292.734 499.139 281.329 500.129C270.584 471.44 261.919 471.22 246.386 479.933C211.372 469.79 190.062 474.351 188.942 497.178C166.753 499.439 157.087 509.652 161.685 528.668C158.686 529.809 156.297 531.059 154.428 532.39C136.277 514.154 115.856 501.99 93.7065 498.769L92.5969 488.826C103.922 490.396 111.018 480.963 107.73 452.644C106.73 442.041 103.952 429.167 99.1139 414.542C92.2471 393.765 78.9933 375.57 60.8017 363.426C36.8628 347.451 3.27837 340.478 -20.0408 399.017C-46.7584 412.972 -23.899 457.146 21.6798 469.039L25.728 470.29L27.767 509.372C-48.3178 556.617 -23.1394 714.838 1.07939 828.044C-14.5933 863.505 -33.1548 900.577 -53.2854 932.237L-21.7201 947.832L-38.1424 939.719C-53.2754 956.895 -64.4702 959.976 -71.497 975.961C-75.3652 984.754 -75.0953 1012.76 -65.02 1007.72L-65.01 1007.74ZM227.085 1033.09C227.005 1032.43 226.925 1031.77 226.845 1031.11C227.015 1031.15 227.185 1031.2 227.345 1031.24C227.265 1031.86 227.175 1032.48 227.085 1033.09ZM212.032 577.964C219.978 594.75 247.685 586.027 270.514 561.699C263.898 575.053 262.708 595.51 273.713 601.762C281.719 614.266 288.366 627.64 312.295 627.01C310.326 633.632 308.007 641.034 306.158 646.926C286.447 650.437 262.808 668.023 234.731 705.465C226.755 664.042 212.821 622.648 194.17 587.837C199.757 586.177 205.785 583.006 212.032 577.954V577.964Z" fill="#1F1C3D"/>
</g>
</g>
</g>
<defs>
<clipPath id="clip0_139_791">
<rect width="1920" height="1036" fill="white"/>
</clipPath>
<clipPath id="clip1_139_791">
<rect width="1920" height="1036" fill="white"/>
</clipPath>
</defs>
</svg>
