<svg width="1820" height="1449" viewBox="0 0 1820 1449" fill="none" xmlns="http://www.w3.org/2000/svg">
<g clip-path="url(#clip0_48_2134)">
<path d="M1642.3 1448.95C1753.54 1298.11 1819.31 1111.67 1819.31 909.87C1819.31 407.75 1412.26 0.689941 910.13 0.689941C408 0.689941 0.950195 407.74 0.950195 909.87C0.950195 1111.67 66.7102 1298.11 177.96 1448.95H1642.3Z" fill="#EF7E04"/>
<path d="M525.78 1448.95H1294.48C1462.57 1328.89 1572.15 1132.18 1572.15 909.87C1572.15 544.25 1275.75 247.85 910.13 247.85C544.51 247.85 248.11 544.25 248.11 909.87C248.11 1132.18 357.69 1328.89 525.78 1448.95Z" fill="#F49B4C"/>
<path d="M910.13 1352.17C1154.41 1352.17 1352.43 1154.15 1352.43 909.87C1352.43 665.594 1154.41 467.57 910.13 467.57C665.855 467.57 467.83 665.594 467.83 909.87C467.83 1154.15 665.855 1352.17 910.13 1352.17Z" fill="#FBCEA5"/>
</g>
<defs>
<clipPath id="clip0_48_2134">
<rect width="1818.36" height="1448.26" fill="white" transform="translate(0.950195 0.689941)"/>
</clipPath>
</defs>
</svg>
